<mxfile host="Electron" modified="2023-04-14T13:09:47.754Z" agent="Mozilla/5.0 (Windows NT 10.0; Win64; x64) AppleWebKit/537.36 (KHTML, like Gecko) draw.io/21.1.2 Chrome/106.0.5249.199 Electron/21.4.3 Safari/537.36" etag="k5bTvMNvob6HPPSUTlc9" version="21.1.2" type="device" pages="2">
  <diagram id="sYbn1ZRZAFL7KfqynhtD" name="overlays">
    <mxGraphModel dx="1548" dy="944" grid="1" gridSize="10" guides="1" tooltips="1" connect="1" arrows="1" fold="1" page="1" pageScale="1" pageWidth="850" pageHeight="1100" background="none" math="1" shadow="1">
      <root>
        <mxCell id="0" />
        <mxCell id="kkHppF8huGldMjRwOPR1-213" value="OSI Layers" style="" parent="0" />
        <UserObject label="Layer 7&lt;br style=&quot;font-size: 16px;&quot;&gt;Application" tags="L7" id="kkHppF8huGldMjRwOPR1-215">
          <mxCell style="rounded=1;whiteSpace=wrap;html=1;shadow=0;swimlaneLine=1;fillColor=#fa5252;fontColor=#000000;strokeColor=none;glass=0;fillStyle=hachure;gradientDirection=east;sketch=1;curveFitting=1;jiggle=1;align=left;verticalAlign=top;fontFamily=Kalam;fontSource=https%3A%2F%2Ffonts.googleapis.com%2Fcss%3Ffamily%3DKalam;movable=1;resizable=1;rotatable=1;deletable=1;editable=1;connectable=1;backgroundOutline=0;fixDash=0;metaEdit=0;fontSize=16;horizontal=1;labelPosition=center;verticalLabelPosition=middle;spacing=6;spacingTop=6;strokeWidth=0.25;comic=0;snapToPoint=0;hachureGap=2;container=0;collapsible=0;dropTarget=0;fillWeight=-1;hachureAngle=-41;simplification=0;fontStyle=0;labelBackgroundColor=none;labelBorderColor=none;spacingRight=0;" parent="kkHppF8huGldMjRwOPR1-213" vertex="1">
            <mxGeometry x="10" y="40" width="660" height="270" as="geometry" />
          </mxCell>
        </UserObject>
        <UserObject label="Layer 6&lt;br style=&quot;font-size: 16px;&quot;&gt;Presentation" tags="L6" id="kkHppF8huGldMjRwOPR1-216">
          <mxCell style="rounded=1;whiteSpace=wrap;html=1;shadow=0;swimlaneLine=1;fillColor=#be4bdb;fontColor=#000000;strokeColor=none;glass=0;fillStyle=hachure;gradientDirection=east;sketch=1;curveFitting=1;jiggle=1;align=left;verticalAlign=top;fontFamily=Kalam;fontSource=https%3A%2F%2Ffonts.googleapis.com%2Fcss%3Ffamily%3DKalam;movable=1;resizable=1;rotatable=1;deletable=1;editable=1;connectable=1;backgroundOutline=0;fixDash=0;metaEdit=0;spacingTop=6;spacing=6;fontSize=16;comic=0;snapToPoint=0;hachureGap=2;container=0;collapsible=0;fillWeight=-1;hachureAngle=-41;simplification=0;fontStyle=0;strokeWidth=0.25;spacingRight=0;" parent="kkHppF8huGldMjRwOPR1-213" vertex="1">
            <mxGeometry x="10" y="310" width="660" height="80" as="geometry" />
          </mxCell>
        </UserObject>
        <UserObject label="Layer 5&lt;br style=&quot;font-size: 16px;&quot;&gt;Session" tags="L5" id="kkHppF8huGldMjRwOPR1-217">
          <mxCell style="rounded=1;whiteSpace=wrap;html=1;shadow=0;swimlaneLine=1;fillColor=#fd7e14;fontColor=#000000;strokeColor=none;glass=0;fillStyle=hachure;gradientDirection=east;sketch=1;curveFitting=1;jiggle=1;align=left;verticalAlign=top;fontFamily=Kalam;fontSource=https%3A%2F%2Ffonts.googleapis.com%2Fcss%3Ffamily%3DKalam;movable=1;resizable=1;rotatable=1;deletable=1;editable=1;connectable=1;backgroundOutline=0;fixDash=0;metaEdit=0;fontSize=16;spacing=6;spacingTop=6;comic=0;snapToPoint=0;hachureGap=2;container=0;collapsible=0;fillWeight=-1;hachureAngle=-41;simplification=0;fontStyle=0;strokeWidth=0.25;spacingRight=0;" parent="kkHppF8huGldMjRwOPR1-213" vertex="1">
            <mxGeometry x="10" y="390" width="660" height="80" as="geometry" />
          </mxCell>
        </UserObject>
        <UserObject label="Layer 4&lt;br style=&quot;font-size: 16px;&quot;&gt;Transport" tags="L4" id="kkHppF8huGldMjRwOPR1-218">
          <mxCell style="rounded=1;whiteSpace=wrap;html=1;shadow=0;swimlaneLine=1;fillColor=#40c057;fontColor=#000000;strokeColor=none;glass=0;fillStyle=hachure;gradientDirection=east;sketch=1;curveFitting=1;jiggle=1;align=left;verticalAlign=top;fontFamily=Kalam;fontSource=https%3A%2F%2Ffonts.googleapis.com%2Fcss%3Ffamily%3DKalam;movable=1;resizable=1;rotatable=1;deletable=1;editable=1;connectable=1;backgroundOutline=0;fixDash=0;metaEdit=0;fontSize=16;spacing=6;spacingTop=6;comic=0;snapToPoint=0;hachureGap=2;container=0;collapsible=0;fillWeight=-1;hachureAngle=-41;simplification=0;fontStyle=0;strokeWidth=0.25;spacingRight=0;" parent="kkHppF8huGldMjRwOPR1-213" vertex="1">
            <mxGeometry x="10" y="470" width="660" height="80" as="geometry" />
          </mxCell>
        </UserObject>
        <UserObject label="Layer 3&lt;br style=&quot;font-size: 16px;&quot;&gt;Network" tags="L3" id="kkHppF8huGldMjRwOPR1-219">
          <mxCell style="rounded=1;whiteSpace=wrap;html=1;shadow=0;swimlaneLine=1;fillColor=#228be6;fontColor=#000000;strokeColor=none;glass=0;fillStyle=hachure;gradientDirection=east;sketch=1;curveFitting=1;jiggle=1;align=left;verticalAlign=top;fontFamily=Kalam;fontSource=https%3A%2F%2Ffonts.googleapis.com%2Fcss%3Ffamily%3DKalam;movable=1;resizable=1;rotatable=1;deletable=1;editable=1;connectable=1;backgroundOutline=0;fixDash=0;metaEdit=0;fontSize=16;spacing=6;spacingTop=6;comic=0;snapToPoint=0;hachureGap=2;container=0;collapsible=0;dropTarget=0;perimeter=centerPerimeter;portConstraint=west;portConstraintRotation=1;fillWeight=-1;hachureAngle=-41;simplification=0;fontStyle=0;strokeWidth=0.25;spacingRight=0;" parent="kkHppF8huGldMjRwOPR1-213" vertex="1">
            <mxGeometry x="10" y="550" width="660" height="260" as="geometry" />
          </mxCell>
        </UserObject>
        <UserObject label="Layer 2&lt;br style=&quot;font-size: 16px;&quot;&gt;Data link" tags="L2" id="kkHppF8huGldMjRwOPR1-220">
          <mxCell style="rounded=1;whiteSpace=wrap;html=1;shadow=0;swimlaneLine=1;fillColor=#fd7e14;fontColor=#000000;strokeColor=none;glass=0;fillStyle=hachure;gradientDirection=east;sketch=1;curveFitting=1;jiggle=1;align=left;verticalAlign=top;fontFamily=Kalam;fontSource=https%3A%2F%2Ffonts.googleapis.com%2Fcss%3Ffamily%3DKalam;movable=1;resizable=1;rotatable=1;deletable=1;editable=1;connectable=1;backgroundOutline=0;fixDash=0;metaEdit=0;fontSize=16;spacing=6;spacingTop=6;comic=0;snapToPoint=0;hachureGap=2;dropTarget=1;container=1;collapsible=0;fillWeight=-1;hachureAngle=-41;simplification=0;fontStyle=0;strokeWidth=0.25;spacingRight=0;" parent="kkHppF8huGldMjRwOPR1-213" vertex="1">
            <mxGeometry x="10" y="810" width="660" height="120" as="geometry" />
          </mxCell>
        </UserObject>
        <mxCell id="0DT0_v1nohCV5AMjKD_y-156" value="Types" style="" parent="0" />
        <UserObject label="Kernel" tags="Kernel" id="0DT0_v1nohCV5AMjKD_y-159">
          <mxCell style="rounded=1;whiteSpace=wrap;html=1;shadow=0;swimlaneLine=1;fillColor=#fd7e14;fontColor=#000000;strokeColor=none;glass=0;fillStyle=cross-hatch;gradientDirection=east;sketch=1;curveFitting=1;jiggle=1;align=left;verticalAlign=bottom;fontFamily=Kalam;fontSource=https%3A%2F%2Ffonts.googleapis.com%2Fcss%3Ffamily%3DKalam;movable=1;resizable=1;rotatable=1;deletable=1;editable=1;locked=0;connectable=1;backgroundOutline=0;fixDash=0;metaEdit=0;fontSize=16;spacing=6;spacingTop=6;hachureGap=-1;hachureAngle=-41;fillWeight=-1;fontStyle=0;strokeWidth=0.25;" parent="0DT0_v1nohCV5AMjKD_y-156" vertex="1">
            <mxGeometry x="340" y="475" width="120" height="485" as="geometry" />
          </mxCell>
        </UserObject>
        <UserObject label="Peer-to-Peer" tags="P2P" id="0DT0_v1nohCV5AMjKD_y-157">
          <mxCell style="rounded=1;whiteSpace=wrap;html=1;shadow=0;swimlaneLine=1;fillColor=#12b886;fontColor=#000000;strokeColor=none;glass=0;fillStyle=cross-hatch;gradientDirection=east;sketch=1;curveFitting=1;jiggle=1;align=left;verticalAlign=top;fontFamily=Kalam;fontSource=https%3A%2F%2Ffonts.googleapis.com%2Fcss%3Ffamily%3DKalam;movable=1;resizable=1;rotatable=1;deletable=1;editable=1;locked=0;connectable=1;backgroundOutline=0;fixDash=0;metaEdit=0;fontSize=16;spacing=6;spacingTop=6;hachureGap=2;hachureAngle=-41;fillWeight=-1;fontStyle=0;strokeWidth=0.25;" parent="0DT0_v1nohCV5AMjKD_y-156" vertex="1">
            <mxGeometry x="120" width="140" height="920" as="geometry" />
          </mxCell>
        </UserObject>
        <UserObject label="Client/Server" tags="S/C" id="0DT0_v1nohCV5AMjKD_y-158">
          <mxCell style="rounded=1;whiteSpace=wrap;html=1;shadow=0;swimlaneLine=1;fillColor=#fa5252;fontColor=#000000;strokeColor=none;glass=0;fillStyle=cross-hatch;gradientDirection=east;sketch=1;curveFitting=1;jiggle=1;align=left;verticalAlign=top;fontFamily=Kalam;fontSource=https%3A%2F%2Ffonts.googleapis.com%2Fcss%3Ffamily%3DKalam;movable=1;resizable=1;rotatable=1;deletable=1;editable=1;locked=0;connectable=1;backgroundOutline=0;fixDash=0;metaEdit=0;fontSize=16;spacing=6;spacingTop=6;hachureGap=2;hachureAngle=-41;fillWeight=-1;fontStyle=0;strokeWidth=0.25;" parent="0DT0_v1nohCV5AMjKD_y-156" vertex="1">
            <mxGeometry x="530" width="120" height="920" as="geometry" />
          </mxCell>
        </UserObject>
        <mxCell id="Qks2v-0PU1l6P2YZWFu--95" value="Protocols" parent="0" />
        <UserObject label="Noise" tags="L6" id="69">
          <mxCell style="rounded=1;whiteSpace=wrap;html=1;fillColor=#647687;fontColor=#ffffff;strokeColor=#314354;fontFamily=Kalam;movable=1;resizable=1;rotatable=1;deletable=1;editable=1;connectable=1;backgroundOutline=0;container=0;fixDash=0;metaEdit=0;fontSize=16;fontSource=https%3A%2F%2Ffonts.googleapis.com%2Fcss%3Ffamily%3DKalam;shadow=1;" parent="Qks2v-0PU1l6P2YZWFu--95" vertex="1">
            <mxGeometry x="310" y="360" width="60" height="20" as="geometry" />
          </mxCell>
        </UserObject>
        <UserObject label="UPnP" tags="L7" id="62">
          <mxCell style="rounded=1;whiteSpace=wrap;html=1;fillColor=#647687;fontColor=#ffffff;strokeColor=#314354;fontFamily=Kalam;movable=1;resizable=1;rotatable=1;deletable=1;editable=1;connectable=1;backgroundOutline=0;container=0;fixDash=0;metaEdit=0;fontSize=16;fontSource=https%3A%2F%2Ffonts.googleapis.com%2Fcss%3Ffamily%3DKalam;shadow=1;" parent="Qks2v-0PU1l6P2YZWFu--95" vertex="1">
            <mxGeometry x="310" y="280" width="60" height="20" as="geometry" />
          </mxCell>
        </UserObject>
        <UserObject label="STUN" tags="L7" id="61">
          <mxCell style="rounded=1;whiteSpace=wrap;html=1;fillColor=#647687;fontColor=#ffffff;strokeColor=#314354;fontFamily=Kalam;movable=1;resizable=1;rotatable=1;deletable=1;editable=1;connectable=1;backgroundOutline=0;container=0;fixDash=0;metaEdit=0;fontSize=16;fontSource=https%3A%2F%2Ffonts.googleapis.com%2Fcss%3Ffamily%3DKalam;shadow=1;" parent="Qks2v-0PU1l6P2YZWFu--95" vertex="1">
            <mxGeometry x="310" y="240" width="60" height="20" as="geometry" />
          </mxCell>
        </UserObject>
        <UserObject label="TURN" tags="L7" id="60">
          <mxCell style="rounded=1;whiteSpace=wrap;html=1;fillColor=#647687;fontColor=#ffffff;strokeColor=#314354;fontFamily=Kalam;movable=1;resizable=1;rotatable=1;deletable=1;editable=1;connectable=1;backgroundOutline=0;container=0;fixDash=0;metaEdit=0;fontSize=16;portConstraint=east;snapToPoint=0;fontSource=https%3A%2F%2Ffonts.googleapis.com%2Fcss%3Ffamily%3DKalam;shadow=1;" parent="Qks2v-0PU1l6P2YZWFu--95" vertex="1">
            <mxGeometry x="310" y="200" width="60" height="20" as="geometry" />
          </mxCell>
        </UserObject>
        <mxCell id="4wTf7BR3b66dO-QI67y8-91" style="edgeStyle=none;rounded=0;orthogonalLoop=1;jettySize=auto;html=1;exitDx=0;exitDy=0;entryX=0.854;entryY=0.349;entryDx=0;entryDy=0;entryPerimeter=0;fontSize=16;startSize=1;endSize=1;fontFamily=Kalam;fillColor=none;strokeWidth=2;spacingTop=8;shadow=1;gradientColor=none;dashed=1;hachureGap=4;endArrow=none;dashPattern=1 1;endFill=0;startFill=1;arcSize=0;fontSource=https%3A%2F%2Ffonts.googleapis.com%2Fcss%3Ffamily%3DKalam;" parent="Qks2v-0PU1l6P2YZWFu--95" source="4wTf7BR3b66dO-QI67y8-191" edge="1">
          <mxGeometry relative="1" as="geometry">
            <mxPoint x="280.65100000000007" y="810.3600000000001" as="targetPoint" />
          </mxGeometry>
        </mxCell>
        <mxCell id="4wTf7BR3b66dO-QI67y8-193" style="edgeStyle=elbowEdgeStyle;shape=connector;rounded=0;hachureGap=4;orthogonalLoop=1;jettySize=auto;elbow=vertical;html=1;shadow=1;dashed=1;dashPattern=1 1;labelBackgroundColor=default;strokeColor=default;strokeWidth=2;fontFamily=Kalam;fontSource=https%3A%2F%2Ffonts.googleapis.com%2Fcss%3Ffamily%3DKalam;fontSize=16;fontColor=default;startFill=1;endArrow=ERmany;endFill=0;startSize=3;endSize=3;fillColor=none;gradientColor=none;" parent="Qks2v-0PU1l6P2YZWFu--95" source="4wTf7BR3b66dO-QI67y8-191" target="4wTf7BR3b66dO-QI67y8-191" edge="1">
          <mxGeometry relative="1" as="geometry" />
        </mxCell>
        <UserObject label="TAP driver" tags="L2 Kernel" id="51">
          <mxCell style="rounded=1;whiteSpace=wrap;html=1;fillColor=#647687;fontFamily=Kalam;fontSource=https%3A%2F%2Ffonts.googleapis.com%2Fcss%3Ffamily%3DKalam;strokeColor=#314354;fontColor=#ffffff;movable=1;resizable=1;rotatable=1;deletable=1;editable=1;connectable=1;backgroundOutline=0;container=0;fixDash=0;metaEdit=0;fontSize=16;shadow=1;" parent="Qks2v-0PU1l6P2YZWFu--95" vertex="1">
            <mxGeometry x="350" y="820" width="100" height="20" as="geometry" />
          </mxCell>
        </UserObject>
        <UserObject label="TUN driver" tags="Kernel L3" id="50">
          <mxCell style="rounded=1;whiteSpace=wrap;html=1;fillColor=#647687;fontFamily=Kalam;fontSource=https%3A%2F%2Ffonts.googleapis.com%2Fcss%3Ffamily%3DKalam;strokeColor=#314354;fontColor=#ffffff;movable=1;resizable=1;rotatable=1;deletable=1;editable=1;connectable=1;backgroundOutline=0;container=0;fixDash=0;metaEdit=0;fontSize=16;shadow=1;" parent="Qks2v-0PU1l6P2YZWFu--95" vertex="1">
            <mxGeometry x="350" y="780" width="100" height="20" as="geometry" />
          </mxCell>
        </UserObject>
        <mxCell id="Qks2v-0PU1l6P2YZWFu--94" value="TCP/IP" parent="0" />
        <UserObject label="IPSec" tags="Kernel L3" id="49">
          <mxCell style="rounded=1;whiteSpace=wrap;html=1;fillColor=#e3c800;fontFamily=Kalam;fontSource=https%3A%2F%2Ffonts.googleapis.com%2Fcss%3Ffamily%3DKalam;strokeColor=#B09500;fontColor=#000000;movable=1;resizable=1;rotatable=1;deletable=1;editable=1;connectable=1;backgroundOutline=0;container=0;fixDash=0;metaEdit=0;fontSize=16;shadow=1;" parent="Qks2v-0PU1l6P2YZWFu--94" vertex="1">
            <mxGeometry x="420" y="650" width="70" height="30" as="geometry" />
          </mxCell>
        </UserObject>
        <UserObject label="IP" tags="L3 Kernel" id="45">
          <mxCell style="rounded=1;whiteSpace=wrap;html=1;fillColor=#e3c800;fontFamily=Kalam;fontSource=https%3A%2F%2Ffonts.googleapis.com%2Fcss%3Ffamily%3DKalam;strokeColor=#B09500;fontColor=#000000;movable=1;resizable=1;rotatable=1;deletable=1;editable=1;connectable=1;backgroundOutline=0;container=0;fixDash=0;metaEdit=0;fontSize=16;shadow=1;" parent="Qks2v-0PU1l6P2YZWFu--94" vertex="1">
            <mxGeometry x="410" y="580" width="40" height="20" as="geometry" />
          </mxCell>
        </UserObject>
        <UserObject label="TCP" tags="L4 Kernel" id="44">
          <mxCell style="rounded=1;whiteSpace=wrap;html=1;fillColor=#e3c800;fontFamily=Kalam;fontSource=https%3A%2F%2Ffonts.googleapis.com%2Fcss%3Ffamily%3DKalam;strokeColor=#B09500;fontColor=#000000;movable=1;resizable=1;rotatable=1;deletable=1;editable=1;connectable=1;backgroundOutline=0;container=0;fixDash=0;metaEdit=0;fontSize=16;shadow=1;" parent="Qks2v-0PU1l6P2YZWFu--94" vertex="1">
            <mxGeometry x="410" y="510" width="40" height="20" as="geometry" />
          </mxCell>
        </UserObject>
        <UserObject label="NAT" tags="L4 L3" id="70">
          <mxCell style="rounded=1;whiteSpace=wrap;html=1;fillColor=#e3c800;fontFamily=Kalam;fontSource=https%3A%2F%2Ffonts.googleapis.com%2Fcss%3Ffamily%3DKalam;strokeColor=#B09500;fontColor=#000000;arcSize=19;movable=1;resizable=1;rotatable=1;deletable=1;editable=1;connectable=1;backgroundOutline=0;container=0;fixDash=0;metaEdit=0;fontSize=16;shadow=1;" parent="Qks2v-0PU1l6P2YZWFu--94" vertex="1">
            <mxGeometry x="470" y="540" width="50" height="30" as="geometry" />
          </mxCell>
        </UserObject>
        <UserObject label="UDP" tags="L4 Kernel" id="43">
          <mxCell style="rounded=1;whiteSpace=wrap;html=1;fillColor=#e3c800;fontFamily=Kalam;fontSource=https%3A%2F%2Ffonts.googleapis.com%2Fcss%3Ffamily%3DKalam;strokeColor=#B09500;fontColor=#000000;movable=1;resizable=1;rotatable=1;deletable=1;editable=1;connectable=1;backgroundOutline=0;container=0;fixDash=0;metaEdit=0;fontSize=16;shadow=1;" parent="Qks2v-0PU1l6P2YZWFu--94" vertex="1">
            <mxGeometry x="350" y="510" width="40" height="20" as="geometry" />
          </mxCell>
        </UserObject>
        <UserObject label="HTTP" tags="L7" id="65">
          <mxCell style="rounded=1;whiteSpace=wrap;html=1;fillColor=#e3c800;fontFamily=Kalam;fontSource=https%3A%2F%2Ffonts.googleapis.com%2Fcss%3Ffamily%3DKalam;strokeColor=#B09500;fontColor=#000000;movable=1;resizable=1;rotatable=1;deletable=1;editable=1;connectable=1;backgroundOutline=0;container=0;fixDash=0;metaEdit=0;fontSize=16;shadow=1;verticalAlign=middle;align=center;" parent="Qks2v-0PU1l6P2YZWFu--94" vertex="1">
            <mxGeometry x="460" y="260" width="60" height="20" as="geometry" />
          </mxCell>
        </UserObject>
        <UserObject label="HTTPS" tags="L7" id="64">
          <mxCell style="rounded=1;whiteSpace=wrap;html=1;fillColor=#e3c800;fontFamily=Kalam;fontSource=https%3A%2F%2Ffonts.googleapis.com%2Fcss%3Ffamily%3DKalam;strokeColor=#B09500;fontColor=#000000;movable=1;resizable=1;rotatable=1;deletable=1;editable=1;connectable=1;backgroundOutline=0;container=0;fixDash=0;metaEdit=0;fontSize=16;shadow=1;" parent="Qks2v-0PU1l6P2YZWFu--94" vertex="1">
            <mxGeometry x="460" y="160" width="60" height="20" as="geometry" />
          </mxCell>
        </UserObject>
        <UserObject label="DNS" tags="L7" id="63">
          <mxCell style="rounded=1;whiteSpace=wrap;html=1;fillColor=#e3c800;fontFamily=Kalam;fontSource=https%3A%2F%2Ffonts.googleapis.com%2Fcss%3Ffamily%3DKalam;strokeColor=#B09500;fontColor=#000000;movable=1;resizable=1;rotatable=1;deletable=1;editable=1;connectable=1;backgroundOutline=0;container=0;fixDash=0;metaEdit=0;fontSize=16;shadow=1;" parent="Qks2v-0PU1l6P2YZWFu--94" vertex="1">
            <mxGeometry x="460" y="60" width="60" height="20" as="geometry" />
          </mxCell>
        </UserObject>
        <UserObject label="TLS" tags="L6" id="68">
          <mxCell style="rounded=1;whiteSpace=wrap;html=1;fillColor=#e3c800;fontFamily=Kalam;fontSource=https%3A%2F%2Ffonts.googleapis.com%2Fcss%3Ffamily%3DKalam;strokeColor=#B09500;fontColor=#000000;movable=1;resizable=1;rotatable=1;deletable=1;editable=1;connectable=1;backgroundOutline=0;container=0;fixDash=0;metaEdit=0;fontSize=16;shadow=1;" parent="Qks2v-0PU1l6P2YZWFu--94" vertex="1">
            <mxGeometry x="310" y="325" width="60" height="20" as="geometry" />
          </mxCell>
        </UserObject>
        <UserObject label="Sockets" tags="L6" id="P8y_Ckll9Wc9_24YeqWu-119">
          <mxCell style="rounded=1;whiteSpace=wrap;html=1;fillColor=#e3c800;fontFamily=Kalam;fontSource=https%3A%2F%2Ffonts.googleapis.com%2Fcss%3Ffamily%3DKalam;strokeColor=#B09500;fontColor=#000000;movable=1;resizable=1;rotatable=1;deletable=1;editable=1;connectable=1;backgroundOutline=0;container=0;fixDash=0;metaEdit=0;fontSize=16;shadow=1;" parent="Qks2v-0PU1l6P2YZWFu--94" vertex="1">
            <mxGeometry x="310" y="420" width="60" height="20" as="geometry" />
          </mxCell>
        </UserObject>
        <mxCell id="1" value="Overlays" style="" parent="0" />
        <UserObject label="NetBird" tags="L3 P2P" id="42">
          <mxCell style="rounded=1;whiteSpace=wrap;html=1;fontFamily=Kalam;fontSource=https%3A%2F%2Ffonts.googleapis.com%2Fcss%3Ffamily%3DKalam;movable=1;resizable=1;rotatable=1;deletable=1;editable=1;connectable=1;backgroundOutline=0;container=0;fixDash=0;metaEdit=0;fontSize=16;expand=1;collapsible=0;dropTarget=1;fillColor=#b1ddf0;strokeColor=#10739e;shadow=1;" parent="1" vertex="1">
            <mxGeometry x="140" y="580" width="100" height="20" as="geometry" />
          </mxCell>
        </UserObject>
        <UserObject label="Tailscale" tags="L3 P2P" id="41">
          <mxCell style="rounded=1;whiteSpace=wrap;html=1;fontFamily=Kalam;fontSource=https%3A%2F%2Ffonts.googleapis.com%2Fcss%3Ffamily%3DKalam;movable=1;resizable=1;rotatable=1;deletable=1;editable=1;connectable=1;backgroundOutline=0;container=0;fixDash=0;metaEdit=0;fontSize=16;locked=0;fillColor=#b1ddf0;strokeColor=#10739e;shadow=1;" parent="1" vertex="1">
            <mxGeometry x="140" y="630" width="100" height="20" as="geometry" />
          </mxCell>
        </UserObject>
        <UserObject label="Nebula" tags="L3 P2P" id="40">
          <mxCell style="rounded=1;whiteSpace=wrap;html=1;fontFamily=Kalam;fontSource=https%3A%2F%2Ffonts.googleapis.com%2Fcss%3Ffamily%3DKalam;movable=1;resizable=1;rotatable=1;deletable=1;editable=1;connectable=1;backgroundOutline=0;container=0;fixDash=0;metaEdit=0;fontSize=16;fillColor=#b1ddf0;strokeColor=#10739e;shadow=1;" parent="1" vertex="1">
            <mxGeometry x="140" y="680" width="100" height="20" as="geometry" />
          </mxCell>
        </UserObject>
        <UserObject label="Tinc" tags="L2 P2P L3" id="31">
          <mxCell style="rounded=1;whiteSpace=wrap;html=1;fontFamily=Kalam;fontSource=https%3A%2F%2Ffonts.googleapis.com%2Fcss%3Ffamily%3DKalam;movable=1;resizable=1;rotatable=1;deletable=1;editable=1;connectable=1;backgroundOutline=0;container=0;fixDash=0;metaEdit=0;fontSize=16;expand=1;imageAspect=1;snapToPoint=1;fillColor=#b1ddf0;strokeColor=#10739e;shadow=1;" parent="1" vertex="1">
            <mxGeometry x="140" y="780" width="100" height="40" as="geometry" />
          </mxCell>
        </UserObject>
        <object label="OpenVPN" tags="S/C L1 L2" id="36">
          <mxCell style="rounded=1;whiteSpace=wrap;html=1;fontFamily=Kalam;fontSource=https%3A%2F%2Ffonts.googleapis.com%2Fcss%3Ffamily%3DKalam;movable=1;resizable=1;rotatable=1;deletable=1;editable=1;connectable=1;backgroundOutline=0;container=0;fixDash=0;metaEdit=0;fontSize=16;fillColor=#b1ddf0;strokeColor=#10739e;shadow=1;" parent="1" vertex="1">
            <mxGeometry x="540" y="780" width="100" height="40" as="geometry" />
          </mxCell>
        </object>
        <UserObject label="WebRTC" tags="L7 P2P" id="59">
          <mxCell style="rounded=1;whiteSpace=wrap;html=1;fontFamily=Kalam;fontSource=https%3A%2F%2Ffonts.googleapis.com%2Fcss%3Ffamily%3DKalam;movable=1;resizable=1;rotatable=1;deletable=1;editable=1;connectable=1;backgroundOutline=0;container=0;fixDash=0;metaEdit=0;fontSize=16;fillColor=#b1ddf0;strokeColor=#10739e;shadow=1;" parent="1" vertex="1">
            <mxGeometry x="140" y="240" width="100" height="20" as="geometry" />
          </mxCell>
        </UserObject>
        <UserObject label="TOR" tags="L7 P2P" id="57">
          <mxCell style="rounded=1;whiteSpace=wrap;html=1;fontFamily=Kalam;fontSource=https%3A%2F%2Ffonts.googleapis.com%2Fcss%3Ffamily%3DKalam;movable=1;resizable=1;rotatable=1;deletable=1;editable=1;connectable=1;backgroundOutline=0;container=0;fixDash=0;metaEdit=0;fontSize=16;fillColor=#b1ddf0;strokeColor=#10739e;shadow=1;" parent="1" vertex="1">
            <mxGeometry x="140" y="210" width="100" height="20" as="geometry" />
          </mxCell>
        </UserObject>
        <UserObject label="Ethereum" tags="L7 P2P" id="56">
          <mxCell style="rounded=1;whiteSpace=wrap;html=1;fontFamily=Kalam;fontSource=https%3A%2F%2Ffonts.googleapis.com%2Fcss%3Ffamily%3DKalam;movable=1;resizable=1;rotatable=1;deletable=1;editable=1;connectable=1;backgroundOutline=0;container=0;fixDash=0;metaEdit=0;fontSize=16;fillColor=#b1ddf0;strokeColor=#10739e;shadow=1;" parent="1" vertex="1">
            <mxGeometry x="140" y="180" width="100" height="20" as="geometry" />
          </mxCell>
        </UserObject>
        <UserObject label="IPFS" tags="L7 P2P" id="55">
          <mxCell style="rounded=1;whiteSpace=wrap;html=1;fontFamily=Kalam;fontSource=https%3A%2F%2Ffonts.googleapis.com%2Fcss%3Ffamily%3DKalam;movable=1;resizable=1;rotatable=1;deletable=1;editable=1;connectable=1;backgroundOutline=0;container=0;fixDash=0;metaEdit=0;fontSize=16;fillColor=#b1ddf0;strokeColor=#10739e;shadow=1;" parent="1" vertex="1">
            <mxGeometry x="140" y="150" width="100" height="20" as="geometry" />
          </mxCell>
        </UserObject>
        <UserObject label="BitTorrent" tags="L7 P2P" id="54">
          <mxCell style="rounded=1;whiteSpace=wrap;html=1;fontFamily=Kalam;fontSource=https%3A%2F%2Ffonts.googleapis.com%2Fcss%3Ffamily%3DKalam;movable=1;resizable=1;rotatable=1;deletable=1;editable=1;connectable=1;backgroundOutline=0;container=0;fixDash=0;metaEdit=0;fontSize=16;fillColor=#b1ddf0;strokeColor=#10739e;shadow=1;" parent="1" vertex="1">
            <mxGeometry x="140" y="120" width="100" height="20" as="geometry" />
          </mxCell>
        </UserObject>
        <UserObject label="OpenZiti" tags="L7 P2P" id="53">
          <mxCell style="rounded=1;whiteSpace=wrap;html=1;fontFamily=Kalam;fontSource=https%3A%2F%2Ffonts.googleapis.com%2Fcss%3Ffamily%3DKalam;movable=1;resizable=1;rotatable=1;deletable=1;editable=1;connectable=1;backgroundOutline=0;container=0;fixDash=0;metaEdit=0;fontSize=16;fillColor=#b1ddf0;strokeColor=#10739e;shadow=1;" parent="1" vertex="1">
            <mxGeometry x="140" y="90" width="100" height="20" as="geometry" />
          </mxCell>
        </UserObject>
        <UserObject label="FreeNet" tags="L7 P2P" id="52">
          <mxCell style="rounded=1;whiteSpace=wrap;html=1;fontFamily=Kalam;fontSource=https%3A%2F%2Ffonts.googleapis.com%2Fcss%3Ffamily%3DKalam;movable=1;resizable=1;rotatable=1;deletable=1;editable=1;connectable=1;backgroundOutline=0;container=0;fixDash=0;metaEdit=0;fontSize=16;fillColor=#b1ddf0;strokeColor=#10739e;shadow=1;" parent="1" vertex="1">
            <mxGeometry x="140" y="60" width="100" height="20" as="geometry" />
          </mxCell>
        </UserObject>
        <UserObject label="Ngrok" tags="L7 S/C" id="67">
          <mxCell style="rounded=1;whiteSpace=wrap;html=1;fontFamily=Kalam;fontSource=https%3A%2F%2Ffonts.googleapis.com%2Fcss%3Ffamily%3DKalam;movable=1;resizable=1;rotatable=1;deletable=1;editable=1;connectable=1;backgroundOutline=0;container=0;fixDash=0;metaEdit=0;fontSize=16;fillColor=#b1ddf0;strokeColor=#10739e;shadow=1;" parent="1" vertex="1">
            <mxGeometry x="560" y="160" width="50" height="20" as="geometry" />
          </mxCell>
        </UserObject>
        <object label="WireGuard" tags="Kernel L3" id="38">
          <mxCell style="rounded=1;whiteSpace=wrap;fontFamily=Kalam;fontSource=https%3A%2F%2Ffonts.googleapis.com%2Fcss%3Ffamily%3DKalam;movable=1;resizable=1;rotatable=1;deletable=1;editable=1;connectable=1;backgroundOutline=0;container=0;fixDash=0;metaEdit=0;fontSize=16;portConstraintRotation=0;dropTarget=0;autosize=1;glass=0;labelBorderColor=none;labelBackgroundColor=none;html=1;fillColor=#b1ddf0;strokeColor=#10739e;shadow=1;" parent="1" vertex="1">
            <mxGeometry x="310" y="650" width="90" height="30" as="geometry" />
          </mxCell>
        </object>
        <UserObject label="N2N" tags="L2 P2P" id="33">
          <mxCell style="rounded=1;whiteSpace=wrap;html=1;fontFamily=Kalam;fontSource=https%3A%2F%2Ffonts.googleapis.com%2Fcss%3Ffamily%3DKalam;movable=1;resizable=1;rotatable=1;deletable=1;editable=1;connectable=1;backgroundOutline=0;container=0;fixDash=0;metaEdit=0;fontSize=16;fillColor=#b1ddf0;strokeColor=#10739e;shadow=1;" parent="1" vertex="1">
            <mxGeometry x="140" y="860" width="100" height="20" as="geometry" />
          </mxCell>
        </UserObject>
        <UserObject label="Legend" tags="L1" id="iYI6GJ1PMuZUEqJv4Poh-88">
          <mxCell style="rounded=0;whiteSpace=wrap;html=1;shadow=0;swimlaneLine=1;glass=0;fillStyle=hachure;gradientDirection=east;sketch=1;curveFitting=1;jiggle=1;align=left;verticalAlign=top;fontFamily=Kalam;fontSource=https%3A%2F%2Ffonts.googleapis.com%2Fcss%3Ffamily%3DKalam;movable=1;resizable=1;rotatable=1;deletable=1;editable=1;connectable=1;backgroundOutline=0;fixDash=0;metaEdit=0;locked=0;fontSize=16;spacing=6;spacingTop=6;comic=0;snapToPoint=0;hachureGap=2;container=1;collapsible=0;fillWeight=-1;hachureAngle=45;simplification=0;fontStyle=0;strokeWidth=0.25;spacingRight=0;recursiveResize=0;" parent="1" vertex="1">
            <mxGeometry x="10" y="930" width="290" height="160" as="geometry" />
          </mxCell>
        </UserObject>
        <UserObject label="&lt;span style=&quot;white-space: pre;&quot;&gt; &lt;/span&gt;" tags="Kernel L1" id="iYI6GJ1PMuZUEqJv4Poh-89">
          <mxCell style="rounded=1;whiteSpace=wrap;html=1;fillColor=#647687;fontFamily=Kalam;fontSource=https%3A%2F%2Ffonts.googleapis.com%2Fcss%3Ffamily%3DKalam;strokeColor=#314354;fontColor=#ffffff;movable=1;resizable=1;rotatable=1;deletable=1;editable=1;connectable=1;backgroundOutline=0;container=0;fixDash=0;metaEdit=0;fontSize=16;shadow=1;" parent="iYI6GJ1PMuZUEqJv4Poh-88" vertex="1">
            <mxGeometry x="20" y="121" width="40" height="20" as="geometry" />
          </mxCell>
        </UserObject>
        <UserObject label="" tags="Kernel L2" id="iYI6GJ1PMuZUEqJv4Poh-90">
          <mxCell style="rounded=1;whiteSpace=wrap;html=1;fillColor=#e3c800;fontFamily=Kalam;fontSource=https%3A%2F%2Ffonts.googleapis.com%2Fcss%3Ffamily%3DKalam;strokeColor=#B09500;fontColor=#000000;movable=1;resizable=1;rotatable=1;deletable=1;editable=1;connectable=1;backgroundOutline=0;container=0;fixDash=0;metaEdit=0;fontSize=16;shadow=1;" parent="iYI6GJ1PMuZUEqJv4Poh-88" vertex="1">
            <mxGeometry x="20" y="80" width="40" height="20" as="geometry" />
          </mxCell>
        </UserObject>
        <mxCell id="iYI6GJ1PMuZUEqJv4Poh-91" value="Core protocols of the Internet Protocol Suite (TCP/IP)" style="text;strokeColor=none;fillColor=none;html=1;align=left;verticalAlign=top;whiteSpace=wrap;rounded=0;fontSize=16;fontFamily=Kalam;fontColor=default;fontSource=https%3A%2F%2Ffonts.googleapis.com%2Fcss%3Ffamily%3DKalam;" parent="iYI6GJ1PMuZUEqJv4Poh-88" vertex="1">
          <mxGeometry x="80" y="70" width="240" height="50" as="geometry" />
        </mxCell>
        <mxCell id="iYI6GJ1PMuZUEqJv4Poh-92" value="Other protocols and concepts" style="text;strokeColor=none;fillColor=none;html=1;align=left;verticalAlign=top;whiteSpace=wrap;rounded=0;fontSize=16;fontFamily=Kalam;fontColor=default;fontSource=https%3A%2F%2Ffonts.googleapis.com%2Fcss%3Ffamily%3DKalam;" parent="iYI6GJ1PMuZUEqJv4Poh-88" vertex="1">
          <mxGeometry x="80" y="120" width="240" height="50" as="geometry" />
        </mxCell>
        <UserObject label="&amp;nbsp;" tags="L2 P2P" id="iYI6GJ1PMuZUEqJv4Poh-93">
          <mxCell style="rounded=1;whiteSpace=wrap;html=1;fontFamily=Kalam;fontSource=https%3A%2F%2Ffonts.googleapis.com%2Fcss%3Ffamily%3DKalam;movable=1;resizable=1;rotatable=1;deletable=1;editable=1;connectable=1;backgroundOutline=0;container=0;fixDash=0;metaEdit=0;fontSize=16;fillColor=#b1ddf0;strokeColor=#10739e;shadow=1;" parent="iYI6GJ1PMuZUEqJv4Poh-88" vertex="1">
            <mxGeometry x="20" y="40" width="40" height="20" as="geometry" />
          </mxCell>
        </UserObject>
        <mxCell id="iYI6GJ1PMuZUEqJv4Poh-94" value="Network overlay solutions" style="text;strokeColor=none;fillColor=none;html=1;align=left;verticalAlign=top;whiteSpace=wrap;rounded=0;fontSize=16;fontFamily=Kalam;fontColor=default;fontSource=https%3A%2F%2Ffonts.googleapis.com%2Fcss%3Ffamily%3DKalam;" parent="iYI6GJ1PMuZUEqJv4Poh-88" vertex="1">
          <mxGeometry x="80" y="32.5" width="240" height="35" as="geometry" />
        </mxCell>
        <mxCell id="DS98aRN0TnLWlFkB1ja4-89" style="edgeStyle=elbowEdgeStyle;shape=connector;rounded=0;hachureGap=4;orthogonalLoop=1;jettySize=auto;elbow=vertical;html=1;exitX=1;exitY=0.75;exitDx=0;exitDy=0;shadow=0;dashed=1;dashPattern=1 1;labelBackgroundColor=default;strokeColor=default;strokeWidth=2;fontFamily=Kalam;fontSource=https%3A%2F%2Ffonts.googleapis.com%2Fcss%3Ffamily%3DKalam;fontSize=16;fontColor=default;startFill=1;endArrow=none;endFill=0;startSize=3;endSize=3;fillColor=none;gradientColor=none;" parent="1" source="68" target="4wTf7BR3b66dO-QI67y8-121" edge="1">
          <mxGeometry relative="1" as="geometry" />
        </mxCell>
        <object label="StrongSwan" tags="Kernel L3" id="DS98aRN0TnLWlFkB1ja4-93">
          <mxCell style="rounded=1;whiteSpace=wrap;fontFamily=Kalam;fontSource=https%3A%2F%2Ffonts.googleapis.com%2Fcss%3Ffamily%3DKalam;movable=1;resizable=1;rotatable=1;deletable=1;editable=1;connectable=1;backgroundOutline=0;container=0;fixDash=0;metaEdit=0;fontSize=16;portConstraintRotation=0;dropTarget=0;autosize=1;glass=0;labelBorderColor=none;labelBackgroundColor=none;html=1;fillColor=#b1ddf0;strokeColor=#10739e;shadow=1;" parent="1" vertex="1">
            <mxGeometry x="540" y="630" width="100" height="20" as="geometry" />
          </mxCell>
        </object>
        <UserObject label="" tags="Wires" id="DS98aRN0TnLWlFkB1ja4-94">
          <mxCell style="orthogonalLoop=0;jettySize=auto;html=1;fontSize=12;disableMultiStroke=0;flowAnimation=0;simplification=1;endArrow=classic;endFill=1;endSize=3;strokeWidth=2;shadow=0;startFill=1;arcSize=111;fillOpacity=100;strokeOpacity=80;curved=1;labelBorderColor=none;strokeColor=#000000;backgroundOutline=0;fixDash=0;snapToPoint=0;sketch=1;curveFitting=1;jiggle=2;entryX=0.75;entryY=0;entryDx=0;entryDy=0;" parent="1" source="DS98aRN0TnLWlFkB1ja4-93" target="49" edge="1">
            <mxGeometry relative="1" as="geometry">
              <mxPoint x="560" y="621" as="sourcePoint" />
              <mxPoint x="660" y="630" as="targetPoint" />
              <Array as="points">
                <mxPoint x="530" y="580" />
              </Array>
            </mxGeometry>
          </mxCell>
        </UserObject>
        <object label="Edges" id="4wTf7BR3b66dO-QI67y8-207">
          <mxCell style="" parent="0" />
        </object>
        <mxCell id="4wTf7BR3b66dO-QI67y8-125" value="" style="edgeStyle=elbowEdgeStyle;rounded=0;orthogonalLoop=0;jettySize=auto;html=1;exitX=0.493;exitY=0.506;exitDx=0;exitDy=0;exitPerimeter=0;fontSize=16;startSize=3;endSize=8;endArrow=none;fontFamily=Architects Daughter;hachureGap=4;dashed=1;dashPattern=1 1;fontSource=https%3A%2F%2Ffonts.googleapis.com%2Fcss%3Ffamily%3DArchitects%2BDaughter;endFill=0;strokeWidth=2;startFill=0;arcSize=0;elbow=vertical;orthogonal=1;startArrow=ERmany;" parent="4wTf7BR3b66dO-QI67y8-207" source="4wTf7BR3b66dO-QI67y8-123" target="4wTf7BR3b66dO-QI67y8-121" edge="1">
          <mxGeometry relative="1" as="geometry">
            <mxPoint x="420" y="270" as="sourcePoint" />
            <mxPoint x="420" y="510" as="targetPoint" />
            <Array as="points" />
          </mxGeometry>
        </mxCell>
        <mxCell id="P8y_Ckll9Wc9_24YeqWu-92" value="" style="edgeStyle=orthogonalEdgeStyle;orthogonalLoop=0;jettySize=0;html=1;hachureGap=4;fontFamily=Architects Daughter;fontSource=https%3A%2F%2Ffonts.googleapis.com%2Fcss%3Ffamily%3DArchitects%2BDaughter;fontSize=16;orthogonal=1;endArrow=none;endFill=0;targetPortConstraint=none;snapToPoint=0;arcSize=0;fixDash=0;backgroundOutline=0;ignoreEdge=0;flowAnimation=0;fillOpacity=100;sourcePortConstraint=none;anchorPointDirection=0;startFill=0;perimeterSpacing=0;strokeColor=default;rounded=0;bendable=1;strokeWidth=2;" parent="4wTf7BR3b66dO-QI67y8-207" source="4wTf7BR3b66dO-QI67y8-184" target="33" edge="1">
          <mxGeometry width="120" relative="1" as="geometry">
            <mxPoint x="9.996999999999957" y="869.9999999999998" as="sourcePoint" />
            <mxPoint x="150" y="875" as="targetPoint" />
            <Array as="points">
              <mxPoint x="10" y="870" />
            </Array>
          </mxGeometry>
        </mxCell>
        <mxCell id="P8y_Ckll9Wc9_24YeqWu-118" style="edgeStyle=elbowEdgeStyle;rounded=0;hachureGap=4;orthogonalLoop=1;jettySize=auto;html=1;fontFamily=Architects Daughter;fontSource=https%3A%2F%2Ffonts.googleapis.com%2Fcss%3Ffamily%3DArchitects%2BDaughter;fontSize=16;startSize=3;endSize=3;elbow=vertical;endArrow=none;endFill=0;arcSize=0;startFill=0;startArrow=ERmany;strokeWidth=2;" parent="4wTf7BR3b66dO-QI67y8-207" source="4wTf7BR3b66dO-QI67y8-220" target="4wTf7BR3b66dO-QI67y8-222" edge="1">
          <mxGeometry relative="1" as="geometry">
            <mxPoint x="230" y="730" as="sourcePoint" />
            <mxPoint x="260.5329999999999" y="721.8999999999999" as="targetPoint" />
          </mxGeometry>
        </mxCell>
        <mxCell id="P8y_Ckll9Wc9_24YeqWu-120" style="edgeStyle=elbowEdgeStyle;rounded=0;hachureGap=4;orthogonalLoop=1;jettySize=auto;html=1;fontFamily=Architects Daughter;fontSource=https%3A%2F%2Ffonts.googleapis.com%2Fcss%3Ffamily%3DArchitects%2BDaughter;fontSize=16;startSize=3;endSize=3;elbow=vertical;endArrow=none;endFill=0;arcSize=0;startFill=0;exitDx=0;exitDy=0;startArrow=ERmany;strokeWidth=2;" parent="4wTf7BR3b66dO-QI67y8-207" source="4wTf7BR3b66dO-QI67y8-218" target="4wTf7BR3b66dO-QI67y8-220" edge="1">
          <mxGeometry relative="1" as="geometry">
            <mxPoint x="230" y="810" as="sourcePoint" />
            <mxPoint x="260.4269999999999" y="790.6499999999999" as="targetPoint" />
          </mxGeometry>
        </mxCell>
        <UserObject label="" tags="Wires" id="P8y_Ckll9Wc9_24YeqWu-133">
          <mxCell style="edgeStyle=elbowEdgeStyle;shape=connector;rounded=0;hachureGap=4;orthogonalLoop=0;jettySize=auto;html=1;dashed=1;labelBackgroundColor=default;strokeColor=default;fontFamily=Architects Daughter;fontSource=https%3A%2F%2Ffonts.googleapis.com%2Fcss%3Ffamily%3DArchitects%2BDaughter;fontSize=16;fontColor=default;endArrow=none;endFill=1;shadow=0;metaEdit=0;comic=0;backgroundOutline=0;fixDash=0;snapToPoint=1;orthogonal=1;ignoreEdge=0;flowAnimation=0;startFill=1;anchorPointDirection=0;arcSize=0;perimeterSpacing=0;elbow=vertical;strokeWidth=2;" parent="4wTf7BR3b66dO-QI67y8-207" source="31" target="4wTf7BR3b66dO-QI67y8-208" edge="1">
            <mxGeometry relative="1" as="geometry">
              <mxPoint x="380" y="850" as="sourcePoint" />
              <mxPoint x="240" y="880" as="targetPoint" />
              <Array as="points">
                <mxPoint x="250" y="840" />
                <mxPoint x="240" y="840" />
                <mxPoint x="240" y="840" />
                <mxPoint x="230" y="840" />
                <mxPoint x="250" y="850" />
                <mxPoint x="250" y="850" />
                <mxPoint x="250" y="850" />
                <mxPoint x="250" y="850" />
                <mxPoint x="240" y="850" />
                <mxPoint x="260" y="860" />
                <mxPoint x="250" y="830" />
                <mxPoint x="390" y="870" />
                <mxPoint x="480" y="870" />
                <mxPoint x="470" y="860" />
              </Array>
            </mxGeometry>
          </mxCell>
        </UserObject>
        <UserObject label="" tags="DOT" id="P8y_Ckll9Wc9_24YeqWu-140">
          <mxCell style="edgeStyle=elbowEdgeStyle;shape=connector;rounded=0;hachureGap=4;orthogonalLoop=0;jettySize=auto;html=1;exitDx=0;exitDy=0;dashed=1;labelBackgroundColor=default;strokeColor=default;fontFamily=Architects Daughter;fontSource=https%3A%2F%2Ffonts.googleapis.com%2Fcss%3Ffamily%3DArchitects%2BDaughter;fontSize=16;fontColor=default;endArrow=classicThin;endFill=1;dashPattern=1 1;strokeWidth=2;metaEdit=0;orthogonal=1;ignoreEdge=0;flowAnimation=0;backgroundOutline=0;fixDash=0;snapToPoint=1;startFill=0;anchorPointDirection=0;arcSize=0;perimeterSpacing=0;elbow=vertical;exitPerimeter=0;startArrow=ERmany;startSize=3;" parent="4wTf7BR3b66dO-QI67y8-207" source="4wTf7BR3b66dO-QI67y8-202" target="43" edge="1">
            <mxGeometry relative="1" as="geometry">
              <mxPoint x="280.5" y="520" as="sourcePoint" />
              <mxPoint x="377" y="599" as="targetPoint" />
            </mxGeometry>
          </mxCell>
        </UserObject>
        <UserObject label="" tags="DOT" id="P8y_Ckll9Wc9_24YeqWu-141">
          <mxCell style="shape=connector;rounded=0;hachureGap=4;orthogonalLoop=0;jettySize=auto;html=1;dashed=1;dashPattern=1 1;labelBackgroundColor=default;strokeColor=default;fontFamily=Architects Daughter;fontSource=https%3A%2F%2Ffonts.googleapis.com%2Fcss%3Ffamily%3DArchitects%2BDaughter;fontSize=16;fontColor=default;endArrow=none;endFill=0;strokeWidth=2;movable=1;resizable=1;rotatable=1;deletable=1;editable=1;connectable=1;backgroundOutline=0;fixDash=0;metaEdit=0;orthogonal=1;ignoreEdge=0;flowAnimation=0;snapToPoint=1;startFill=0;anchorPointDirection=0;arcSize=0;perimeterSpacing=0;endSize=3;edgeStyle=elbowEdgeStyle;exitDx=0;exitDy=0;elbow=vertical;exitPerimeter=0;startSize=3;startArrow=ERmany;" parent="4wTf7BR3b66dO-QI67y8-207" source="4wTf7BR3b66dO-QI67y8-189" target="4wTf7BR3b66dO-QI67y8-191" edge="1">
            <mxGeometry relative="1" as="geometry">
              <mxPoint x="280.4530000000001" y="848.44" as="targetPoint" />
              <mxPoint x="190" y="890" as="sourcePoint" />
            </mxGeometry>
          </mxCell>
        </UserObject>
        <mxCell id="P8y_Ckll9Wc9_24YeqWu-142" style="edgeStyle=elbowEdgeStyle;shape=connector;rounded=0;hachureGap=4;orthogonalLoop=0;jettySize=auto;html=1;dashed=1;labelBackgroundColor=default;strokeColor=default;fontFamily=Architects Daughter;fontSource=https%3A%2F%2Ffonts.googleapis.com%2Fcss%3Ffamily%3DArchitects%2BDaughter;fontSize=16;fontColor=default;endArrow=none;endFill=0;shadow=0;metaEdit=0;comic=0;backgroundOutline=0;fixDash=0;snapToPoint=1;orthogonal=1;ignoreEdge=0;flowAnimation=0;startFill=0;anchorPointDirection=0;arcSize=0;perimeterSpacing=0;elbow=vertical;exitDx=0;exitDy=0;exitPerimeter=0;endSize=3;startArrow=ERmany;startSize=3;strokeWidth=2;" parent="4wTf7BR3b66dO-QI67y8-207" source="4wTf7BR3b66dO-QI67y8-208" target="4wTf7BR3b66dO-QI67y8-210" edge="1">
          <mxGeometry relative="1" as="geometry">
            <mxPoint x="190" y="840" as="sourcePoint" />
            <mxPoint x="247.12999999999988" y="880.3240000000001" as="targetPoint" />
            <Array as="points">
              <mxPoint x="280" y="880" />
            </Array>
          </mxGeometry>
        </mxCell>
        <mxCell id="P8y_Ckll9Wc9_24YeqWu-144" style="rounded=0;hachureGap=4;orthogonalLoop=0;jettySize=auto;html=1;fontFamily=Architects Daughter;fontSource=https%3A%2F%2Ffonts.googleapis.com%2Fcss%3Ffamily%3DArchitects%2BDaughter;fontSize=16;endArrow=classicThin;endFill=1;strokeWidth=2;movable=1;resizable=1;rotatable=1;deletable=1;editable=1;connectable=1;backgroundOutline=0;fixDash=0;metaEdit=0;orthogonal=1;ignoreEdge=0;flowAnimation=0;snapToPoint=1;startFill=1;anchorPointDirection=0;arcSize=0;perimeterSpacing=0;fillColor=none;spacingTop=8;shadow=0;gradientColor=none;comic=0;startArrow=ERmany;startSize=3;dashed=1;noJump=0;endSize=6;edgeStyle=elbowEdgeStyle;" parent="4wTf7BR3b66dO-QI67y8-207" source="4wTf7BR3b66dO-QI67y8-210" target="51" edge="1">
          <mxGeometry relative="1" as="geometry">
            <mxPoint x="160" y="840" as="targetPoint" />
            <mxPoint x="400.27" y="880.5040000000001" as="sourcePoint" />
          </mxGeometry>
        </mxCell>
        <UserObject label="" tags="DOT" id="P8y_Ckll9Wc9_24YeqWu-147">
          <mxCell style="shape=connector;rounded=0;hachureGap=4;orthogonalLoop=0;jettySize=auto;html=1;dashed=1;dashPattern=1 1;labelBackgroundColor=default;strokeColor=default;fontFamily=Architects Daughter;fontSource=https%3A%2F%2Ffonts.googleapis.com%2Fcss%3Ffamily%3DArchitects%2BDaughter;fontSize=16;fontColor=default;endArrow=none;endFill=0;strokeWidth=2;movable=1;resizable=1;rotatable=1;deletable=1;editable=1;connectable=1;backgroundOutline=0;fixDash=0;metaEdit=0;orthogonal=1;ignoreEdge=0;flowAnimation=0;snapToPoint=1;startFill=1;anchorPointDirection=0;arcSize=0;perimeterSpacing=0;endSize=1;edgeStyle=elbowEdgeStyle;elbow=vertical;startSize=1;" parent="4wTf7BR3b66dO-QI67y8-207" source="40" target="4wTf7BR3b66dO-QI67y8-196" edge="1">
            <mxGeometry relative="1" as="geometry">
              <mxPoint x="280.347" y="729.44" as="targetPoint" />
              <Array as="points">
                <mxPoint x="260" y="680" />
                <mxPoint x="270" y="685" />
                <mxPoint x="230" y="700" />
                <mxPoint x="240" y="710" />
                <mxPoint x="250" y="720" />
                <mxPoint x="240" y="730" />
                <mxPoint x="280" y="740" />
                <mxPoint x="280" y="750" />
                <mxPoint x="240" y="740" />
                <mxPoint x="250" y="730" />
                <mxPoint x="260" y="740" />
              </Array>
              <mxPoint x="229" y="872" as="sourcePoint" />
            </mxGeometry>
          </mxCell>
        </UserObject>
        <UserObject label="" tags="DOT" id="P8y_Ckll9Wc9_24YeqWu-153">
          <mxCell style="edgeStyle=none;curved=1;rounded=0;orthogonalLoop=1;jettySize=auto;html=1;fontSize=16;startSize=8;endSize=8;endArrow=classicThin;fontFamily=Architects Daughter;hachureGap=4;dashed=1;dashPattern=1 1;fontSource=https%3A%2F%2Ffonts.googleapis.com%2Fcss%3Ffamily%3DArchitects%2BDaughter;endFill=1;strokeWidth=2;startFill=1;arcSize=0;" parent="4wTf7BR3b66dO-QI67y8-207" source="67" target="64" edge="1">
            <mxGeometry relative="1" as="geometry" />
          </mxCell>
        </UserObject>
        <UserObject label="" tags="DOT" id="P8y_Ckll9Wc9_24YeqWu-154">
          <mxCell style="edgeStyle=none;curved=1;rounded=0;orthogonalLoop=1;jettySize=auto;html=1;fontSize=16;startSize=8;endSize=8;endArrow=classicThin;fontFamily=Architects Daughter;hachureGap=4;dashed=1;dashPattern=1 1;fontSource=https%3A%2F%2Ffonts.googleapis.com%2Fcss%3Ffamily%3DArchitects%2BDaughter;endFill=1;strokeWidth=2;startFill=1;arcSize=0;" parent="4wTf7BR3b66dO-QI67y8-207" source="64" target="65" edge="1">
            <mxGeometry relative="1" as="geometry">
              <mxPoint x="600" y="220" as="sourcePoint" />
              <mxPoint x="499" y="249" as="targetPoint" />
            </mxGeometry>
          </mxCell>
        </UserObject>
        <UserObject label="" tags="DOT" id="P8y_Ckll9Wc9_24YeqWu-157">
          <mxCell style="edgeStyle=elbowEdgeStyle;rounded=0;orthogonalLoop=0;jettySize=auto;html=1;fontSize=16;startSize=3;endSize=8;endArrow=classicThin;fontFamily=Architects Daughter;hachureGap=4;dashed=1;dashPattern=1 1;fontSource=https%3A%2F%2Ffonts.googleapis.com%2Fcss%3Ffamily%3DArchitects%2BDaughter;endFill=1;strokeWidth=2;startFill=0;arcSize=0;entryX=0.5;entryY=0;entryDx=0;entryDy=0;elbow=vertical;orthogonal=1;startArrow=ERmany;" parent="4wTf7BR3b66dO-QI67y8-207" source="4wTf7BR3b66dO-QI67y8-121" target="44" edge="1">
            <mxGeometry relative="1" as="geometry">
              <mxPoint x="420.29999999999995" y="416.9" as="sourcePoint" />
            </mxGeometry>
          </mxCell>
        </UserObject>
        <UserObject label="" tags="Wires" id="P8y_Ckll9Wc9_24YeqWu-165">
          <mxCell style="edgeStyle=orthogonalEdgeStyle;curved=1;rounded=1;orthogonalLoop=0;jettySize=auto;html=1;fontSize=12;sketch=1;curveFitting=-10;jiggle=2;disableMultiStroke=0;flowAnimation=0;simplification=1;endArrow=classic;endFill=1;endSize=4;strokeWidth=2;shadow=0;startFill=1;arcSize=1;fillOpacity=80;strokeOpacity=80;exitX=0;exitY=0.25;exitDx=0;exitDy=0;" parent="4wTf7BR3b66dO-QI67y8-207" source="41" target="62" edge="1">
            <mxGeometry relative="1" as="geometry">
              <mxPoint x="200" y="630" as="sourcePoint" />
              <mxPoint x="200" y="267" as="targetPoint" />
              <Array as="points">
                <mxPoint x="130" y="635" />
                <mxPoint x="130" y="300" />
              </Array>
            </mxGeometry>
          </mxCell>
        </UserObject>
        <UserObject label="" tags="Wires" id="P8y_Ckll9Wc9_24YeqWu-166">
          <mxCell style="edgeStyle=orthogonalEdgeStyle;curved=1;rounded=1;orthogonalLoop=0;jettySize=auto;html=1;fontSize=12;sketch=1;curveFitting=-10;jiggle=2;disableMultiStroke=0;flowAnimation=0;simplification=1;endArrow=classic;endFill=1;endSize=3;strokeWidth=2;shadow=0;startFill=1;arcSize=1;fillOpacity=80;strokeOpacity=80;entryX=0.306;entryY=-0.037;entryDx=0;entryDy=0;entryPerimeter=0;exitX=1;exitY=0;exitDx=0;exitDy=0;" parent="4wTf7BR3b66dO-QI67y8-207" source="42" target="38" edge="1">
            <mxGeometry relative="1" as="geometry">
              <mxPoint x="224" y="681" as="sourcePoint" />
              <mxPoint x="310" y="300" as="targetPoint" />
              <Array as="points">
                <mxPoint x="338" y="580" />
              </Array>
            </mxGeometry>
          </mxCell>
        </UserObject>
        <UserObject label="" tags="Wires" id="P8y_Ckll9Wc9_24YeqWu-167">
          <mxCell style="orthogonalLoop=0;jettySize=auto;html=1;fontSize=12;disableMultiStroke=0;flowAnimation=0;simplification=1;endArrow=classic;endFill=1;endSize=3;strokeWidth=2;shadow=0;startFill=1;arcSize=111;fillOpacity=100;strokeOpacity=80;exitX=0.972;exitY=0.07;exitDx=0;exitDy=0;curved=1;labelBorderColor=none;strokeColor=#000000;backgroundOutline=0;fixDash=0;snapToPoint=0;sketch=1;curveFitting=1;jiggle=2;exitPerimeter=0;entryX=0.188;entryY=0.002;entryDx=0;entryDy=0;entryPerimeter=0;" parent="4wTf7BR3b66dO-QI67y8-207" source="41" target="38" edge="1">
            <mxGeometry relative="1" as="geometry">
              <mxPoint x="215" y="630" as="sourcePoint" />
              <mxPoint x="333" y="670" as="targetPoint" />
              <Array as="points">
                <mxPoint x="310" y="620" />
              </Array>
            </mxGeometry>
          </mxCell>
        </UserObject>
        <UserObject label="" tags="Wires" id="P8y_Ckll9Wc9_24YeqWu-173">
          <mxCell style="orthogonalLoop=0;jettySize=auto;html=1;fontSize=12;disableMultiStroke=0;flowAnimation=0;simplification=1;endArrow=classic;endFill=1;endSize=4;strokeWidth=2;shadow=0;startFill=1;arcSize=111;fillOpacity=100;strokeOpacity=80;exitX=0;exitY=0;exitDx=0;exitDy=0;curved=1;labelBorderColor=none;strokeColor=#000000;backgroundOutline=0;fixDash=0;snapToPoint=0;sketch=1;curveFitting=1;jiggle=2;entryX=0;entryY=0.75;entryDx=0;entryDy=0;targetPerimeterSpacing=4;" parent="4wTf7BR3b66dO-QI67y8-207" source="40" target="69" edge="1">
            <mxGeometry relative="1" as="geometry">
              <mxPoint x="237" y="681" as="sourcePoint" />
              <mxPoint x="342" y="670" as="targetPoint" />
              <Array as="points">
                <mxPoint x="120" y="660" />
                <mxPoint x="110" y="600" />
                <mxPoint x="120" y="540" />
                <mxPoint x="170" y="450" />
                <mxPoint x="280" y="370" />
              </Array>
            </mxGeometry>
          </mxCell>
        </UserObject>
        <UserObject label="" tags="Wires" id="P8y_Ckll9Wc9_24YeqWu-175">
          <mxCell style="orthogonalLoop=0;jettySize=auto;html=1;fontSize=12;disableMultiStroke=0;flowAnimation=0;simplification=1;endArrow=classic;endFill=1;endSize=4;strokeWidth=2;shadow=0;startFill=1;arcSize=111;fillOpacity=100;strokeOpacity=80;curved=1;labelBorderColor=none;strokeColor=#000000;backgroundOutline=0;fixDash=0;snapToPoint=0;sketch=1;curveFitting=1;jiggle=2;entryX=1;entryY=0.5;entryDx=0;entryDy=0;targetPerimeterSpacing=4;startSize=4;sourcePerimeterSpacing=4;exitX=0.933;exitY=-0.042;exitDx=0;exitDy=0;exitPerimeter=0;" parent="4wTf7BR3b66dO-QI67y8-207" source="38" target="69" edge="1">
            <mxGeometry relative="1" as="geometry">
              <mxPoint x="380" y="690" as="sourcePoint" />
              <mxPoint x="352" y="680" as="targetPoint" />
              <Array as="points">
                <mxPoint x="400" y="570" />
                <mxPoint x="400" y="410" />
                <mxPoint x="390" y="370" />
              </Array>
            </mxGeometry>
          </mxCell>
        </UserObject>
        <UserObject label="" tags="DOT" id="P8y_Ckll9Wc9_24YeqWu-177">
          <mxCell style="edgeStyle=elbowEdgeStyle;rounded=0;orthogonalLoop=1;jettySize=auto;html=1;fontSize=16;startSize=8;endSize=8;endArrow=none;fontFamily=Architects Daughter;hachureGap=4;dashed=1;dashPattern=1 1;fontSource=https%3A%2F%2Ffonts.googleapis.com%2Fcss%3Ffamily%3DArchitects%2BDaughter;endFill=1;strokeWidth=2;startFill=1;arcSize=0;elbow=vertical;orthogonal=1;fillColor=none;spacingTop=8;shadow=0;gradientColor=none;entryX=0.958;entryY=-0.008;entryDx=0;entryDy=0;entryPerimeter=0;exitDx=0;exitDy=0;exitPerimeter=0;" parent="4wTf7BR3b66dO-QI67y8-207" source="4wTf7BR3b66dO-QI67y8-139" target="59" edge="1">
            <mxGeometry relative="1" as="geometry">
              <mxPoint x="290.923" y="238.64" as="sourcePoint" />
              <mxPoint x="240" y="240" as="targetPoint" />
              <Array as="points" />
            </mxGeometry>
          </mxCell>
        </UserObject>
        <UserObject label="" tags="DOT" id="P8y_Ckll9Wc9_24YeqWu-178">
          <mxCell style="edgeStyle=elbowEdgeStyle;rounded=0;orthogonalLoop=1;jettySize=auto;html=1;fontSize=16;startSize=8;endSize=8;endArrow=none;fontFamily=Architects Daughter;hachureGap=4;dashed=1;dashPattern=1 1;fontSource=https%3A%2F%2Ffonts.googleapis.com%2Fcss%3Ffamily%3DArchitects%2BDaughter;endFill=1;strokeWidth=2;startFill=1;arcSize=0;elbow=vertical;orthogonal=1;fillColor=none;spacingTop=8;shadow=0;gradientColor=none;exitDx=0;exitDy=0;exitPerimeter=0;" parent="4wTf7BR3b66dO-QI67y8-207" source="4wTf7BR3b66dO-QI67y8-137" target="57" edge="1">
            <mxGeometry relative="1" as="geometry">
              <mxPoint x="290.615" y="220.11" as="sourcePoint" />
              <mxPoint x="250" y="220" as="targetPoint" />
            </mxGeometry>
          </mxCell>
        </UserObject>
        <UserObject label="" tags="DOT" id="P8y_Ckll9Wc9_24YeqWu-179">
          <mxCell style="edgeStyle=elbowEdgeStyle;rounded=0;orthogonalLoop=1;jettySize=auto;html=1;fontSize=16;startSize=8;endSize=8;endArrow=none;fontFamily=Architects Daughter;hachureGap=4;dashed=1;dashPattern=1 1;fontSource=https%3A%2F%2Ffonts.googleapis.com%2Fcss%3Ffamily%3DArchitects%2BDaughter;endFill=1;strokeWidth=2;startFill=1;arcSize=0;elbow=vertical;orthogonal=1;fillColor=none;spacingTop=8;shadow=0;gradientColor=none;exitDx=0;exitDy=0;exitPerimeter=0;" parent="4wTf7BR3b66dO-QI67y8-207" source="4wTf7BR3b66dO-QI67y8-135" target="56" edge="1">
            <mxGeometry relative="1" as="geometry">
              <mxPoint x="291.2310000000001" y="189.51" as="sourcePoint" />
              <mxPoint x="240" y="190" as="targetPoint" />
            </mxGeometry>
          </mxCell>
        </UserObject>
        <UserObject label="" tags="DOT" id="P8y_Ckll9Wc9_24YeqWu-180">
          <mxCell style="edgeStyle=elbowEdgeStyle;rounded=0;orthogonalLoop=1;jettySize=auto;html=1;fontSize=16;startSize=8;endSize=8;endArrow=none;fontFamily=Architects Daughter;hachureGap=4;dashed=1;dashPattern=1 1;fontSource=https%3A%2F%2Ffonts.googleapis.com%2Fcss%3Ffamily%3DArchitects%2BDaughter;endFill=1;strokeWidth=2;startFill=1;arcSize=0;elbow=vertical;orthogonal=1;fillColor=none;spacingTop=8;shadow=0;gradientColor=none;exitDx=0;exitDy=0;exitPerimeter=0;" parent="4wTf7BR3b66dO-QI67y8-207" source="4wTf7BR3b66dO-QI67y8-133" target="55" edge="1">
            <mxGeometry relative="1" as="geometry">
              <mxPoint x="291.23199999999997" y="160.43999999999994" as="sourcePoint" />
              <mxPoint x="241" y="160" as="targetPoint" />
            </mxGeometry>
          </mxCell>
        </UserObject>
        <UserObject label="" tags="DOT" id="P8y_Ckll9Wc9_24YeqWu-181">
          <mxCell style="edgeStyle=elbowEdgeStyle;rounded=0;orthogonalLoop=1;jettySize=auto;html=1;fontSize=16;startSize=8;endSize=3;endArrow=none;fontFamily=Architects Daughter;hachureGap=4;dashed=1;dashPattern=1 1;fontSource=https%3A%2F%2Ffonts.googleapis.com%2Fcss%3Ffamily%3DArchitects%2BDaughter;endFill=0;strokeWidth=2;startFill=1;arcSize=0;elbow=vertical;orthogonal=1;fillColor=none;spacingTop=8;shadow=0;gradientColor=none;" parent="4wTf7BR3b66dO-QI67y8-207" source="54" target="4wTf7BR3b66dO-QI67y8-128" edge="1">
            <mxGeometry relative="1" as="geometry">
              <mxPoint x="240" y="130" as="sourcePoint" />
              <mxPoint x="310" y="130" as="targetPoint" />
            </mxGeometry>
          </mxCell>
        </UserObject>
        <UserObject label="" tags="DOT" id="P8y_Ckll9Wc9_24YeqWu-182">
          <mxCell style="edgeStyle=elbowEdgeStyle;rounded=0;orthogonalLoop=1;jettySize=auto;html=1;fontSize=16;startSize=8;endSize=8;endArrow=none;fontFamily=Architects Daughter;hachureGap=4;dashed=1;dashPattern=1 1;fontSource=https%3A%2F%2Ffonts.googleapis.com%2Fcss%3Ffamily%3DArchitects%2BDaughter;endFill=1;strokeWidth=2;startFill=1;arcSize=0;elbow=vertical;orthogonal=1;fillColor=none;spacingTop=8;shadow=0;gradientColor=none;exitDx=0;exitDy=0;exitPerimeter=0;entryX=0.985;entryY=1.023;entryDx=0;entryDy=0;entryPerimeter=0;" parent="4wTf7BR3b66dO-QI67y8-207" source="4wTf7BR3b66dO-QI67y8-131" target="53" edge="1">
            <mxGeometry relative="1" as="geometry">
              <mxPoint x="290.592" y="100.25999999999999" as="sourcePoint" />
              <mxPoint x="250" y="100" as="targetPoint" />
              <Array as="points" />
            </mxGeometry>
          </mxCell>
        </UserObject>
        <UserObject label="" tags="DOT" id="P8y_Ckll9Wc9_24YeqWu-183">
          <mxCell style="edgeStyle=elbowEdgeStyle;rounded=0;orthogonalLoop=1;jettySize=auto;html=1;fontSize=16;startSize=8;endSize=8;endArrow=none;fontFamily=Architects Daughter;hachureGap=4;dashed=1;dashPattern=1 1;fontSource=https%3A%2F%2Ffonts.googleapis.com%2Fcss%3Ffamily%3DArchitects%2BDaughter;endFill=1;strokeWidth=2;startFill=1;arcSize=0;elbow=vertical;orthogonal=1;fillColor=none;spacingTop=8;shadow=0;gradientColor=none;exitDx=0;exitDy=0;exitPerimeter=0;" parent="4wTf7BR3b66dO-QI67y8-207" source="4wTf7BR3b66dO-QI67y8-129" target="52" edge="1">
            <mxGeometry relative="1" as="geometry">
              <mxPoint x="290.84799999999996" y="71.87000000000006" as="sourcePoint" />
              <mxPoint x="250" y="70" as="targetPoint" />
              <Array as="points" />
            </mxGeometry>
          </mxCell>
        </UserObject>
        <UserObject label="" tags="DOT" id="P8y_Ckll9Wc9_24YeqWu-189">
          <mxCell style="edgeStyle=elbowEdgeStyle;rounded=0;orthogonalLoop=1;jettySize=auto;html=1;fontSize=16;startSize=3;endSize=3;endArrow=ERmany;fontFamily=Architects Daughter;hachureGap=4;dashed=1;dashPattern=1 1;fontSource=https%3A%2F%2Ffonts.googleapis.com%2Fcss%3Ffamily%3DArchitects%2BDaughter;endFill=0;strokeWidth=2;startFill=1;arcSize=0;elbow=vertical;orthogonal=1;fillColor=none;spacingTop=8;shadow=0;gradientColor=none;" parent="4wTf7BR3b66dO-QI67y8-207" source="4wTf7BR3b66dO-QI67y8-123" target="4wTf7BR3b66dO-QI67y8-128" edge="1">
            <mxGeometry relative="1" as="geometry">
              <mxPoint x="440" y="260" as="sourcePoint" />
              <mxPoint x="339.5" y="140" as="targetPoint" />
              <Array as="points">
                <mxPoint x="310" y="130" />
                <mxPoint x="369.5" y="140" />
              </Array>
            </mxGeometry>
          </mxCell>
        </UserObject>
        <UserObject label="" tags="DOT" id="P8y_Ckll9Wc9_24YeqWu-155">
          <mxCell style="edgeStyle=elbowEdgeStyle;rounded=0;orthogonalLoop=1;jettySize=auto;html=1;fontSize=16;startSize=8;endSize=3;endArrow=none;fontFamily=Architects Daughter;hachureGap=4;dashed=1;dashPattern=1 1;fontSource=https%3A%2F%2Ffonts.googleapis.com%2Fcss%3Ffamily%3DArchitects%2BDaughter;endFill=0;strokeWidth=2;startFill=1;arcSize=0;elbow=vertical;orthogonal=1;" parent="4wTf7BR3b66dO-QI67y8-207" source="65" target="4wTf7BR3b66dO-QI67y8-123" edge="1">
            <mxGeometry relative="1" as="geometry">
              <mxPoint x="480" y="330" as="sourcePoint" />
              <mxPoint x="440" y="270" as="targetPoint" />
            </mxGeometry>
          </mxCell>
        </UserObject>
        <UserObject label="" tags="DOT" id="P8y_Ckll9Wc9_24YeqWu-195">
          <mxCell style="edgeStyle=elbowEdgeStyle;rounded=0;orthogonalLoop=1;jettySize=auto;html=1;fontSize=16;startSize=3;endSize=3;endArrow=none;fontFamily=Architects Daughter;hachureGap=4;dashed=1;fontSource=https%3A%2F%2Ffonts.googleapis.com%2Fcss%3Ffamily%3DArchitects%2BDaughter;endFill=0;dashPattern=1 1;strokeWidth=2;startFill=0;arcSize=0;orthogonal=1;elbow=vertical;startArrow=ERmany;" parent="4wTf7BR3b66dO-QI67y8-207" source="4wTf7BR3b66dO-QI67y8-196" target="4wTf7BR3b66dO-QI67y8-202" edge="1">
            <mxGeometry relative="1" as="geometry">
              <Array as="points">
                <mxPoint x="280" y="650" />
                <mxPoint x="300" y="660" />
              </Array>
              <mxPoint x="280" y="646" as="targetPoint" />
              <mxPoint x="280" y="660" as="sourcePoint" />
            </mxGeometry>
          </mxCell>
        </UserObject>
        <UserObject label="" tags="DOT" id="P8y_Ckll9Wc9_24YeqWu-159">
          <mxCell style="edgeStyle=elbowEdgeStyle;shape=connector;rounded=0;hachureGap=4;orthogonalLoop=0;jettySize=auto;html=1;dashed=1;labelBackgroundColor=default;strokeColor=default;fontFamily=Architects Daughter;fontSource=https%3A%2F%2Ffonts.googleapis.com%2Fcss%3Ffamily%3DArchitects%2BDaughter;fontSize=16;fontColor=default;endArrow=classicThin;endFill=1;dashPattern=1 1;strokeWidth=2;metaEdit=0;orthogonal=1;ignoreEdge=0;flowAnimation=0;backgroundOutline=0;fixDash=0;snapToPoint=1;startFill=1;anchorPointDirection=0;arcSize=0;perimeterSpacing=0;elbow=vertical;" parent="4wTf7BR3b66dO-QI67y8-207" source="P8y_Ckll9Wc9_24YeqWu-160" target="45" edge="1">
            <mxGeometry relative="1" as="geometry">
              <mxPoint x="419.77" y="560.444" as="sourcePoint" />
              <mxPoint x="460" y="572" as="targetPoint" />
            </mxGeometry>
          </mxCell>
        </UserObject>
        <UserObject label="" tags="DOT" id="29">
          <mxCell style="edgeStyle=orthogonalEdgeStyle;rounded=0;hachureGap=4;orthogonalLoop=0;jettySize=auto;html=1;fontFamily=Architects Daughter;fontSource=https%3A%2F%2Ffonts.googleapis.com%2Fcss%3Ffamily%3DArchitects%2BDaughter;fontSize=16;dashed=1;dashPattern=1 1;endArrow=none;endFill=0;strokeWidth=2;movable=1;resizable=1;rotatable=1;deletable=1;editable=1;connectable=1;backgroundOutline=0;fixDash=0;metaEdit=0;orthogonal=1;ignoreEdge=0;flowAnimation=0;snapToPoint=1;startFill=1;anchorPointDirection=0;arcSize=0;perimeterSpacing=0;elbow=vertical;startArrow=ERmany;startSize=3;endSize=3;fillColor=none;spacingTop=8;shadow=0;gradientColor=none;" parent="4wTf7BR3b66dO-QI67y8-207" source="4wTf7BR3b66dO-QI67y8-153" target="4wTf7BR3b66dO-QI67y8-150" edge="1">
            <mxGeometry relative="1" as="geometry">
              <mxPoint x="229" y="921" as="targetPoint" />
              <mxPoint x="140" y="820" as="sourcePoint" />
            </mxGeometry>
          </mxCell>
        </UserObject>
        <UserObject label="" tags="Wires" id="30">
          <mxCell style="edgeStyle=elbowEdgeStyle;shape=connector;rounded=0;hachureGap=4;orthogonalLoop=0;jettySize=auto;html=1;dashed=1;labelBackgroundColor=default;strokeColor=default;fontFamily=Architects Daughter;fontSource=https%3A%2F%2Ffonts.googleapis.com%2Fcss%3Ffamily%3DArchitects%2BDaughter;fontSize=16;fontColor=default;endArrow=none;endFill=1;movable=1;resizable=1;rotatable=1;deletable=1;editable=1;connectable=1;backgroundOutline=0;fixDash=0;metaEdit=0;shadow=0;orthogonal=1;ignoreEdge=0;flowAnimation=0;snapToPoint=1;startFill=0;anchorPointDirection=0;arcSize=0;perimeterSpacing=0;elbow=vertical;startArrow=ERmany;startSize=3;endSize=3;strokeWidth=2;" parent="4wTf7BR3b66dO-QI67y8-207" source="4wTf7BR3b66dO-QI67y8-214" target="4wTf7BR3b66dO-QI67y8-213" edge="1">
            <mxGeometry relative="1" as="geometry">
              <mxPoint x="198.4799999999999" y="760.3410000000003" as="targetPoint" />
              <Array as="points">
                <mxPoint x="210" y="740" />
                <mxPoint x="250" y="750" />
                <mxPoint x="170" y="760" />
                <mxPoint x="180" y="760" />
                <mxPoint x="180" y="770" />
              </Array>
            </mxGeometry>
          </mxCell>
        </UserObject>
        <UserObject label="" tags="DOT" id="32">
          <mxCell style="shape=connector;rounded=0;hachureGap=4;orthogonalLoop=0;jettySize=auto;html=1;dashed=1;dashPattern=1 1;labelBackgroundColor=default;strokeColor=default;fontFamily=Architects Daughter;fontSource=https%3A%2F%2Ffonts.googleapis.com%2Fcss%3Ffamily%3DArchitects%2BDaughter;fontSize=16;fontColor=default;endArrow=none;endFill=0;strokeWidth=2;movable=1;resizable=1;rotatable=1;deletable=1;editable=1;connectable=1;backgroundOutline=0;fixDash=0;metaEdit=0;orthogonal=1;ignoreEdge=0;flowAnimation=0;snapToPoint=1;startFill=1;anchorPointDirection=0;arcSize=0;perimeterSpacing=0;endSize=3;edgeStyle=elbowEdgeStyle;" parent="4wTf7BR3b66dO-QI67y8-207" source="33" target="4wTf7BR3b66dO-QI67y8-153" edge="1">
            <mxGeometry relative="1" as="geometry">
              <mxPoint x="184.70000000000005" y="920.4950000000001" as="targetPoint" />
            </mxGeometry>
          </mxCell>
        </UserObject>
        <UserObject label="" tags="DOT" id="34">
          <mxCell style="edgeStyle=elbowEdgeStyle;shape=connector;rounded=0;hachureGap=4;orthogonalLoop=0;jettySize=auto;html=1;dashed=1;dashPattern=1 1;labelBackgroundColor=default;strokeColor=default;fontFamily=Architects Daughter;fontSource=https%3A%2F%2Ffonts.googleapis.com%2Fcss%3Ffamily%3DArchitects%2BDaughter;fontSize=16;fontColor=default;endArrow=none;endFill=0;movable=1;resizable=1;rotatable=1;deletable=1;editable=1;connectable=1;backgroundOutline=0;fixDash=0;metaEdit=0;strokeWidth=2;orthogonal=1;ignoreEdge=0;flowAnimation=0;snapToPoint=1;startFill=1;anchorPointDirection=0;arcSize=0;perimeterSpacing=0;elbow=vertical;endSize=3;" parent="4wTf7BR3b66dO-QI67y8-207" source="36" target="4wTf7BR3b66dO-QI67y8-150" edge="1">
            <mxGeometry relative="1" as="geometry">
              <Array as="points">
                <mxPoint x="650" y="810" />
                <mxPoint x="630" y="820" />
                <mxPoint x="630" y="820" />
              </Array>
              <mxPoint x="670.5360000000001" y="800" as="targetPoint" />
            </mxGeometry>
          </mxCell>
        </UserObject>
        <mxCell id="35" style="edgeStyle=elbowEdgeStyle;shape=connector;rounded=0;hachureGap=4;orthogonalLoop=0;jettySize=auto;html=1;dashed=1;labelBackgroundColor=default;strokeColor=default;fontFamily=Architects Daughter;fontSource=https%3A%2F%2Ffonts.googleapis.com%2Fcss%3Ffamily%3DArchitects%2BDaughter;fontSize=16;fontColor=default;endArrow=classicThin;endFill=1;movable=1;resizable=1;rotatable=1;deletable=1;editable=1;connectable=1;backgroundOutline=0;fixDash=0;metaEdit=0;shadow=0;orthogonal=1;ignoreEdge=0;flowAnimation=0;snapToPoint=1;startFill=1;anchorPointDirection=0;arcSize=0;perimeterSpacing=0;elbow=vertical;strokeWidth=2;fillColor=none;spacingTop=8;gradientColor=none;comic=0;" parent="4wTf7BR3b66dO-QI67y8-207" source="4wTf7BR3b66dO-QI67y8-212" target="50" edge="1">
          <mxGeometry relative="1" as="geometry">
            <mxPoint x="400.0799999999997" y="759.8660000000002" as="sourcePoint" />
          </mxGeometry>
        </mxCell>
        <mxCell id="39" style="edgeStyle=elbowEdgeStyle;shape=connector;rounded=0;hachureGap=4;orthogonalLoop=0;jettySize=auto;html=1;dashed=1;labelBackgroundColor=default;strokeColor=default;fontFamily=Architects Daughter;fontSource=https%3A%2F%2Ffonts.googleapis.com%2Fcss%3Ffamily%3DArchitects%2BDaughter;fontSize=16;fontColor=default;endArrow=none;endFill=1;movable=1;resizable=1;rotatable=1;deletable=1;editable=1;connectable=1;backgroundOutline=0;fixDash=0;metaEdit=0;shadow=0;strokeWidth=2;orthogonal=1;ignoreEdge=0;flowAnimation=0;snapToPoint=1;startFill=1;anchorPointDirection=0;arcSize=0;perimeterSpacing=0;elbow=vertical;endSize=3;" parent="4wTf7BR3b66dO-QI67y8-207" source="40" target="4wTf7BR3b66dO-QI67y8-214" edge="1">
          <mxGeometry relative="1" as="geometry">
            <mxPoint x="193.4399999999997" y="759.8180000000002" as="targetPoint" />
          </mxGeometry>
        </mxCell>
        <UserObject label="" tags="DOT" id="47">
          <mxCell style="edgeStyle=elbowEdgeStyle;shape=connector;rounded=0;hachureGap=4;orthogonalLoop=0;jettySize=auto;html=1;dashed=1;dashPattern=1 1;labelBackgroundColor=default;strokeColor=default;fontFamily=Architects Daughter;fontSource=https%3A%2F%2Ffonts.googleapis.com%2Fcss%3Ffamily%3DArchitects%2BDaughter;fontSize=16;fontColor=default;endArrow=classicThin;endFill=1;strokeWidth=2;movable=1;resizable=1;rotatable=1;deletable=1;editable=1;connectable=1;backgroundOutline=0;fixDash=0;metaEdit=0;orthogonal=1;ignoreEdge=0;flowAnimation=0;snapToPoint=1;startFill=1;anchorPointDirection=0;arcSize=0;perimeterSpacing=0;elbow=vertical;exitX=0.141;exitY=0.015;exitDx=0;exitDy=0;exitPerimeter=0;" parent="4wTf7BR3b66dO-QI67y8-207" source="49" edge="1">
            <mxGeometry relative="1" as="geometry">
              <mxPoint x="430" y="610" as="targetPoint" />
              <Array as="points">
                <mxPoint x="440" y="610" />
                <mxPoint x="480" y="599" />
              </Array>
            </mxGeometry>
          </mxCell>
        </UserObject>
        <mxCell id="48" style="edgeStyle=elbowEdgeStyle;shape=connector;rounded=0;hachureGap=4;orthogonalLoop=0;jettySize=auto;html=1;dashed=1;labelBackgroundColor=default;strokeColor=default;fontFamily=Architects Daughter;fontSource=https%3A%2F%2Ffonts.googleapis.com%2Fcss%3Ffamily%3DArchitects%2BDaughter;fontSize=16;fontColor=default;endArrow=none;endFill=1;movable=1;resizable=1;rotatable=1;deletable=1;editable=1;connectable=1;backgroundOutline=0;fixDash=0;metaEdit=0;shadow=0;orthogonal=1;ignoreEdge=1;flowAnimation=0;snapToPoint=1;startFill=1;anchorPointDirection=1;arcSize=0;perimeterSpacing=0;elbow=vertical;strokeWidth=2;exitX=0.708;exitY=1.035;exitDx=0;exitDy=0;exitPerimeter=0;" parent="4wTf7BR3b66dO-QI67y8-207" source="49" target="4wTf7BR3b66dO-QI67y8-228" edge="1">
          <mxGeometry relative="1" as="geometry">
            <mxPoint x="479.87999999999965" y="762.5600000000002" as="targetPoint" />
            <mxPoint x="480" y="670" as="sourcePoint" />
          </mxGeometry>
        </mxCell>
        <UserObject label="" tags="DOT" id="76">
          <mxCell style="edgeStyle=elbowEdgeStyle;shape=connector;rounded=0;hachureGap=4;orthogonalLoop=0;jettySize=auto;html=1;exitDx=0;exitDy=0;dashed=1;dashPattern=1 1;labelBackgroundColor=default;strokeColor=default;fontFamily=Architects Daughter;fontSource=https%3A%2F%2Ffonts.googleapis.com%2Fcss%3Ffamily%3DArchitects%2BDaughter;fontSize=16;fontColor=default;endArrow=none;endFill=0;strokeWidth=2;movable=1;resizable=1;rotatable=1;deletable=1;editable=1;connectable=1;backgroundOutline=0;fixDash=0;metaEdit=0;orthogonal=1;ignoreEdge=0;flowAnimation=0;snapToPoint=1;startFill=0;anchorPointDirection=0;arcSize=0;perimeterSpacing=0;elbow=vertical;exitPerimeter=0;startArrow=ERmany;startSize=3;" parent="4wTf7BR3b66dO-QI67y8-207" source="4wTf7BR3b66dO-QI67y8-119" target="4wTf7BR3b66dO-QI67y8-121" edge="1">
            <mxGeometry relative="1" as="geometry">
              <mxPoint x="670" y="430" as="targetPoint" />
              <Array as="points">
                <mxPoint x="620" y="340" />
              </Array>
            </mxGeometry>
          </mxCell>
        </UserObject>
        <mxCell id="78" style="edgeStyle=elbowEdgeStyle;shape=connector;rounded=0;hachureGap=4;orthogonalLoop=0;jettySize=auto;html=1;exitX=0;exitY=0.75;exitDx=0;exitDy=0;entryX=0;entryY=0.5;entryDx=0;entryDy=0;dashed=1;dashPattern=1 1;labelBackgroundColor=default;strokeColor=default;fontFamily=Architects Daughter;fontSource=https%3A%2F%2Ffonts.googleapis.com%2Fcss%3Ffamily%3DArchitects%2BDaughter;fontSize=16;fontColor=default;endArrow=none;endFill=1;movable=1;resizable=1;rotatable=1;deletable=1;editable=1;connectable=1;backgroundOutline=0;fixDash=0;metaEdit=0;orthogonal=1;ignoreEdge=0;flowAnimation=0;snapToPoint=1;startFill=1;anchorPointDirection=0;arcSize=0;perimeterSpacing=0;elbow=vertical;strokeWidth=2;" parent="4wTf7BR3b66dO-QI67y8-207" edge="1">
          <mxGeometry relative="1" as="geometry">
            <mxPoint x="260" y="943.75" as="sourcePoint" />
            <mxPoint x="260" y="942.5" as="targetPoint" />
          </mxGeometry>
        </mxCell>
        <mxCell id="83" value="" style="edgeStyle=elbowEdgeStyle;shape=connector;rounded=0;hachureGap=4;orthogonalLoop=0;jettySize=auto;html=1;dashed=1;labelBackgroundColor=default;strokeColor=default;fontFamily=Architects Daughter;fontSource=https%3A%2F%2Ffonts.googleapis.com%2Fcss%3Ffamily%3DArchitects%2BDaughter;fontSize=16;fontColor=default;endArrow=none;endFill=1;movable=1;resizable=1;rotatable=1;deletable=1;editable=1;connectable=1;backgroundOutline=0;fixDash=0;metaEdit=0;shadow=0;orthogonal=1;ignoreEdge=0;flowAnimation=0;snapToPoint=1;startFill=1;anchorPointDirection=0;arcSize=0;perimeterSpacing=0;elbow=vertical;comic=0;endSize=3;exitX=0.222;exitY=1.01;exitDx=0;exitDy=0;exitPerimeter=0;strokeWidth=2;" parent="4wTf7BR3b66dO-QI67y8-207" source="38" target="4wTf7BR3b66dO-QI67y8-213" edge="1">
          <mxGeometry relative="1" as="geometry">
            <mxPoint x="256" y="840" as="sourcePoint" />
            <mxPoint x="320.6999999999998" y="760.1540000000002" as="targetPoint" />
          </mxGeometry>
        </mxCell>
        <mxCell id="88" value="" style="edgeStyle=elbowEdgeStyle;shape=connector;rounded=0;hachureGap=4;orthogonalLoop=0;jettySize=auto;html=1;dashed=1;labelBackgroundColor=default;strokeColor=default;fontFamily=Architects Daughter;fontSource=https%3A%2F%2Ffonts.googleapis.com%2Fcss%3Ffamily%3DArchitects%2BDaughter;fontSize=16;fontColor=default;endArrow=none;endFill=1;movable=1;resizable=1;rotatable=1;deletable=1;editable=1;connectable=1;backgroundOutline=0;fixDash=0;metaEdit=0;shadow=0;orthogonal=1;ignoreEdge=0;flowAnimation=0;snapToPoint=1;startFill=0;anchorPointDirection=0;arcSize=0;perimeterSpacing=0;elbow=vertical;exitDx=0;exitDy=0;startSize=3;startArrow=ERmany;strokeWidth=2;" parent="4wTf7BR3b66dO-QI67y8-207" source="4wTf7BR3b66dO-QI67y8-228" target="4wTf7BR3b66dO-QI67y8-212" edge="1">
          <mxGeometry relative="1" as="geometry">
            <mxPoint x="529" y="820" as="sourcePoint" />
            <mxPoint x="599.9999999999998" y="760.5000000000002" as="targetPoint" />
            <Array as="points">
              <mxPoint x="430" y="740" />
              <mxPoint x="440" y="750" />
            </Array>
          </mxGeometry>
        </mxCell>
        <mxCell id="0DT0_v1nohCV5AMjKD_y-169" style="edgeStyle=elbowEdgeStyle;shape=connector;rounded=0;hachureGap=4;orthogonalLoop=0;jettySize=auto;html=1;dashed=1;labelBackgroundColor=default;strokeColor=default;fontFamily=Architects Daughter;fontSource=https%3A%2F%2Ffonts.googleapis.com%2Fcss%3Ffamily%3DArchitects%2BDaughter;fontSize=16;fontColor=default;endArrow=none;endFill=0;shadow=0;metaEdit=0;comic=0;backgroundOutline=0;fixDash=0;snapToPoint=1;orthogonal=1;ignoreEdge=0;flowAnimation=0;startFill=1;anchorPointDirection=0;arcSize=0;perimeterSpacing=0;elbow=vertical;endSize=3;strokeWidth=2;exitX=0.5;exitY=1;exitDx=0;exitDy=0;" parent="4wTf7BR3b66dO-QI67y8-207" source="36" target="4wTf7BR3b66dO-QI67y8-210" edge="1">
          <mxGeometry relative="1" as="geometry">
            <mxPoint x="570" y="860" as="sourcePoint" />
            <mxPoint x="548.76" y="880.819" as="targetPoint" />
            <Array as="points">
              <mxPoint x="550" y="880" />
              <mxPoint x="550" y="880" />
              <mxPoint x="470" y="860" />
              <mxPoint x="460" y="850" />
            </Array>
          </mxGeometry>
        </mxCell>
        <UserObject label="" tags="Wires" id="P8y_Ckll9Wc9_24YeqWu-163">
          <mxCell style="edgeStyle=orthogonalEdgeStyle;curved=1;rounded=1;orthogonalLoop=0;jettySize=auto;html=1;fontSize=12;sketch=1;curveFitting=-10;jiggle=2;disableMultiStroke=0;flowAnimation=0;simplification=1;endArrow=classic;endFill=1;endSize=3;strokeWidth=2;shadow=0;startFill=1;arcSize=1;fillOpacity=80;strokeOpacity=80;" parent="4wTf7BR3b66dO-QI67y8-207" source="42" target="59" edge="1">
            <mxGeometry relative="1" as="geometry">
              <Array as="points" />
            </mxGeometry>
          </mxCell>
        </UserObject>
        <mxCell id="P8y_Ckll9Wc9_24YeqWu-112" style="edgeStyle=elbowEdgeStyle;rounded=0;hachureGap=4;orthogonalLoop=1;jettySize=auto;html=1;fontFamily=Architects Daughter;fontSource=https%3A%2F%2Ffonts.googleapis.com%2Fcss%3Ffamily%3DArchitects%2BDaughter;fontSize=16;startSize=3;endSize=8;elbow=vertical;endArrow=classicThin;endFill=1;startArrow=ERmany;startFill=0;strokeWidth=2;" parent="4wTf7BR3b66dO-QI67y8-207" source="4wTf7BR3b66dO-QI67y8-224" target="61" edge="1">
          <mxGeometry relative="1" as="geometry">
            <mxPoint x="260" y="250" as="sourcePoint" />
            <Array as="points">
              <mxPoint x="280" y="260" />
            </Array>
          </mxGeometry>
        </mxCell>
        <mxCell id="P8y_Ckll9Wc9_24YeqWu-93" value="" style="edgeStyle=elbowEdgeStyle;orthogonalLoop=0;jettySize=0;html=1;rounded=0;hachureGap=4;fontFamily=Architects Daughter;fontSource=https%3A%2F%2Ffonts.googleapis.com%2Fcss%3Ffamily%3DArchitects%2BDaughter;fontSize=16;startSize=3;endSize=6;orthogonal=1;endArrow=none;endFill=0;targetPortConstraint=east;snapToPoint=0;arcSize=0;fixDash=0;backgroundOutline=0;ignoreEdge=0;flowAnimation=0;fillOpacity=100;sourcePortConstraint=none;anchorPointDirection=0;perimeterSpacing=0;startFill=0;bendable=1;elbow=vertical;startArrow=ERmany;strokeWidth=2;" parent="4wTf7BR3b66dO-QI67y8-207" source="4wTf7BR3b66dO-QI67y8-184" target="4wTf7BR3b66dO-QI67y8-182" edge="1">
          <mxGeometry width="120" relative="1" as="geometry">
            <mxPoint x="146.88000000000005" y="812.87" as="sourcePoint" />
            <mxPoint x="10.509000000000015" y="796.9599999999998" as="targetPoint" />
            <Array as="points" />
          </mxGeometry>
        </mxCell>
        <mxCell id="P8y_Ckll9Wc9_24YeqWu-94" value="" style="edgeStyle=elbowEdgeStyle;orthogonalLoop=0;jettySize=0;html=1;rounded=0;hachureGap=4;fontFamily=Architects Daughter;fontSource=https%3A%2F%2Ffonts.googleapis.com%2Fcss%3Ffamily%3DArchitects%2BDaughter;fontSize=16;startSize=3;endSize=6;orthogonal=1;endArrow=none;endFill=0;targetPortConstraint=east;snapToPoint=0;arcSize=0;fixDash=0;backgroundOutline=0;ignoreEdge=0;flowAnimation=0;fillOpacity=100;sourcePortConstraint=none;anchorPointDirection=0;perimeterSpacing=0;startFill=0;bendable=1;elbow=vertical;startArrow=ERmany;strokeWidth=2;" parent="4wTf7BR3b66dO-QI67y8-207" source="4wTf7BR3b66dO-QI67y8-182" target="4wTf7BR3b66dO-QI67y8-178" edge="1">
          <mxGeometry width="120" relative="1" as="geometry">
            <mxPoint x="145" y="728" as="sourcePoint" />
            <mxPoint x="10.421999999999912" y="718.94" as="targetPoint" />
          </mxGeometry>
        </mxCell>
        <mxCell id="P8y_Ckll9Wc9_24YeqWu-96" value="" style="edgeStyle=elbowEdgeStyle;orthogonalLoop=0;jettySize=0;html=1;rounded=0;hachureGap=4;fontFamily=Architects Daughter;fontSource=https%3A%2F%2Ffonts.googleapis.com%2Fcss%3Ffamily%3DArchitects%2BDaughter;fontSize=16;startSize=3;endSize=6;orthogonal=1;endArrow=none;endFill=0;targetPortConstraint=none;snapToPoint=0;arcSize=0;fixDash=0;backgroundOutline=0;ignoreEdge=0;flowAnimation=0;fillOpacity=100;sourcePortConstraint=none;anchorPointDirection=0;perimeterSpacing=0;startFill=0;bendable=1;elbow=vertical;startArrow=ERmany;strokeWidth=2;" parent="4wTf7BR3b66dO-QI67y8-207" source="4wTf7BR3b66dO-QI67y8-178" target="4wTf7BR3b66dO-QI67y8-174" edge="1">
          <mxGeometry width="120" relative="1" as="geometry">
            <mxPoint x="149" y="672" as="sourcePoint" />
            <mxPoint x="10.454999999999927" y="669.1400000000001" as="targetPoint" />
            <Array as="points">
              <mxPoint x="10" y="420" />
              <mxPoint x="100" y="670" />
            </Array>
          </mxGeometry>
        </mxCell>
        <UserObject label="" tags="Wires" id="P8y_Ckll9Wc9_24YeqWu-99">
          <mxCell style="edgeStyle=elbowEdgeStyle;orthogonalLoop=1;jettySize=auto;html=1;rounded=0;hachureGap=4;fontFamily=Architects Daughter;fontSource=https%3A%2F%2Ffonts.googleapis.com%2Fcss%3Ffamily%3DArchitects%2BDaughter;fontSize=16;startSize=4;endSize=6;orthogonal=1;endArrow=classicThin;endFill=1;targetPortConstraint=north;snapToPoint=0;arcSize=0;fixDash=0;backgroundOutline=0;ignoreEdge=0;flowAnimation=0;fillOpacity=100;sourcePortConstraint=none;anchorPointDirection=0;perimeterSpacing=0;elbow=vertical;startArrow=ERmany;startFill=1;sourcePerimeterSpacing=55;strokeWidth=2;" parent="4wTf7BR3b66dO-QI67y8-207" source="4wTf7BR3b66dO-QI67y8-165" target="60" edge="1">
            <mxGeometry width="120" relative="1" as="geometry">
              <mxPoint x="153" y="130" as="sourcePoint" />
              <mxPoint y="87" as="targetPoint" />
            </mxGeometry>
          </mxCell>
        </UserObject>
        <UserObject label="" tags="DOT" id="0DT0_v1nohCV5AMjKD_y-171">
          <mxCell style="edgeStyle=elbowEdgeStyle;shape=connector;rounded=0;hachureGap=4;orthogonalLoop=0;jettySize=auto;html=1;dashed=1;labelBackgroundColor=default;strokeColor=default;fontFamily=Architects Daughter;fontSource=https%3A%2F%2Ffonts.googleapis.com%2Fcss%3Ffamily%3DArchitects%2BDaughter;fontSize=16;fontColor=default;endArrow=none;endFill=0;dashPattern=1 1;strokeWidth=2;metaEdit=0;orthogonal=1;ignoreEdge=0;flowAnimation=0;backgroundOutline=0;fixDash=0;snapToPoint=1;startFill=1;anchorPointDirection=0;arcSize=0;perimeterSpacing=0;elbow=vertical;" parent="4wTf7BR3b66dO-QI67y8-207" source="43" target="P8y_Ckll9Wc9_24YeqWu-160" edge="1">
            <mxGeometry relative="1" as="geometry">
              <mxPoint x="420.01" y="561.778" as="targetPoint" />
              <Array as="points">
                <mxPoint x="420" y="550" />
              </Array>
            </mxGeometry>
          </mxCell>
        </UserObject>
        <UserObject label="" tags="DOT" id="0DT0_v1nohCV5AMjKD_y-170">
          <mxCell style="edgeStyle=elbowEdgeStyle;shape=connector;rounded=0;hachureGap=4;orthogonalLoop=0;jettySize=auto;html=1;dashed=1;labelBackgroundColor=default;strokeColor=default;fontFamily=Architects Daughter;fontSource=https%3A%2F%2Ffonts.googleapis.com%2Fcss%3Ffamily%3DArchitects%2BDaughter;fontSize=16;fontColor=default;endArrow=none;endFill=0;dashPattern=1 1;strokeWidth=2;metaEdit=0;orthogonal=1;ignoreEdge=0;flowAnimation=0;backgroundOutline=0;fixDash=0;snapToPoint=1;startFill=1;anchorPointDirection=0;arcSize=0;perimeterSpacing=0;elbow=vertical;" parent="4wTf7BR3b66dO-QI67y8-207" source="44" target="P8y_Ckll9Wc9_24YeqWu-160" edge="1">
            <mxGeometry relative="1" as="geometry">
              <mxPoint x="470" y="560" as="targetPoint" />
              <Array as="points">
                <mxPoint x="430" y="550" />
                <mxPoint x="450" y="550" />
                <mxPoint x="440" y="550" />
                <mxPoint x="450" y="540" />
                <mxPoint x="440" y="550" />
              </Array>
            </mxGeometry>
          </mxCell>
        </UserObject>
        <mxCell id="4wTf7BR3b66dO-QI67y8-120" value="" style="edgeStyle=elbowEdgeStyle;shape=connector;rounded=0;hachureGap=4;orthogonalLoop=0;jettySize=auto;html=1;dashed=1;dashPattern=1 1;labelBackgroundColor=default;strokeColor=default;fontFamily=Architects Daughter;fontSource=https%3A%2F%2Ffonts.googleapis.com%2Fcss%3Ffamily%3DArchitects%2BDaughter;fontSize=16;fontColor=default;endArrow=ERmany;endFill=0;strokeWidth=2;movable=1;resizable=1;rotatable=1;deletable=1;editable=1;connectable=1;backgroundOutline=0;fixDash=0;metaEdit=0;orthogonal=1;ignoreEdge=0;flowAnimation=0;snapToPoint=1;startFill=1;anchorPointDirection=0;arcSize=0;perimeterSpacing=0;elbow=vertical;startSize=3;endSize=3;fillColor=none;spacingTop=8;shadow=0;gradientColor=none;" parent="4wTf7BR3b66dO-QI67y8-207" source="4wTf7BR3b66dO-QI67y8-119" target="4wTf7BR3b66dO-QI67y8-150" edge="1">
          <mxGeometry relative="1" as="geometry">
            <mxPoint x="670.5" y="490" as="targetPoint" />
            <mxPoint x="670" y="430" as="sourcePoint" />
          </mxGeometry>
        </mxCell>
        <mxCell id="4wTf7BR3b66dO-QI67y8-130" value="" style="edgeStyle=elbowEdgeStyle;rounded=0;orthogonalLoop=1;jettySize=auto;html=1;fontSize=16;startSize=8;endSize=8;endArrow=none;fontFamily=Architects Daughter;hachureGap=4;dashed=1;dashPattern=1 1;fontSource=https%3A%2F%2Ffonts.googleapis.com%2Fcss%3Ffamily%3DArchitects%2BDaughter;endFill=1;strokeWidth=2;startFill=1;arcSize=0;elbow=vertical;orthogonal=1;fillColor=none;spacingTop=8;shadow=0;gradientColor=none;exitX=0.011;exitY=0.152;exitDx=0;exitDy=0;exitPerimeter=0;" parent="4wTf7BR3b66dO-QI67y8-207" target="4wTf7BR3b66dO-QI67y8-129" edge="1">
          <mxGeometry relative="1" as="geometry">
            <mxPoint x="290.84799999999996" y="71.87000000000006" as="sourcePoint" />
            <mxPoint x="230" y="70" as="targetPoint" />
            <Array as="points">
              <mxPoint x="260" y="70" />
            </Array>
          </mxGeometry>
        </mxCell>
        <mxCell id="4wTf7BR3b66dO-QI67y8-134" value="" style="edgeStyle=elbowEdgeStyle;rounded=0;orthogonalLoop=1;jettySize=auto;html=1;fontSize=16;startSize=8;endSize=8;endArrow=none;fontFamily=Architects Daughter;hachureGap=4;dashed=1;dashPattern=1 1;fontSource=https%3A%2F%2Ffonts.googleapis.com%2Fcss%3Ffamily%3DArchitects%2BDaughter;endFill=1;strokeWidth=2;startFill=1;arcSize=0;elbow=vertical;orthogonal=1;fillColor=none;spacingTop=8;shadow=0;gradientColor=none;exitX=0.532;exitY=-0.232;exitDx=0;exitDy=0;exitPerimeter=0;" parent="4wTf7BR3b66dO-QI67y8-207" target="4wTf7BR3b66dO-QI67y8-133" edge="1">
          <mxGeometry relative="1" as="geometry">
            <mxPoint x="291.23199999999997" y="160.43999999999994" as="sourcePoint" />
            <mxPoint x="230" y="160" as="targetPoint" />
          </mxGeometry>
        </mxCell>
        <mxCell id="4wTf7BR3b66dO-QI67y8-136" value="" style="edgeStyle=elbowEdgeStyle;rounded=0;orthogonalLoop=1;jettySize=auto;html=1;fontSize=16;startSize=8;endSize=8;endArrow=none;fontFamily=Architects Daughter;hachureGap=4;dashed=1;dashPattern=1 1;fontSource=https%3A%2F%2Ffonts.googleapis.com%2Fcss%3Ffamily%3DArchitects%2BDaughter;endFill=1;strokeWidth=2;startFill=1;arcSize=0;elbow=vertical;orthogonal=1;fillColor=none;spacingTop=8;shadow=0;gradientColor=none;exitX=0.703;exitY=-0.231;exitDx=0;exitDy=0;exitPerimeter=0;" parent="4wTf7BR3b66dO-QI67y8-207" target="4wTf7BR3b66dO-QI67y8-135" edge="1">
          <mxGeometry relative="1" as="geometry">
            <mxPoint x="291.2310000000001" y="189.51" as="sourcePoint" />
            <mxPoint x="230" y="190" as="targetPoint" />
          </mxGeometry>
        </mxCell>
        <mxCell id="4wTf7BR3b66dO-QI67y8-138" value="" style="edgeStyle=elbowEdgeStyle;rounded=0;orthogonalLoop=1;jettySize=auto;html=1;fontSize=16;startSize=8;endSize=8;endArrow=none;fontFamily=Architects Daughter;hachureGap=4;dashed=1;dashPattern=1 1;fontSource=https%3A%2F%2Ffonts.googleapis.com%2Fcss%3Ffamily%3DArchitects%2BDaughter;endFill=1;strokeWidth=2;startFill=1;arcSize=0;elbow=vertical;orthogonal=1;fillColor=none;spacingTop=8;shadow=0;gradientColor=none;exitX=0.883;exitY=0.385;exitDx=0;exitDy=0;exitPerimeter=0;" parent="4wTf7BR3b66dO-QI67y8-207" target="4wTf7BR3b66dO-QI67y8-137" edge="1">
          <mxGeometry relative="1" as="geometry">
            <mxPoint x="290.615" y="220.11" as="sourcePoint" />
            <mxPoint x="230" y="220" as="targetPoint" />
          </mxGeometry>
        </mxCell>
        <mxCell id="4wTf7BR3b66dO-QI67y8-141" value="" style="edgeStyle=none;shape=connector;rounded=0;hachureGap=4;orthogonalLoop=1;jettySize=auto;html=1;shadow=0;dashed=1;dashPattern=1 1;labelBackgroundColor=default;strokeColor=default;strokeWidth=2;fontFamily=Architects Daughter;fontSource=https%3A%2F%2Ffonts.googleapis.com%2Fcss%3Ffamily%3DArchitects%2BDaughter;fontSize=16;fontColor=default;startFill=0;endArrow=none;endFill=0;startSize=3;endSize=6;fillColor=none;gradientColor=none;arcSize=0;startArrow=ERmany;" parent="4wTf7BR3b66dO-QI67y8-207" source="4wTf7BR3b66dO-QI67y8-137" target="4wTf7BR3b66dO-QI67y8-135" edge="1">
          <mxGeometry relative="1" as="geometry" />
        </mxCell>
        <mxCell id="4wTf7BR3b66dO-QI67y8-140" value="" style="edgeStyle=elbowEdgeStyle;rounded=0;orthogonalLoop=1;jettySize=auto;html=1;fontSize=16;startSize=8;endSize=8;endArrow=none;fontFamily=Architects Daughter;hachureGap=4;dashed=1;dashPattern=1 1;fontSource=https%3A%2F%2Ffonts.googleapis.com%2Fcss%3Ffamily%3DArchitects%2BDaughter;endFill=1;strokeWidth=2;startFill=1;arcSize=0;elbow=vertical;orthogonal=1;fillColor=none;spacingTop=8;shadow=0;gradientColor=none;entryDx=0;entryDy=0;entryPerimeter=0;exitX=0.992;exitY=0.077;exitDx=0;exitDy=0;exitPerimeter=0;" parent="4wTf7BR3b66dO-QI67y8-207" target="4wTf7BR3b66dO-QI67y8-139" edge="1">
          <mxGeometry relative="1" as="geometry">
            <mxPoint x="290.923" y="238.64" as="sourcePoint" />
            <mxPoint x="226" y="240" as="targetPoint" />
            <Array as="points">
              <mxPoint x="250" y="240" />
              <mxPoint x="260" y="240" />
            </Array>
          </mxGeometry>
        </mxCell>
        <mxCell id="4wTf7BR3b66dO-QI67y8-143" value="" style="edgeStyle=none;shape=connector;rounded=0;hachureGap=4;orthogonalLoop=1;jettySize=auto;html=1;shadow=0;dashed=1;dashPattern=1 1;labelBackgroundColor=default;strokeColor=default;strokeWidth=2;fontFamily=Architects Daughter;fontSource=https%3A%2F%2Ffonts.googleapis.com%2Fcss%3Ffamily%3DArchitects%2BDaughter;fontSize=16;fontColor=default;startFill=0;endArrow=none;endFill=0;startSize=3;endSize=6;fillColor=none;gradientColor=none;arcSize=0;startArrow=ERmany;" parent="4wTf7BR3b66dO-QI67y8-207" source="4wTf7BR3b66dO-QI67y8-135" target="4wTf7BR3b66dO-QI67y8-133" edge="1">
          <mxGeometry relative="1" as="geometry">
            <mxPoint x="291" y="190" as="sourcePoint" />
            <mxPoint x="301" y="200" as="targetPoint" />
          </mxGeometry>
        </mxCell>
        <mxCell id="4wTf7BR3b66dO-QI67y8-144" value="" style="edgeStyle=none;shape=connector;rounded=0;hachureGap=4;orthogonalLoop=1;jettySize=auto;html=1;shadow=0;dashed=1;dashPattern=1 1;labelBackgroundColor=default;strokeColor=default;strokeWidth=2;fontFamily=Architects Daughter;fontSource=https%3A%2F%2Ffonts.googleapis.com%2Fcss%3Ffamily%3DArchitects%2BDaughter;fontSize=16;fontColor=default;startFill=0;endArrow=none;endFill=0;startSize=3;endSize=6;fillColor=none;gradientColor=none;arcSize=0;startArrow=ERmany;" parent="4wTf7BR3b66dO-QI67y8-207" source="4wTf7BR3b66dO-QI67y8-139" target="4wTf7BR3b66dO-QI67y8-137" edge="1">
          <mxGeometry relative="1" as="geometry">
            <mxPoint x="311" y="240" as="sourcePoint" />
            <mxPoint x="311" y="210" as="targetPoint" />
          </mxGeometry>
        </mxCell>
        <mxCell id="4wTf7BR3b66dO-QI67y8-145" value="" style="edgeStyle=none;shape=connector;rounded=0;hachureGap=4;orthogonalLoop=1;jettySize=auto;html=1;shadow=0;dashed=1;dashPattern=1 1;labelBackgroundColor=default;strokeColor=default;strokeWidth=2;fontFamily=Architects Daughter;fontSource=https%3A%2F%2Ffonts.googleapis.com%2Fcss%3Ffamily%3DArchitects%2BDaughter;fontSize=16;fontColor=default;startFill=0;endArrow=none;endFill=0;startSize=3;endSize=6;fillColor=none;gradientColor=none;arcSize=0;startArrow=ERmany;" parent="4wTf7BR3b66dO-QI67y8-207" source="4wTf7BR3b66dO-QI67y8-133" target="4wTf7BR3b66dO-QI67y8-128" edge="1">
          <mxGeometry relative="1" as="geometry">
            <mxPoint x="290" y="170" as="sourcePoint" />
            <mxPoint x="321" y="220" as="targetPoint" />
          </mxGeometry>
        </mxCell>
        <mxCell id="4wTf7BR3b66dO-QI67y8-146" value="" style="edgeStyle=none;shape=connector;rounded=0;hachureGap=4;orthogonalLoop=1;jettySize=auto;html=1;shadow=0;dashed=1;dashPattern=1 1;labelBackgroundColor=default;strokeColor=default;strokeWidth=2;fontFamily=Architects Daughter;fontSource=https%3A%2F%2Ffonts.googleapis.com%2Fcss%3Ffamily%3DArchitects%2BDaughter;fontSize=16;fontColor=default;startFill=0;endArrow=none;endFill=0;startSize=3;endSize=6;fillColor=none;gradientColor=none;arcSize=0;startArrow=ERmany;" parent="4wTf7BR3b66dO-QI67y8-207" source="4wTf7BR3b66dO-QI67y8-131" target="4wTf7BR3b66dO-QI67y8-128" edge="1">
          <mxGeometry relative="1" as="geometry">
            <mxPoint x="331" y="230" as="sourcePoint" />
            <mxPoint x="331" y="260" as="targetPoint" />
          </mxGeometry>
        </mxCell>
        <mxCell id="4wTf7BR3b66dO-QI67y8-147" value="" style="shape=connector;rounded=0;hachureGap=4;orthogonalLoop=1;jettySize=auto;html=1;shadow=0;dashed=1;dashPattern=1 1;labelBackgroundColor=default;strokeColor=default;strokeWidth=2;fontFamily=Architects Daughter;fontSource=https%3A%2F%2Ffonts.googleapis.com%2Fcss%3Ffamily%3DArchitects%2BDaughter;fontSize=16;fontColor=default;startFill=0;endArrow=none;endFill=0;startSize=3;endSize=6;fillColor=none;gradientColor=none;arcSize=0;startArrow=ERmany;" parent="4wTf7BR3b66dO-QI67y8-207" source="4wTf7BR3b66dO-QI67y8-129" target="4wTf7BR3b66dO-QI67y8-131" edge="1">
          <mxGeometry relative="1" as="geometry">
            <mxPoint x="341" y="240" as="sourcePoint" />
            <mxPoint x="341" y="270" as="targetPoint" />
          </mxGeometry>
        </mxCell>
        <mxCell id="4wTf7BR3b66dO-QI67y8-155" value="" style="edgeStyle=orthogonalEdgeStyle;rounded=0;hachureGap=4;orthogonalLoop=0;jettySize=auto;html=1;fontFamily=Architects Daughter;fontSource=https%3A%2F%2Ffonts.googleapis.com%2Fcss%3Ffamily%3DArchitects%2BDaughter;fontSize=16;dashed=1;dashPattern=1 1;endArrow=none;endFill=1;strokeWidth=2;movable=1;resizable=1;rotatable=1;deletable=1;editable=1;connectable=1;backgroundOutline=0;fixDash=0;metaEdit=0;orthogonal=1;ignoreEdge=0;flowAnimation=0;snapToPoint=1;startFill=1;anchorPointDirection=0;arcSize=0;perimeterSpacing=0;elbow=vertical;" parent="4wTf7BR3b66dO-QI67y8-207" source="31" target="4wTf7BR3b66dO-QI67y8-153" edge="1">
          <mxGeometry relative="1" as="geometry">
            <mxPoint x="671" y="810" as="targetPoint" />
            <mxPoint x="130" y="820" as="sourcePoint" />
            <Array as="points">
              <mxPoint x="120" y="810" />
              <mxPoint x="120" y="920" />
            </Array>
          </mxGeometry>
        </mxCell>
        <mxCell id="4wTf7BR3b66dO-QI67y8-171" value="" style="edgeStyle=elbowEdgeStyle;orthogonalLoop=0;jettySize=0;html=1;rounded=0;hachureGap=4;fontFamily=Architects Daughter;fontSource=https%3A%2F%2Ffonts.googleapis.com%2Fcss%3Ffamily%3DArchitects%2BDaughter;fontSize=16;startSize=8;endSize=8;orthogonal=1;endArrow=none;endFill=0;targetPortConstraint=north;snapToPoint=0;arcSize=0;fixDash=0;backgroundOutline=0;ignoreEdge=0;flowAnimation=0;fillOpacity=100;sourcePortConstraint=none;anchorPointDirection=0;perimeterSpacing=0;startFill=0;bendable=1;elbow=vertical;strokeWidth=2;exitX=0.984;exitY=0.033;exitDx=0;exitDy=0;exitPerimeter=0;" parent="4wTf7BR3b66dO-QI67y8-207" source="53" target="4wTf7BR3b66dO-QI67y8-165" edge="1">
          <mxGeometry width="120" relative="1" as="geometry">
            <mxPoint x="230" y="90" as="sourcePoint" />
            <mxPoint x="345" y="200" as="targetPoint" />
            <Array as="points" />
          </mxGeometry>
        </mxCell>
        <mxCell id="4wTf7BR3b66dO-QI67y8-173" value="" style="edgeStyle=elbowEdgeStyle;orthogonalLoop=1;jettySize=auto;html=1;rounded=0;hachureGap=4;fontFamily=Architects Daughter;fontSource=https%3A%2F%2Ffonts.googleapis.com%2Fcss%3Ffamily%3DArchitects%2BDaughter;fontSize=16;startSize=3;endSize=6;orthogonal=1;endArrow=none;endFill=0;targetPortConstraint=north;snapToPoint=0;arcSize=0;fixDash=0;backgroundOutline=0;ignoreEdge=0;flowAnimation=0;fillOpacity=100;sourcePortConstraint=none;anchorPointDirection=0;perimeterSpacing=0;elbow=vertical;startArrow=ERmany;startFill=0;strokeWidth=2;" parent="4wTf7BR3b66dO-QI67y8-207" source="4wTf7BR3b66dO-QI67y8-174" target="4wTf7BR3b66dO-QI67y8-165" edge="1">
          <mxGeometry width="120" relative="1" as="geometry">
            <mxPoint x="10.523809523809518" y="40" as="sourcePoint" />
            <mxPoint x="345" y="200" as="targetPoint" />
            <Array as="points">
              <mxPoint x="120" y="40" />
            </Array>
          </mxGeometry>
        </mxCell>
        <mxCell id="4wTf7BR3b66dO-QI67y8-175" value="" style="edgeStyle=elbowEdgeStyle;orthogonalLoop=0;jettySize=0;html=1;rounded=0;hachureGap=4;fontFamily=Architects Daughter;fontSource=https%3A%2F%2Ffonts.googleapis.com%2Fcss%3Ffamily%3DArchitects%2BDaughter;fontSize=16;startSize=6;endSize=6;orthogonal=1;endArrow=none;endFill=0;targetPortConstraint=none;snapToPoint=0;arcSize=0;fixDash=0;backgroundOutline=0;ignoreEdge=1;flowAnimation=0;fillOpacity=100;sourcePortConstraint=none;anchorPointDirection=0;perimeterSpacing=0;startFill=0;bendable=1;elbow=vertical;entryDx=0;entryDy=0;entryPerimeter=0;strokeWidth=2;" parent="4wTf7BR3b66dO-QI67y8-207" source="59" target="4wTf7BR3b66dO-QI67y8-174" edge="1">
          <mxGeometry width="120" relative="1" as="geometry">
            <mxPoint x="130" y="250" as="sourcePoint" />
            <mxPoint x="10" y="241" as="targetPoint" />
            <Array as="points">
              <mxPoint x="60" y="250" />
            </Array>
          </mxGeometry>
        </mxCell>
        <mxCell id="4wTf7BR3b66dO-QI67y8-179" value="" style="edgeStyle=elbowEdgeStyle;orthogonalLoop=0;jettySize=0;html=1;rounded=0;hachureGap=4;fontFamily=Architects Daughter;fontSource=https%3A%2F%2Ffonts.googleapis.com%2Fcss%3Ffamily%3DArchitects%2BDaughter;fontSize=16;startSize=6;endSize=6;orthogonal=1;endArrow=none;endFill=0;targetPortConstraint=none;snapToPoint=0;arcSize=0;fixDash=0;backgroundOutline=0;ignoreEdge=0;flowAnimation=0;fillOpacity=100;sourcePortConstraint=none;anchorPointDirection=0;perimeterSpacing=0;startFill=0;bendable=1;elbow=vertical;strokeWidth=2;" parent="4wTf7BR3b66dO-QI67y8-207" source="41" target="4wTf7BR3b66dO-QI67y8-178" edge="1">
          <mxGeometry width="120" relative="1" as="geometry">
            <mxPoint x="130" y="680" as="sourcePoint" />
            <mxPoint x="10" y="250" as="targetPoint" />
            <Array as="points">
              <mxPoint x="40" y="650" />
              <mxPoint x="50" y="660" />
              <mxPoint x="80" y="670" />
              <mxPoint x="130" y="680" />
            </Array>
          </mxGeometry>
        </mxCell>
        <mxCell id="4wTf7BR3b66dO-QI67y8-183" value="" style="edgeStyle=elbowEdgeStyle;orthogonalLoop=0;jettySize=0;html=1;rounded=0;hachureGap=4;fontFamily=Architects Daughter;fontSource=https%3A%2F%2Ffonts.googleapis.com%2Fcss%3Ffamily%3DArchitects%2BDaughter;fontSize=16;startSize=8;endSize=3;orthogonal=1;endArrow=none;endFill=0;targetPortConstraint=east;snapToPoint=0;arcSize=0;fixDash=0;backgroundOutline=0;ignoreEdge=0;flowAnimation=0;fillOpacity=100;sourcePortConstraint=none;anchorPointDirection=0;perimeterSpacing=0;startFill=0;bendable=1;elbow=vertical;strokeWidth=2;" parent="4wTf7BR3b66dO-QI67y8-207" source="40" target="4wTf7BR3b66dO-QI67y8-182" edge="1">
          <mxGeometry width="120" relative="1" as="geometry">
            <mxPoint x="130" y="730" as="sourcePoint" />
            <mxPoint x="10" y="680" as="targetPoint" />
            <Array as="points">
              <mxPoint x="70" y="700" />
              <mxPoint x="40" y="710" />
              <mxPoint x="70" y="720" />
              <mxPoint x="10" y="730" />
            </Array>
          </mxGeometry>
        </mxCell>
        <mxCell id="4wTf7BR3b66dO-QI67y8-185" value="" style="edgeStyle=elbowEdgeStyle;orthogonalLoop=0;jettySize=0;html=1;rounded=0;hachureGap=4;fontFamily=Architects Daughter;fontSource=https%3A%2F%2Ffonts.googleapis.com%2Fcss%3Ffamily%3DArchitects%2BDaughter;fontSize=16;startSize=8;endSize=3;orthogonal=1;endArrow=none;endFill=0;targetPortConstraint=east;snapToPoint=0;arcSize=0;fixDash=0;backgroundOutline=0;ignoreEdge=0;flowAnimation=0;fillOpacity=100;sourcePortConstraint=none;anchorPointDirection=0;perimeterSpacing=0;startFill=0;bendable=1;elbow=vertical;exitX=0;exitY=0.25;exitDx=0;exitDy=0;strokeWidth=2;" parent="4wTf7BR3b66dO-QI67y8-207" source="31" target="4wTf7BR3b66dO-QI67y8-184" edge="1">
          <mxGeometry width="120" relative="1" as="geometry">
            <mxPoint x="130" y="810" as="sourcePoint" />
            <mxPoint x="10" y="730" as="targetPoint" />
          </mxGeometry>
        </mxCell>
        <mxCell id="4wTf7BR3b66dO-QI67y8-190" value="" style="shape=connector;rounded=0;hachureGap=4;orthogonalLoop=0;jettySize=auto;html=1;dashed=1;dashPattern=1 1;labelBackgroundColor=default;strokeColor=default;fontFamily=Architects Daughter;fontSource=https%3A%2F%2Ffonts.googleapis.com%2Fcss%3Ffamily%3DArchitects%2BDaughter;fontSize=16;fontColor=default;endArrow=none;endFill=0;entryDx=0;entryDy=0;strokeWidth=2;movable=1;resizable=1;rotatable=1;deletable=1;editable=1;connectable=1;backgroundOutline=0;fixDash=0;metaEdit=0;orthogonal=1;ignoreEdge=0;flowAnimation=0;snapToPoint=1;startFill=1;anchorPointDirection=0;arcSize=0;perimeterSpacing=0;entryPerimeter=0;endSize=1;edgeStyle=elbowEdgeStyle;exitX=0.985;exitY=0.015;exitDx=0;exitDy=0;elbow=vertical;exitPerimeter=0;startSize=1;" parent="4wTf7BR3b66dO-QI67y8-207" source="33" target="4wTf7BR3b66dO-QI67y8-189" edge="1">
          <mxGeometry relative="1" as="geometry">
            <mxPoint x="280.4530000000001" y="848.44" as="targetPoint" />
            <Array as="points" />
            <mxPoint x="209" y="862" as="sourcePoint" />
          </mxGeometry>
        </mxCell>
        <mxCell id="4wTf7BR3b66dO-QI67y8-199" value="" style="edgeStyle=elbowEdgeStyle;rounded=0;orthogonalLoop=1;jettySize=auto;html=1;entryDx=0;entryDy=0;entryPerimeter=0;fontSize=16;startSize=8;endSize=3;endArrow=none;fontFamily=Architects Daughter;hachureGap=4;dashed=1;fontSource=https%3A%2F%2Ffonts.googleapis.com%2Fcss%3Ffamily%3DArchitects%2BDaughter;endFill=0;dashPattern=1 1;strokeWidth=2;startFill=1;arcSize=0;orthogonal=1;elbow=vertical;entryX=0.495;entryY=0.51;" parent="4wTf7BR3b66dO-QI67y8-207" source="38" target="4wTf7BR3b66dO-QI67y8-196" edge="1">
          <mxGeometry relative="1" as="geometry">
            <Array as="points">
              <mxPoint x="300" y="680" />
            </Array>
            <mxPoint x="310" y="700" as="sourcePoint" />
            <mxPoint x="280.4530000000001" y="688.6399999999999" as="targetPoint" />
          </mxGeometry>
        </mxCell>
        <mxCell id="4wTf7BR3b66dO-QI67y8-203" value="" style="edgeStyle=elbowEdgeStyle;shape=connector;rounded=0;hachureGap=4;orthogonalLoop=0;jettySize=auto;html=1;exitX=0;exitY=0.5;exitDx=0;exitDy=0;dashed=1;labelBackgroundColor=default;strokeColor=default;fontFamily=Architects Daughter;fontSource=https%3A%2F%2Ffonts.googleapis.com%2Fcss%3Ffamily%3DArchitects%2BDaughter;fontSize=16;fontColor=default;endArrow=classicThin;endFill=1;dashPattern=1 1;strokeWidth=2;metaEdit=0;orthogonal=1;ignoreEdge=0;flowAnimation=0;backgroundOutline=0;fixDash=0;snapToPoint=1;startFill=1;anchorPointDirection=0;arcSize=0;perimeterSpacing=0;elbow=vertical;exitPerimeter=0;" parent="4wTf7BR3b66dO-QI67y8-207" target="4wTf7BR3b66dO-QI67y8-202" edge="1">
          <mxGeometry relative="1" as="geometry">
            <mxPoint x="280.5" y="520" as="sourcePoint" />
            <mxPoint x="350" y="520" as="targetPoint" />
          </mxGeometry>
        </mxCell>
        <mxCell id="4wTf7BR3b66dO-QI67y8-204" style="edgeStyle=elbowEdgeStyle;shape=connector;rounded=0;hachureGap=4;orthogonalLoop=1;jettySize=auto;elbow=vertical;html=1;shadow=0;dashed=1;dashPattern=1 1;labelBackgroundColor=default;strokeColor=default;strokeWidth=2;fontFamily=Architects Daughter;fontSource=https%3A%2F%2Ffonts.googleapis.com%2Fcss%3Ffamily%3DArchitects%2BDaughter;fontSize=16;fontColor=default;startFill=1;endArrow=ERmany;endFill=0;startSize=3;endSize=3;fillColor=none;gradientColor=none;" parent="4wTf7BR3b66dO-QI67y8-207" source="4wTf7BR3b66dO-QI67y8-196" target="4wTf7BR3b66dO-QI67y8-191" edge="1">
          <mxGeometry relative="1" as="geometry">
            <Array as="points">
              <mxPoint x="280" y="740" />
            </Array>
          </mxGeometry>
        </mxCell>
        <mxCell id="4wTf7BR3b66dO-QI67y8-209" value="" style="edgeStyle=elbowEdgeStyle;shape=connector;rounded=0;hachureGap=4;orthogonalLoop=0;jettySize=auto;html=1;dashed=1;labelBackgroundColor=default;strokeColor=default;fontFamily=Architects Daughter;fontSource=https%3A%2F%2Ffonts.googleapis.com%2Fcss%3Ffamily%3DArchitects%2BDaughter;fontSize=16;fontColor=default;endArrow=none;endFill=1;shadow=0;metaEdit=0;comic=0;backgroundOutline=0;fixDash=0;snapToPoint=1;orthogonal=1;ignoreEdge=0;flowAnimation=0;startFill=1;anchorPointDirection=0;arcSize=0;perimeterSpacing=0;elbow=vertical;entryDx=0;entryDy=0;entryPerimeter=0;exitX=0.981;exitY=1;exitDx=0;exitDy=0;exitPerimeter=0;endSize=3;strokeWidth=2;" parent="4wTf7BR3b66dO-QI67y8-207" source="33" target="4wTf7BR3b66dO-QI67y8-208" edge="1">
          <mxGeometry relative="1" as="geometry">
            <mxPoint x="208" y="880" as="sourcePoint" />
            <mxPoint x="247.12999999999988" y="880.3240000000001" as="targetPoint" />
            <Array as="points" />
          </mxGeometry>
        </mxCell>
        <mxCell id="4wTf7BR3b66dO-QI67y8-215" value="" style="edgeStyle=elbowEdgeStyle;shape=connector;rounded=0;hachureGap=4;orthogonalLoop=0;jettySize=auto;html=1;dashed=1;labelBackgroundColor=default;strokeColor=default;fontFamily=Architects Daughter;fontSource=https%3A%2F%2Ffonts.googleapis.com%2Fcss%3Ffamily%3DArchitects%2BDaughter;fontSize=16;fontColor=default;endArrow=none;endFill=1;entryDx=0;entryDy=0;movable=1;resizable=1;rotatable=1;deletable=1;editable=1;connectable=1;backgroundOutline=0;fixDash=0;metaEdit=0;shadow=0;orthogonal=1;ignoreEdge=0;flowAnimation=0;snapToPoint=1;startFill=1;anchorPointDirection=0;arcSize=0;perimeterSpacing=0;elbow=vertical;entryPerimeter=0;strokeWidth=2;" parent="4wTf7BR3b66dO-QI67y8-207" source="31" target="4wTf7BR3b66dO-QI67y8-214" edge="1">
          <mxGeometry relative="1" as="geometry">
            <mxPoint x="198.4799999999999" y="760.3410000000003" as="targetPoint" />
            <mxPoint x="170" y="790" as="sourcePoint" />
          </mxGeometry>
        </mxCell>
        <UserObject label="" tags="Wires" id="4wTf7BR3b66dO-QI67y8-216">
          <mxCell style="edgeStyle=elbowEdgeStyle;shape=connector;rounded=0;hachureGap=4;orthogonalLoop=0;jettySize=auto;html=1;dashed=1;labelBackgroundColor=default;strokeColor=default;fontFamily=Architects Daughter;fontSource=https%3A%2F%2Ffonts.googleapis.com%2Fcss%3Ffamily%3DArchitects%2BDaughter;fontSize=16;fontColor=default;endArrow=none;endFill=1;movable=1;resizable=1;rotatable=1;deletable=1;editable=1;connectable=1;backgroundOutline=0;fixDash=0;metaEdit=0;shadow=0;orthogonal=1;ignoreEdge=0;flowAnimation=0;snapToPoint=1;startFill=0;anchorPointDirection=0;arcSize=0;perimeterSpacing=0;elbow=vertical;startArrow=ERmany;startSize=3;endSize=3;strokeWidth=2;" parent="4wTf7BR3b66dO-QI67y8-207" source="4wTf7BR3b66dO-QI67y8-213" target="4wTf7BR3b66dO-QI67y8-212" edge="1">
            <mxGeometry relative="1" as="geometry">
              <mxPoint x="320" y="770" as="targetPoint" />
              <mxPoint x="180" y="770" as="sourcePoint" />
              <Array as="points">
                <mxPoint x="370" y="740" />
                <mxPoint x="380" y="750" />
              </Array>
            </mxGeometry>
          </mxCell>
        </UserObject>
        <mxCell id="4wTf7BR3b66dO-QI67y8-192" value="" style="edgeStyle=none;rounded=0;orthogonalLoop=1;jettySize=auto;html=1;exitX=0;exitY=0.75;exitDx=0;exitDy=0;fontSize=16;startSize=1;endSize=1;fontFamily=Architects Daughter;fillColor=none;strokeWidth=2;spacingTop=8;shadow=0;gradientColor=none;dashed=1;hachureGap=4;endArrow=none;dashPattern=1 1;endFill=0;startFill=1;arcSize=0;fontSource=https%3A%2F%2Ffonts.googleapis.com%2Fcss%3Ffamily%3DArchitects%2BDaughter;" parent="4wTf7BR3b66dO-QI67y8-207" source="36" target="4wTf7BR3b66dO-QI67y8-191" edge="1">
          <mxGeometry relative="1" as="geometry">
            <mxPoint x="560" y="810" as="sourcePoint" />
            <mxPoint x="280.65100000000007" y="810.3600000000001" as="targetPoint" />
          </mxGeometry>
        </mxCell>
        <UserObject label="" tags="DOT" id="P8y_Ckll9Wc9_24YeqWu-162">
          <mxCell style="edgeStyle=orthogonalEdgeStyle;curved=1;rounded=0;orthogonalLoop=0;jettySize=auto;html=1;exitX=0;exitY=0.5;exitDx=0;exitDy=0;fontSize=16;startSize=8;endSize=8;endArrow=classicThin;fontFamily=Virgil2;hachureGap=4;dashed=1;dashPattern=1 1;fontSource=https%3A%2F%2Fgithub.com%2Fexcalidraw%2Fvirgil%2Fraw%2Fmain%2FVirgil.woff2;endFill=1;strokeWidth=2;startFill=1;arcSize=0;anchorPointDirection=0;" parent="4wTf7BR3b66dO-QI67y8-207" source="64" target="68" edge="1">
            <mxGeometry relative="1" as="geometry">
              <Array as="points">
                <mxPoint x="390" y="170" />
                <mxPoint x="390" y="300" />
                <mxPoint x="370" y="300" />
              </Array>
              <mxPoint x="370" y="330" as="targetPoint" />
            </mxGeometry>
          </mxCell>
        </UserObject>
        <mxCell id="4wTf7BR3b66dO-QI67y8-92" style="edgeStyle=none;rounded=0;orthogonalLoop=1;jettySize=auto;html=1;exitX=1;exitY=0.75;exitDx=0;exitDy=0;fontSize=16;startSize=1;endSize=1;fontFamily=Architects Daughter;fillColor=none;strokeWidth=2;spacingTop=8;shadow=0;gradientColor=none;dashed=1;hachureGap=4;endArrow=none;dashPattern=1 1;endFill=0;startFill=1;arcSize=0;fontSource=https%3A%2F%2Ffonts.googleapis.com%2Fcss%3Ffamily%3DArchitects%2BDaughter;" parent="4wTf7BR3b66dO-QI67y8-207" source="31" target="4wTf7BR3b66dO-QI67y8-191" edge="1">
          <mxGeometry relative="1" as="geometry">
            <mxPoint x="280.5049999999999" y="798.46" as="targetPoint" />
          </mxGeometry>
        </mxCell>
        <mxCell id="4wTf7BR3b66dO-QI67y8-219" value="" style="edgeStyle=elbowEdgeStyle;rounded=0;hachureGap=4;orthogonalLoop=1;jettySize=auto;html=1;fontFamily=Architects Daughter;fontSource=https%3A%2F%2Ffonts.googleapis.com%2Fcss%3Ffamily%3DArchitects%2BDaughter;fontSize=16;startSize=8;endSize=3;elbow=vertical;entryDx=0;entryDy=0;entryPerimeter=0;endArrow=none;endFill=0;arcSize=0;startFill=0;exitX=1;exitY=0.25;exitDx=0;exitDy=0;strokeWidth=2;" parent="4wTf7BR3b66dO-QI67y8-207" source="31" target="4wTf7BR3b66dO-QI67y8-218" edge="1">
          <mxGeometry relative="1" as="geometry">
            <mxPoint x="210" y="800" as="sourcePoint" />
            <mxPoint x="260.4269999999999" y="790.6499999999999" as="targetPoint" />
            <Array as="points" />
          </mxGeometry>
        </mxCell>
        <mxCell id="4wTf7BR3b66dO-QI67y8-221" value="" style="edgeStyle=elbowEdgeStyle;rounded=0;hachureGap=4;orthogonalLoop=1;jettySize=auto;html=1;fontFamily=Architects Daughter;fontSource=https%3A%2F%2Ffonts.googleapis.com%2Fcss%3Ffamily%3DArchitects%2BDaughter;fontSize=16;startSize=8;endSize=3;elbow=vertical;endArrow=none;endFill=0;arcSize=0;startFill=0;entryDx=0;entryDy=0;entryPerimeter=0;strokeWidth=2;" parent="4wTf7BR3b66dO-QI67y8-207" target="4wTf7BR3b66dO-QI67y8-220" edge="1">
          <mxGeometry relative="1" as="geometry">
            <mxPoint x="240" y="700" as="sourcePoint" />
            <mxPoint x="260.5329999999999" y="721.8999999999999" as="targetPoint" />
            <Array as="points">
              <mxPoint x="250" y="700" />
            </Array>
          </mxGeometry>
        </mxCell>
        <mxCell id="4wTf7BR3b66dO-QI67y8-223" value="" style="edgeStyle=elbowEdgeStyle;rounded=0;hachureGap=4;orthogonalLoop=1;jettySize=auto;html=1;fontFamily=Architects Daughter;fontSource=https%3A%2F%2Ffonts.googleapis.com%2Fcss%3Ffamily%3DArchitects%2BDaughter;fontSize=16;startSize=8;endSize=3;elbow=vertical;entryDx=0;entryDy=0;entryPerimeter=0;endArrow=none;endFill=0;arcSize=0;startFill=0;strokeWidth=2;" parent="4wTf7BR3b66dO-QI67y8-207" source="41" target="4wTf7BR3b66dO-QI67y8-222" edge="1">
          <mxGeometry relative="1" as="geometry">
            <mxPoint x="230" y="680" as="sourcePoint" />
            <mxPoint x="260.43399999999997" y="663.05" as="targetPoint" />
            <Array as="points">
              <mxPoint x="240" y="650" />
            </Array>
          </mxGeometry>
        </mxCell>
        <mxCell id="4wTf7BR3b66dO-QI67y8-227" style="edgeStyle=elbowEdgeStyle;shape=connector;rounded=0;hachureGap=4;orthogonalLoop=1;jettySize=auto;elbow=vertical;html=1;shadow=0;labelBackgroundColor=default;strokeColor=default;strokeWidth=2;fontFamily=Architects Daughter;fontSource=https%3A%2F%2Ffonts.googleapis.com%2Fcss%3Ffamily%3DArchitects%2BDaughter;fontSize=16;fontColor=default;startFill=0;endArrow=none;endFill=0;startSize=3;endSize=3;fillColor=none;gradientColor=none;startArrow=ERmany;" parent="4wTf7BR3b66dO-QI67y8-207" source="4wTf7BR3b66dO-QI67y8-222" target="4wTf7BR3b66dO-QI67y8-224" edge="1">
          <mxGeometry relative="1" as="geometry" />
        </mxCell>
        <mxCell id="4wTf7BR3b66dO-QI67y8-226" value="" style="edgeStyle=elbowEdgeStyle;rounded=0;orthogonalLoop=1;jettySize=auto;html=1;fontSize=12;startSize=8;endSize=8;endArrow=none;endFill=0;entryDx=0;entryDy=0;entryPerimeter=0;elbow=vertical;strokeWidth=2;exitX=1;exitY=1;exitDx=0;exitDy=0;" parent="4wTf7BR3b66dO-QI67y8-207" source="59" target="4wTf7BR3b66dO-QI67y8-224" edge="1">
          <mxGeometry relative="1" as="geometry">
            <mxPoint x="230" y="250" as="sourcePoint" />
            <mxPoint x="260.5" y="250" as="targetPoint" />
          </mxGeometry>
        </mxCell>
        <mxCell id="4wTf7BR3b66dO-QI67y8-229" value="" style="edgeStyle=elbowEdgeStyle;shape=connector;rounded=0;hachureGap=4;orthogonalLoop=0;jettySize=auto;html=1;dashed=1;labelBackgroundColor=default;strokeColor=default;fontFamily=Architects Daughter;fontSource=https%3A%2F%2Ffonts.googleapis.com%2Fcss%3Ffamily%3DArchitects%2BDaughter;fontSize=16;fontColor=default;endArrow=none;endFill=1;movable=1;resizable=1;rotatable=1;deletable=1;editable=1;connectable=1;backgroundOutline=0;fixDash=0;metaEdit=0;shadow=0;orthogonal=1;ignoreEdge=0;flowAnimation=0;snapToPoint=1;startFill=1;anchorPointDirection=0;arcSize=0;perimeterSpacing=0;elbow=vertical;exitX=0.5;exitY=0;exitDx=0;exitDy=0;strokeWidth=2;" parent="4wTf7BR3b66dO-QI67y8-207" source="36" target="4wTf7BR3b66dO-QI67y8-228" edge="1">
          <mxGeometry relative="1" as="geometry">
            <mxPoint x="600" y="790" as="sourcePoint" />
            <mxPoint x="400" y="761" as="targetPoint" />
            <Array as="points">
              <mxPoint x="530" y="740" />
              <mxPoint x="560" y="750" />
              <mxPoint x="510" y="760" />
            </Array>
          </mxGeometry>
        </mxCell>
        <mxCell id="4wTf7BR3b66dO-QI67y8-228" value="" style="shape=waypoint;fillStyle=solid;size=6;pointerEvents=1;points=[];fillColor=none;resizable=1;rotatable=0;perimeter=centerPerimeter;snapToPoint=1;hachureGap=4;fontFamily=Architects Daughter;fontSource=https%3A%2F%2Ffonts.googleapis.com%2Fcss%3Ffamily%3DArchitects%2BDaughter;fontSize=20;fontColor=default;shadow=0;dashed=1;dashPattern=1 4;perimeterSpacing=111;strokeWidth=2;" parent="4wTf7BR3b66dO-QI67y8-207" vertex="1">
          <mxGeometry x="460" y="730" width="20" height="20" as="geometry" />
        </mxCell>
        <object label="Waypoints" id="P8y_Ckll9Wc9_24YeqWu-90">
          <mxCell style="" parent="0" />
        </object>
        <mxCell id="4wTf7BR3b66dO-QI67y8-128" value="" style="shape=waypoint;fillStyle=solid;size=6;pointerEvents=1;points=[];fillColor=none;resizable=1;rotatable=0;perimeter=centerPerimeter;snapToPoint=1;hachureGap=4;fontFamily=Architects Daughter;fontSource=https%3A%2F%2Ffonts.googleapis.com%2Fcss%3Ffamily%3DArchitects%2BDaughter;fontSize=20;fontColor=default;shadow=0;dashed=1;dashPattern=1 4;perimeterSpacing=111;" parent="P8y_Ckll9Wc9_24YeqWu-90" vertex="1">
          <mxGeometry x="280" y="120" width="20" height="20" as="geometry" />
        </mxCell>
        <mxCell id="P8y_Ckll9Wc9_24YeqWu-160" value="" style="shape=waypoint;sketch=0;fillStyle=solid;size=6;pointerEvents=1;points=[];fillColor=none;resizable=0;rotatable=0;perimeter=centerPerimeter;snapToPoint=1;hachureGap=4;jiggle=2;curveFitting=1;fontFamily=Architects Daughter;fontSource=https%3A%2F%2Ffonts.googleapis.com%2Fcss%3Ffamily%3DArchitects%2BDaughter;fontSize=20;strokeColor=default;" parent="P8y_Ckll9Wc9_24YeqWu-90" vertex="1">
          <mxGeometry x="420" y="540" width="20" height="20" as="geometry" />
        </mxCell>
        <mxCell id="4wTf7BR3b66dO-QI67y8-119" value="" style="shape=waypoint;fillStyle=solid;size=6;pointerEvents=1;points=[];fillColor=none;resizable=1;rotatable=0;perimeter=centerPerimeter;snapToPoint=1;hachureGap=4;fontFamily=Architects Daughter;fontSource=https%3A%2F%2Ffonts.googleapis.com%2Fcss%3Ffamily%3DArchitects%2BDaughter;fontSize=20;fontColor=default;shadow=0;dashed=1;dashPattern=1 4;perimeterSpacing=111;" parent="P8y_Ckll9Wc9_24YeqWu-90" vertex="1">
          <mxGeometry x="661" y="330" width="20" height="20" as="geometry" />
        </mxCell>
        <mxCell id="4wTf7BR3b66dO-QI67y8-121" value="" style="shape=waypoint;fillStyle=solid;size=6;pointerEvents=1;points=[];fillColor=none;resizable=1;rotatable=0;perimeter=centerPerimeter;snapToPoint=1;hachureGap=4;fontFamily=Architects Daughter;fontSource=https%3A%2F%2Ffonts.googleapis.com%2Fcss%3Ffamily%3DArchitects%2BDaughter;fontSize=20;fontColor=default;shadow=0;dashed=1;dashPattern=1 4;perimeterSpacing=111;" parent="P8y_Ckll9Wc9_24YeqWu-90" vertex="1">
          <mxGeometry x="420" y="330" width="20" height="20" as="geometry" />
        </mxCell>
        <mxCell id="4wTf7BR3b66dO-QI67y8-123" value="" style="shape=waypoint;fillStyle=solid;size=6;pointerEvents=1;points=[];fillColor=none;resizable=1;rotatable=0;perimeter=centerPerimeter;snapToPoint=1;hachureGap=4;fontFamily=Architects Daughter;fontSource=https%3A%2F%2Ffonts.googleapis.com%2Fcss%3Ffamily%3DArchitects%2BDaughter;fontSize=20;fontColor=default;shadow=0;dashed=1;dashPattern=1 4;perimeterSpacing=111;" parent="P8y_Ckll9Wc9_24YeqWu-90" vertex="1">
          <mxGeometry x="420" y="260" width="20" height="20" as="geometry" />
        </mxCell>
        <mxCell id="4wTf7BR3b66dO-QI67y8-129" value="" style="shape=waypoint;fillStyle=solid;size=6;pointerEvents=1;points=[];fillColor=none;resizable=1;rotatable=0;perimeter=centerPerimeter;snapToPoint=1;hachureGap=4;fontFamily=Architects Daughter;fontSource=https%3A%2F%2Ffonts.googleapis.com%2Fcss%3Ffamily%3DArchitects%2BDaughter;fontSize=20;fontColor=default;shadow=0;dashed=1;dashPattern=1 4;perimeterSpacing=111;" parent="P8y_Ckll9Wc9_24YeqWu-90" vertex="1">
          <mxGeometry x="280" y="60" width="20" height="20" as="geometry" />
        </mxCell>
        <mxCell id="4wTf7BR3b66dO-QI67y8-131" value="" style="shape=waypoint;fillStyle=solid;size=6;pointerEvents=1;points=[];fillColor=none;resizable=1;rotatable=0;perimeter=centerPerimeter;snapToPoint=1;hachureGap=4;fontFamily=Architects Daughter;fontSource=https%3A%2F%2Ffonts.googleapis.com%2Fcss%3Ffamily%3DArchitects%2BDaughter;fontSize=20;fontColor=default;shadow=0;dashed=1;dashPattern=1 4;perimeterSpacing=111;" parent="P8y_Ckll9Wc9_24YeqWu-90" vertex="1">
          <mxGeometry x="280" y="100" width="20" height="20" as="geometry" />
        </mxCell>
        <mxCell id="4wTf7BR3b66dO-QI67y8-133" value="" style="shape=waypoint;fillStyle=solid;size=6;pointerEvents=1;points=[];fillColor=none;resizable=1;rotatable=0;perimeter=centerPerimeter;snapToPoint=1;hachureGap=4;fontFamily=Architects Daughter;fontSource=https%3A%2F%2Ffonts.googleapis.com%2Fcss%3Ffamily%3DArchitects%2BDaughter;fontSize=20;fontColor=default;shadow=0;dashed=1;dashPattern=1 4;perimeterSpacing=111;" parent="P8y_Ckll9Wc9_24YeqWu-90" vertex="1">
          <mxGeometry x="280" y="150" width="20" height="20" as="geometry" />
        </mxCell>
        <mxCell id="4wTf7BR3b66dO-QI67y8-135" value="" style="shape=waypoint;fillStyle=solid;size=6;pointerEvents=1;points=[];fillColor=none;resizable=1;rotatable=0;perimeter=centerPerimeter;snapToPoint=1;hachureGap=4;fontFamily=Architects Daughter;fontSource=https%3A%2F%2Ffonts.googleapis.com%2Fcss%3Ffamily%3DArchitects%2BDaughter;fontSize=20;fontColor=default;shadow=0;dashed=1;dashPattern=1 4;perimeterSpacing=111;" parent="P8y_Ckll9Wc9_24YeqWu-90" vertex="1">
          <mxGeometry x="280" y="180" width="20" height="20" as="geometry" />
        </mxCell>
        <mxCell id="4wTf7BR3b66dO-QI67y8-137" value="" style="shape=waypoint;fillStyle=solid;size=6;pointerEvents=1;points=[];fillColor=none;resizable=1;rotatable=0;perimeter=centerPerimeter;snapToPoint=1;hachureGap=4;fontFamily=Architects Daughter;fontSource=https%3A%2F%2Ffonts.googleapis.com%2Fcss%3Ffamily%3DArchitects%2BDaughter;fontSize=20;fontColor=default;shadow=0;dashed=1;dashPattern=1 4;perimeterSpacing=111;" parent="P8y_Ckll9Wc9_24YeqWu-90" vertex="1">
          <mxGeometry x="280" y="210" width="20" height="20" as="geometry" />
        </mxCell>
        <mxCell id="4wTf7BR3b66dO-QI67y8-139" value="" style="shape=waypoint;fillStyle=solid;size=6;pointerEvents=1;points=[];fillColor=none;resizable=1;rotatable=0;perimeter=centerPerimeter;snapToPoint=1;hachureGap=4;fontFamily=Architects Daughter;fontSource=https%3A%2F%2Ffonts.googleapis.com%2Fcss%3Ffamily%3DArchitects%2BDaughter;fontSize=20;fontColor=default;shadow=0;dashed=1;dashPattern=1 4;perimeterSpacing=111;" parent="P8y_Ckll9Wc9_24YeqWu-90" vertex="1">
          <mxGeometry x="280" y="230" width="20" height="20" as="geometry" />
        </mxCell>
        <mxCell id="4wTf7BR3b66dO-QI67y8-150" value="" style="shape=waypoint;fillStyle=solid;size=6;pointerEvents=1;points=[];fillColor=none;resizable=1;rotatable=0;perimeter=centerPerimeter;snapToPoint=1;hachureGap=4;fontFamily=Architects Daughter;fontSource=https%3A%2F%2Ffonts.googleapis.com%2Fcss%3Ffamily%3DArchitects%2BDaughter;fontSize=20;fontColor=default;shadow=0;dashed=1;dashPattern=1 4;perimeterSpacing=111;" parent="P8y_Ckll9Wc9_24YeqWu-90" vertex="1">
          <mxGeometry x="661" y="800" width="20" height="20" as="geometry" />
        </mxCell>
        <mxCell id="4wTf7BR3b66dO-QI67y8-153" value="" style="shape=waypoint;fillStyle=solid;size=6;pointerEvents=1;points=[];fillColor=none;resizable=1;rotatable=0;perimeter=centerPerimeter;snapToPoint=1;hachureGap=4;fontFamily=Architects Daughter;fontSource=https%3A%2F%2Ffonts.googleapis.com%2Fcss%3Ffamily%3DArchitects%2BDaughter;fontSize=20;fontColor=default;shadow=0;dashed=1;dashPattern=1 4;perimeterSpacing=111;" parent="P8y_Ckll9Wc9_24YeqWu-90" vertex="1">
          <mxGeometry x="180" y="910" width="20" height="20" as="geometry" />
        </mxCell>
        <mxCell id="4wTf7BR3b66dO-QI67y8-165" value="" style="shape=waypoint;fillStyle=solid;size=6;pointerEvents=1;points=[];fillColor=none;resizable=1;rotatable=0;perimeter=centerPerimeter;snapToPoint=1;hachureGap=4;fontFamily=Architects Daughter;fontSource=https%3A%2F%2Ffonts.googleapis.com%2Fcss%3Ffamily%3DArchitects%2BDaughter;fontSize=20;fontColor=default;shadow=0;dashed=1;dashPattern=1 4;perimeterSpacing=111;" parent="P8y_Ckll9Wc9_24YeqWu-90" vertex="1">
          <mxGeometry x="330" y="80" width="20" height="20" as="geometry" />
        </mxCell>
        <mxCell id="4wTf7BR3b66dO-QI67y8-174" value="" style="shape=waypoint;fillStyle=solid;size=6;pointerEvents=1;points=[];fillColor=none;resizable=1;rotatable=0;perimeter=centerPerimeter;snapToPoint=1;hachureGap=4;fontFamily=Architects Daughter;fontSource=https%3A%2F%2Ffonts.googleapis.com%2Fcss%3Ffamily%3DArchitects%2BDaughter;fontSize=20;fontColor=default;shadow=0;dashed=1;dashPattern=1 4;perimeterSpacing=111;" parent="P8y_Ckll9Wc9_24YeqWu-90" vertex="1">
          <mxGeometry y="240" width="20" height="20" as="geometry" />
        </mxCell>
        <mxCell id="4wTf7BR3b66dO-QI67y8-178" value="" style="shape=waypoint;fillStyle=solid;size=6;pointerEvents=1;points=[];fillColor=none;resizable=1;rotatable=0;perimeter=centerPerimeter;snapToPoint=1;hachureGap=4;fontFamily=Architects Daughter;fontSource=https%3A%2F%2Ffonts.googleapis.com%2Fcss%3Ffamily%3DArchitects%2BDaughter;fontSize=20;fontColor=default;shadow=0;dashed=1;dashPattern=1 4;perimeterSpacing=111;" parent="P8y_Ckll9Wc9_24YeqWu-90" vertex="1">
          <mxGeometry y="640" width="20" height="20" as="geometry" />
        </mxCell>
        <mxCell id="4wTf7BR3b66dO-QI67y8-182" value="" style="shape=waypoint;fillStyle=solid;size=6;pointerEvents=1;points=[];fillColor=none;resizable=1;rotatable=0;perimeter=centerPerimeter;snapToPoint=1;hachureGap=4;fontFamily=Architects Daughter;fontSource=https%3A%2F%2Ffonts.googleapis.com%2Fcss%3Ffamily%3DArchitects%2BDaughter;fontSize=20;fontColor=default;shadow=0;dashed=1;dashPattern=1 4;perimeterSpacing=111;" parent="P8y_Ckll9Wc9_24YeqWu-90" vertex="1">
          <mxGeometry y="690" width="20" height="20" as="geometry" />
        </mxCell>
        <mxCell id="4wTf7BR3b66dO-QI67y8-184" value="" style="shape=waypoint;fillStyle=solid;size=6;pointerEvents=1;points=[];fillColor=none;resizable=1;rotatable=0;perimeter=centerPerimeter;snapToPoint=1;hachureGap=4;fontFamily=Architects Daughter;fontSource=https%3A%2F%2Ffonts.googleapis.com%2Fcss%3Ffamily%3DArchitects%2BDaughter;fontSize=20;fontColor=default;shadow=0;dashed=1;dashPattern=1 4;perimeterSpacing=111;" parent="P8y_Ckll9Wc9_24YeqWu-90" vertex="1">
          <mxGeometry y="780" width="20" height="20" as="geometry" />
        </mxCell>
        <mxCell id="4wTf7BR3b66dO-QI67y8-189" value="" style="shape=waypoint;fillStyle=solid;size=6;pointerEvents=1;points=[];fillColor=none;resizable=1;rotatable=0;perimeter=centerPerimeter;snapToPoint=1;hachureGap=4;fontFamily=Architects Daughter;fontSource=https%3A%2F%2Ffonts.googleapis.com%2Fcss%3Ffamily%3DArchitects%2BDaughter;fontSize=20;fontColor=default;shadow=0;dashed=1;dashPattern=1 4;perimeterSpacing=111;" parent="P8y_Ckll9Wc9_24YeqWu-90" vertex="1">
          <mxGeometry x="270" y="850" width="20" height="20" as="geometry" />
        </mxCell>
        <mxCell id="4wTf7BR3b66dO-QI67y8-196" value="" style="shape=waypoint;fillStyle=solid;size=6;pointerEvents=1;points=[];fillColor=none;resizable=1;rotatable=0;perimeter=centerPerimeter;snapToPoint=1;hachureGap=4;fontFamily=Architects Daughter;fontSource=https%3A%2F%2Ffonts.googleapis.com%2Fcss%3Ffamily%3DArchitects%2BDaughter;fontSize=20;fontColor=default;shadow=0;dashed=1;dashPattern=1 4;perimeterSpacing=111;strokeWidth=1;" parent="P8y_Ckll9Wc9_24YeqWu-90" vertex="1">
          <mxGeometry x="270" y="670" width="20" height="20" as="geometry" />
        </mxCell>
        <mxCell id="4wTf7BR3b66dO-QI67y8-202" value="" style="shape=waypoint;fillStyle=solid;size=6;pointerEvents=1;points=[];fillColor=none;resizable=1;rotatable=0;perimeter=centerPerimeter;snapToPoint=1;hachureGap=4;fontFamily=Architects Daughter;fontSource=https%3A%2F%2Ffonts.googleapis.com%2Fcss%3Ffamily%3DArchitects%2BDaughter;fontSize=20;fontColor=default;shadow=0;dashed=1;dashPattern=1 4;perimeterSpacing=111;" parent="P8y_Ckll9Wc9_24YeqWu-90" vertex="1">
          <mxGeometry x="270" y="510" width="20" height="20" as="geometry" />
        </mxCell>
        <mxCell id="4wTf7BR3b66dO-QI67y8-212" value="" style="shape=waypoint;fillStyle=solid;size=6;pointerEvents=1;points=[];fillColor=none;resizable=1;rotatable=0;perimeter=centerPerimeter;snapToPoint=1;hachureGap=4;fontFamily=Architects Daughter;fontSource=https%3A%2F%2Ffonts.googleapis.com%2Fcss%3Ffamily%3DArchitects%2BDaughter;fontSize=20;fontColor=default;shadow=0;dashed=1;dashPattern=1 4;perimeterSpacing=111;" parent="P8y_Ckll9Wc9_24YeqWu-90" vertex="1">
          <mxGeometry x="390" y="730" width="20" height="20" as="geometry" />
        </mxCell>
        <mxCell id="4wTf7BR3b66dO-QI67y8-213" value="" style="shape=waypoint;fillStyle=solid;size=6;pointerEvents=1;points=[];fillColor=none;resizable=1;rotatable=0;perimeter=centerPerimeter;snapToPoint=1;hachureGap=4;fontFamily=Architects Daughter;fontSource=https%3A%2F%2Ffonts.googleapis.com%2Fcss%3Ffamily%3DArchitects%2BDaughter;fontSize=20;fontColor=default;shadow=0;dashed=1;dashPattern=1 4;perimeterSpacing=111;" parent="P8y_Ckll9Wc9_24YeqWu-90" vertex="1">
          <mxGeometry x="320" y="730" width="20" height="20" as="geometry" />
        </mxCell>
        <mxCell id="4wTf7BR3b66dO-QI67y8-208" value="" style="shape=waypoint;fillStyle=solid;size=6;pointerEvents=1;points=[];fillColor=none;resizable=1;rotatable=0;perimeter=centerPerimeter;snapToPoint=1;hachureGap=4;fontFamily=Architects Daughter;fontSource=https%3A%2F%2Ffonts.googleapis.com%2Fcss%3Ffamily%3DArchitects%2BDaughter;fontSize=20;fontColor=default;shadow=0;dashed=1;dashPattern=1 4;perimeterSpacing=111;" parent="P8y_Ckll9Wc9_24YeqWu-90" vertex="1">
          <mxGeometry x="250" y="870" width="20" height="20" as="geometry" />
        </mxCell>
        <mxCell id="4wTf7BR3b66dO-QI67y8-210" value="" style="shape=waypoint;fillStyle=solid;size=6;pointerEvents=1;points=[];fillColor=none;resizable=1;rotatable=0;perimeter=centerPerimeter;snapToPoint=1;hachureGap=4;fontFamily=Architects Daughter;fontSource=https%3A%2F%2Ffonts.googleapis.com%2Fcss%3Ffamily%3DArchitects%2BDaughter;fontSize=20;fontColor=default;shadow=0;dashed=1;dashPattern=1 4;perimeterSpacing=111;" parent="P8y_Ckll9Wc9_24YeqWu-90" vertex="1">
          <mxGeometry x="390" y="870" width="20" height="20" as="geometry" />
        </mxCell>
        <mxCell id="4wTf7BR3b66dO-QI67y8-214" value="" style="shape=waypoint;fillStyle=solid;size=6;pointerEvents=1;points=[];fillColor=none;resizable=1;rotatable=0;perimeter=centerPerimeter;snapToPoint=1;hachureGap=4;fontFamily=Architects Daughter;fontSource=https%3A%2F%2Ffonts.googleapis.com%2Fcss%3Ffamily%3DArchitects%2BDaughter;fontSize=20;fontColor=default;shadow=0;dashed=1;dashPattern=1 4;perimeterSpacing=111;" parent="P8y_Ckll9Wc9_24YeqWu-90" vertex="1">
          <mxGeometry x="180" y="730" width="20" height="20" as="geometry" />
        </mxCell>
        <mxCell id="4wTf7BR3b66dO-QI67y8-191" value="" style="shape=waypoint;fillStyle=solid;size=6;pointerEvents=1;points=[];fillColor=none;resizable=1;rotatable=0;perimeter=centerPerimeter;snapToPoint=1;hachureGap=4;fontFamily=Architects Daughter;fontSource=https%3A%2F%2Ffonts.googleapis.com%2Fcss%3Ffamily%3DArchitects%2BDaughter;fontSize=20;fontColor=default;shadow=0;dashed=1;dashPattern=1 4;perimeterSpacing=111;" parent="P8y_Ckll9Wc9_24YeqWu-90" vertex="1">
          <mxGeometry x="270" y="800" width="20" height="20" as="geometry" />
        </mxCell>
        <mxCell id="4wTf7BR3b66dO-QI67y8-224" value="" style="shape=waypoint;fillStyle=solid;size=6;pointerEvents=1;points=[];fillColor=none;resizable=1;rotatable=0;perimeter=centerPerimeter;snapToPoint=1;hachureGap=4;fontFamily=Architects Daughter;fontSource=https%3A%2F%2Ffonts.googleapis.com%2Fcss%3Ffamily%3DArchitects%2BDaughter;fontSize=20;fontColor=default;shadow=0;dashed=1;dashPattern=1 4;perimeterSpacing=111;" parent="P8y_Ckll9Wc9_24YeqWu-90" vertex="1">
          <mxGeometry x="250" y="250" width="20" height="20" as="geometry" />
        </mxCell>
        <mxCell id="4wTf7BR3b66dO-QI67y8-220" value="" style="shape=waypoint;fillStyle=solid;size=6;pointerEvents=1;points=[];fillColor=none;resizable=1;rotatable=0;perimeter=centerPerimeter;snapToPoint=1;hachureGap=4;fontFamily=Architects Daughter;fontSource=https%3A%2F%2Ffonts.googleapis.com%2Fcss%3Ffamily%3DArchitects%2BDaughter;fontSize=20;fontColor=default;shadow=0;dashed=1;dashPattern=1 4;perimeterSpacing=111;" parent="P8y_Ckll9Wc9_24YeqWu-90" vertex="1">
          <mxGeometry x="250" y="690" width="20" height="20" as="geometry" />
        </mxCell>
        <mxCell id="4wTf7BR3b66dO-QI67y8-222" value="" style="shape=waypoint;fillStyle=solid;size=6;pointerEvents=1;points=[];fillColor=none;resizable=1;rotatable=0;perimeter=centerPerimeter;snapToPoint=1;hachureGap=4;fontFamily=Architects Daughter;fontSource=https%3A%2F%2Ffonts.googleapis.com%2Fcss%3Ffamily%3DArchitects%2BDaughter;fontSize=20;fontColor=default;shadow=0;dashed=1;dashPattern=1 4;perimeterSpacing=111;" parent="P8y_Ckll9Wc9_24YeqWu-90" vertex="1">
          <mxGeometry x="250" y="640" width="20" height="20" as="geometry" />
        </mxCell>
        <mxCell id="4wTf7BR3b66dO-QI67y8-218" value="" style="shape=waypoint;fillStyle=solid;size=6;pointerEvents=1;points=[];fillColor=none;resizable=1;rotatable=0;perimeter=centerPerimeter;snapToPoint=1;hachureGap=4;fontFamily=Architects Daughter;fontSource=https%3A%2F%2Ffonts.googleapis.com%2Fcss%3Ffamily%3DArchitects%2BDaughter;fontSize=20;fontColor=default;shadow=0;dashed=1;dashPattern=1 4;perimeterSpacing=111;" parent="P8y_Ckll9Wc9_24YeqWu-90" vertex="1">
          <mxGeometry x="250" y="780" width="20" height="20" as="geometry" />
        </mxCell>
      </root>
    </mxGraphModel>
  </diagram>
  <diagram name="tcp" id="onETi5prbbMaYWHy8T5J">
    <mxGraphModel dx="1068" dy="651" grid="1" gridSize="10" guides="1" tooltips="1" connect="1" arrows="1" fold="1" page="1" pageScale="1" pageWidth="850" pageHeight="1100" background="none" math="1" shadow="1">
      <root>
        <mxCell id="RTqUCXjV9ranWYJAu2tO-0" />
        <mxCell id="RTqUCXjV9ranWYJAu2tO-1" value="OSI Layers" style="" parent="RTqUCXjV9ranWYJAu2tO-0" />
        <UserObject label="Layer 7&lt;br style=&quot;font-size: 16px;&quot;&gt;Application" tags="L7" id="RTqUCXjV9ranWYJAu2tO-2">
          <mxCell style="rounded=1;whiteSpace=wrap;html=1;shadow=0;swimlaneLine=1;fillColor=#fa5252;fontColor=#000000;strokeColor=none;glass=0;fillStyle=hachure;gradientDirection=east;sketch=1;curveFitting=1;jiggle=1;align=left;verticalAlign=top;fontFamily=Kalam;fontSource=https%3A%2F%2Ffonts.googleapis.com%2Fcss%3Ffamily%3DKalam;movable=1;resizable=1;rotatable=1;deletable=1;editable=1;connectable=1;backgroundOutline=0;fixDash=0;metaEdit=0;fontSize=16;horizontal=1;labelPosition=center;verticalLabelPosition=middle;spacing=6;spacingTop=6;strokeWidth=0.25;comic=0;snapToPoint=0;hachureGap=2;container=1;collapsible=0;dropTarget=1;fillWeight=-1;hachureAngle=-41;simplification=0;fontStyle=0;labelBackgroundColor=none;labelBorderColor=none;spacingRight=0;recursiveResize=0;" parent="RTqUCXjV9ranWYJAu2tO-1" vertex="1">
            <mxGeometry y="30" width="770" height="80" as="geometry" />
          </mxCell>
        </UserObject>
        <mxCell id="S1g-FRACnewnE2eSd2Cl-0" value="high level protocols facilitating the network access of user-facing applications and services" style="text;strokeColor=none;fillColor=none;html=1;align=left;verticalAlign=top;whiteSpace=wrap;rounded=0;fontSize=16;fontFamily=Kalam;fontColor=default;fontSource=https%3A%2F%2Ffonts.googleapis.com%2Fcss%3Ffamily%3DKalam;" parent="RTqUCXjV9ranWYJAu2tO-2" vertex="1">
          <mxGeometry x="100" y="10" width="390" height="80" as="geometry" />
        </mxCell>
        <UserObject label="Layer 6&lt;br style=&quot;font-size: 16px;&quot;&gt;Presentation" tags="L6" id="RTqUCXjV9ranWYJAu2tO-3">
          <mxCell style="rounded=1;whiteSpace=wrap;html=1;shadow=0;swimlaneLine=1;fillColor=#be4bdb;fontColor=#000000;strokeColor=none;glass=0;fillStyle=hachure;gradientDirection=east;sketch=1;curveFitting=1;jiggle=1;align=left;verticalAlign=top;fontFamily=Kalam;fontSource=https%3A%2F%2Ffonts.googleapis.com%2Fcss%3Ffamily%3DKalam;movable=1;resizable=1;rotatable=1;deletable=1;editable=1;connectable=1;backgroundOutline=0;fixDash=0;metaEdit=0;spacingTop=6;spacing=6;fontSize=16;comic=0;snapToPoint=0;hachureGap=2;container=1;collapsible=0;fillWeight=-1;hachureAngle=-41;simplification=0;fontStyle=0;strokeWidth=0.25;spacingRight=0;dropTarget=1;recursiveResize=0;" parent="RTqUCXjV9ranWYJAu2tO-1" vertex="1">
            <mxGeometry y="110" width="770" height="60" as="geometry" />
          </mxCell>
        </UserObject>
        <mxCell id="RVRi0FHdcS4LNddHadgT-5" value="&lt;span dir=&quot;ltr&quot; role=&quot;presentation&quot; style=&quot;left: 35.59%; top: 46.08%; font-size: 16px; transform: scaleX(0.95014);&quot;&gt;data representation, e.g. handles&amp;nbsp;&lt;/span&gt;&lt;span dir=&quot;ltr&quot; role=&quot;presentation&quot; style=&quot;left: 18.19%; top: 47.69%; font-size: 16px; transform: scaleX(0.962961);&quot;&gt;encoding, compression, encryption&lt;/span&gt;" style="text;whiteSpace=wrap;html=1;fontSize=16;fontFamily=Kalam;fontColor=default;fontSource=https%3A%2F%2Ffonts.googleapis.com%2Fcss%3Ffamily%3DKalam;" parent="RTqUCXjV9ranWYJAu2tO-3" vertex="1">
          <mxGeometry x="100" y="10" width="430" height="50" as="geometry" />
        </mxCell>
        <UserObject label="Layer 5&lt;br style=&quot;font-size: 16px;&quot;&gt;Session" tags="L5" id="RTqUCXjV9ranWYJAu2tO-4">
          <mxCell style="rounded=1;whiteSpace=wrap;html=1;shadow=0;swimlaneLine=1;fillColor=#fd7e14;fontColor=#000000;strokeColor=none;glass=0;fillStyle=hachure;gradientDirection=east;sketch=1;curveFitting=1;jiggle=1;align=left;verticalAlign=top;fontFamily=Kalam;fontSource=https%3A%2F%2Ffonts.googleapis.com%2Fcss%3Ffamily%3DKalam;movable=1;resizable=1;rotatable=1;deletable=1;editable=1;connectable=1;backgroundOutline=0;fixDash=0;metaEdit=0;fontSize=16;spacing=6;spacingTop=6;comic=0;snapToPoint=0;hachureGap=2;container=1;collapsible=0;fillWeight=-1;hachureAngle=-41;simplification=0;fontStyle=0;strokeWidth=0.25;spacingRight=0;dropTarget=1;recursiveResize=0;" parent="RTqUCXjV9ranWYJAu2tO-1" vertex="1">
            <mxGeometry y="170" width="770" height="60" as="geometry" />
          </mxCell>
        </UserObject>
        <mxCell id="RVRi0FHdcS4LNddHadgT-6" value="&lt;span dir=&quot;ltr&quot; role=&quot;presentation&quot; style=&quot;left: 30.59%; top: 50.11%; font-size: 16px; transform: scaleX(0.979495);&quot;&gt;session setup, management, tear-down, authentication, authorization&lt;/span&gt;" style="text;whiteSpace=wrap;html=1;fontSize=16;fontFamily=Kalam;fontColor=default;fontSource=https%3A%2F%2Ffonts.googleapis.com%2Fcss%3Ffamily%3DKalam;" parent="RTqUCXjV9ranWYJAu2tO-4" vertex="1">
          <mxGeometry x="100" width="430" height="50" as="geometry" />
        </mxCell>
        <UserObject label="Layer 4&lt;br style=&quot;font-size: 16px;&quot;&gt;Transport" tags="L4" id="RTqUCXjV9ranWYJAu2tO-5">
          <mxCell style="rounded=1;whiteSpace=wrap;html=1;shadow=0;swimlaneLine=1;fillColor=#40c057;fontColor=#000000;strokeColor=none;glass=0;fillStyle=hachure;gradientDirection=east;sketch=1;curveFitting=1;jiggle=1;align=left;verticalAlign=top;fontFamily=Kalam;fontSource=https%3A%2F%2Ffonts.googleapis.com%2Fcss%3Ffamily%3DKalam;movable=1;resizable=1;rotatable=1;deletable=1;editable=1;connectable=1;backgroundOutline=0;fixDash=0;metaEdit=0;fontSize=16;spacing=6;spacingTop=6;comic=0;snapToPoint=0;hachureGap=2;container=1;collapsible=0;fillWeight=-1;hachureAngle=-41;simplification=0;fontStyle=0;strokeWidth=0.25;spacingRight=0;dropTarget=1;recursiveResize=0;" parent="RTqUCXjV9ranWYJAu2tO-1" vertex="1">
            <mxGeometry y="230" width="770" height="80" as="geometry" />
          </mxCell>
        </UserObject>
        <mxCell id="RVRi0FHdcS4LNddHadgT-4" value="&lt;span dir=&quot;ltr&quot; role=&quot;presentation&quot; style=&quot;left: 32.19%; top: 52.52%; font-size: 16px;&quot;&gt; &lt;/span&gt;&lt;span dir=&quot;ltr&quot; role=&quot;presentation&quot; style=&quot;left: 33.11%; top: 52.52%; font-size: 16px; transform: scaleX(1.04881);&quot;&gt;transmission of variable length data over a network with specific delivery guarantees&lt;/span&gt;&lt;span dir=&quot;ltr&quot; role=&quot;presentation&quot; style=&quot;left: 18.19%; top: 54.13%; font-size: 16px; transform: scaleX(0.979941);&quot;&gt;, e.g.&amp;nbsp; handles ports, connections, packet fragmentation&lt;/span&gt;" style="text;whiteSpace=wrap;html=1;fontSize=16;fontFamily=Kalam;fontColor=default;fontSource=https%3A%2F%2Ffonts.googleapis.com%2Fcss%3Ffamily%3DKalam;" parent="RTqUCXjV9ranWYJAu2tO-5" vertex="1">
          <mxGeometry x="100" y="10" width="430" height="70" as="geometry" />
        </mxCell>
        <UserObject label="Transport&lt;br style=&quot;font-size: 16px;&quot;&gt;Layer" tags="L1" id="YgaQCrEQrOvV3wjsoiL2-11">
          <mxCell style="rounded=1;whiteSpace=wrap;html=1;shadow=0;swimlaneLine=1;fillColor=#008a00;strokeColor=#005700;glass=0;fillStyle=hachure;gradientDirection=east;sketch=1;curveFitting=1;jiggle=1;align=right;verticalAlign=top;fontFamily=Kalam;fontSource=https%3A%2F%2Ffonts.googleapis.com%2Fcss%3Ffamily%3DKalam;movable=1;resizable=1;rotatable=1;deletable=1;editable=1;connectable=1;backgroundOutline=0;fixDash=0;metaEdit=0;locked=0;fontSize=16;spacing=6;spacingTop=6;comic=0;snapToPoint=0;hachureGap=2;container=1;collapsible=0;fillWeight=-1;hachureAngle=45;simplification=0;fontStyle=0;strokeWidth=0.25;spacingRight=0;recursiveResize=0;fontColor=#030303;" parent="RTqUCXjV9ranWYJAu2tO-5" vertex="1">
            <mxGeometry x="530" width="320" height="80" as="geometry" />
          </mxCell>
        </UserObject>
        <UserObject label="TCP" tags="L4 Kernel" id="RTqUCXjV9ranWYJAu2tO-30">
          <mxCell style="rounded=1;whiteSpace=wrap;html=1;fillColor=#e3c800;fontFamily=Kalam;fontSource=https%3A%2F%2Ffonts.googleapis.com%2Fcss%3Ffamily%3DKalam;strokeColor=#B09500;fontColor=#000000;movable=1;resizable=1;rotatable=1;deletable=1;editable=1;connectable=1;backgroundOutline=0;container=0;fixDash=0;metaEdit=0;fontSize=16;shadow=1;" parent="YgaQCrEQrOvV3wjsoiL2-11" vertex="1">
            <mxGeometry x="70" y="20" width="40" height="20" as="geometry" />
          </mxCell>
        </UserObject>
        <UserObject label="UDP" tags="L4 Kernel" id="RTqUCXjV9ranWYJAu2tO-32">
          <mxCell style="rounded=1;whiteSpace=wrap;html=1;fillColor=#e3c800;fontFamily=Kalam;fontSource=https%3A%2F%2Ffonts.googleapis.com%2Fcss%3Ffamily%3DKalam;strokeColor=#B09500;fontColor=#000000;movable=1;resizable=1;rotatable=1;deletable=1;editable=1;connectable=1;backgroundOutline=0;container=0;fixDash=0;metaEdit=0;fontSize=16;shadow=1;" parent="YgaQCrEQrOvV3wjsoiL2-11" vertex="1">
            <mxGeometry x="9.999999999999979" y="20" width="40" height="20" as="geometry" />
          </mxCell>
        </UserObject>
        <mxCell id="RTqUCXjV9ranWYJAu2tO-146" value="" style="shape=waypoint;sketch=0;fillStyle=solid;size=6;pointerEvents=1;points=[];fillColor=none;resizable=0;rotatable=0;perimeter=centerPerimeter;snapToPoint=1;hachureGap=4;jiggle=2;curveFitting=1;fontFamily=Kalam;fontSource=https%3A%2F%2Ffonts.googleapis.com%2Fcss%3Ffamily%3DKalam;fontSize=16;strokeColor=default;" parent="YgaQCrEQrOvV3wjsoiL2-11" vertex="1">
          <mxGeometry x="50" y="50" width="20" height="20" as="geometry" />
        </mxCell>
        <UserObject label="" tags="DOT" id="RTqUCXjV9ranWYJAu2tO-106">
          <mxCell style="edgeStyle=elbowEdgeStyle;shape=connector;rounded=0;hachureGap=4;orthogonalLoop=0;jettySize=auto;html=1;dashed=1;labelBackgroundColor=default;strokeColor=default;fontFamily=Kalam;fontSource=https%3A%2F%2Ffonts.googleapis.com%2Fcss%3Ffamily%3DKalam;fontSize=16;fontColor=default;endArrow=none;endFill=0;dashPattern=1 1;strokeWidth=2;metaEdit=0;orthogonal=1;ignoreEdge=0;flowAnimation=0;backgroundOutline=0;fixDash=0;snapToPoint=0;startFill=1;anchorPointDirection=1;arcSize=0;perimeterSpacing=0;elbow=vertical;" parent="YgaQCrEQrOvV3wjsoiL2-11" source="RTqUCXjV9ranWYJAu2tO-30" target="RTqUCXjV9ranWYJAu2tO-146" edge="1">
            <mxGeometry relative="1" as="geometry">
              <mxPoint x="-30" y="150" as="targetPoint" />
              <Array as="points">
                <mxPoint x="90" y="60" />
                <mxPoint x="90" y="50" />
                <mxPoint x="100" y="60" />
                <mxPoint x="100" y="50" />
              </Array>
            </mxGeometry>
          </mxCell>
        </UserObject>
        <UserObject label="" tags="DOT" id="RTqUCXjV9ranWYJAu2tO-105">
          <mxCell style="edgeStyle=elbowEdgeStyle;shape=connector;rounded=0;hachureGap=4;orthogonalLoop=0;jettySize=auto;html=1;dashed=1;labelBackgroundColor=default;strokeColor=default;fontFamily=Kalam;fontSource=https%3A%2F%2Ffonts.googleapis.com%2Fcss%3Ffamily%3DKalam;fontSize=16;fontColor=default;endArrow=none;endFill=0;dashPattern=1 1;strokeWidth=2;metaEdit=0;orthogonal=1;ignoreEdge=0;flowAnimation=0;backgroundOutline=0;fixDash=0;snapToPoint=0;startFill=1;anchorPointDirection=1;arcSize=0;perimeterSpacing=0;elbow=vertical;exitX=0.5;exitY=1;exitDx=0;exitDy=0;" parent="YgaQCrEQrOvV3wjsoiL2-11" source="RTqUCXjV9ranWYJAu2tO-32" target="RTqUCXjV9ranWYJAu2tO-146" edge="1">
            <mxGeometry relative="1" as="geometry">
              <mxPoint x="-79.99000000000001" y="151.77800000000002" as="targetPoint" />
              <Array as="points">
                <mxPoint x="30" y="60" />
                <mxPoint x="40" y="50" />
                <mxPoint x="50" y="55" />
              </Array>
            </mxGeometry>
          </mxCell>
        </UserObject>
        <UserObject label="Layer 3&lt;br style=&quot;font-size: 16px;&quot;&gt;Network" tags="L3" id="RTqUCXjV9ranWYJAu2tO-6">
          <mxCell style="rounded=1;whiteSpace=wrap;html=1;shadow=0;swimlaneLine=1;fillColor=#228be6;fontColor=#000000;strokeColor=none;glass=0;fillStyle=hachure;gradientDirection=east;sketch=1;curveFitting=1;jiggle=1;align=left;verticalAlign=top;fontFamily=Kalam;fontSource=https%3A%2F%2Ffonts.googleapis.com%2Fcss%3Ffamily%3DKalam;movable=1;resizable=1;rotatable=1;deletable=1;editable=1;connectable=1;backgroundOutline=0;fixDash=0;metaEdit=0;fontSize=16;spacing=6;spacingTop=6;comic=0;snapToPoint=0;hachureGap=2;container=1;collapsible=0;dropTarget=1;perimeter=centerPerimeter;portConstraint=west;portConstraintRotation=1;fillWeight=-1;hachureAngle=-41;simplification=0;fontStyle=0;strokeWidth=0.25;spacingRight=0;recursiveResize=0;" parent="RTqUCXjV9ranWYJAu2tO-1" vertex="1">
            <mxGeometry y="310" width="770" height="80" as="geometry" />
          </mxCell>
        </UserObject>
        <mxCell id="RVRi0FHdcS4LNddHadgT-1" value="transmission of data packets between two nodes, routed via a path of intermediate nodes, e.g. handles logical addressing,&amp;nbsp;&lt;span dir=&quot;ltr&quot; role=&quot;presentation&quot; style=&quot;left: 13.61%; top: 60.57%; font-size: 16px; transform: scaleX(1.03033);&quot;&gt;path finding&lt;/span&gt;" style="text;strokeColor=none;fillColor=none;html=1;align=left;verticalAlign=top;whiteSpace=wrap;rounded=0;fontSize=16;fontFamily=Kalam;fontColor=default;fontSource=https%3A%2F%2Ffonts.googleapis.com%2Fcss%3Ffamily%3DKalam;" parent="RTqUCXjV9ranWYJAu2tO-6" vertex="1">
          <mxGeometry x="100" y="10" width="430" height="70" as="geometry" />
        </mxCell>
        <UserObject label="Internet &lt;br style=&quot;font-size: 16px;&quot;&gt;Layer" tags="L1" id="YgaQCrEQrOvV3wjsoiL2-8">
          <mxCell style="rounded=1;whiteSpace=wrap;html=1;shadow=0;swimlaneLine=1;fillColor=#0050ef;strokeColor=#001DBC;glass=0;fillStyle=hachure;gradientDirection=east;sketch=1;curveFitting=1;jiggle=1;align=right;verticalAlign=top;fontFamily=Kalam;fontSource=https%3A%2F%2Ffonts.googleapis.com%2Fcss%3Ffamily%3DKalam;movable=1;resizable=1;rotatable=1;deletable=1;editable=1;connectable=1;backgroundOutline=0;fixDash=0;metaEdit=0;locked=0;fontSize=16;spacing=6;spacingTop=6;comic=0;snapToPoint=0;hachureGap=2;container=1;collapsible=0;fillWeight=-1;hachureAngle=45;simplification=0;fontStyle=0;strokeWidth=0.25;spacingRight=0;recursiveResize=0;fontColor=#0F0F0F;" parent="RTqUCXjV9ranWYJAu2tO-6" vertex="1">
            <mxGeometry x="530" width="320" height="80" as="geometry" />
          </mxCell>
        </UserObject>
        <UserObject label="ICMP" tags="L3 Kernel" id="RTqUCXjV9ranWYJAu2tO-28">
          <mxCell style="rounded=1;whiteSpace=wrap;html=1;fillColor=#e3c800;fontFamily=Kalam;fontSource=https%3A%2F%2Ffonts.googleapis.com%2Fcss%3Ffamily%3DKalam;strokeColor=#B09500;fontColor=#000000;movable=1;resizable=1;rotatable=1;deletable=1;editable=1;connectable=1;backgroundOutline=0;container=0;fixDash=0;metaEdit=0;fontSize=16;shadow=1;" parent="YgaQCrEQrOvV3wjsoiL2-8" vertex="1">
            <mxGeometry x="170" y="30" width="50" height="20" as="geometry" />
          </mxCell>
        </UserObject>
        <UserObject label="IP" tags="L3 Kernel" id="RTqUCXjV9ranWYJAu2tO-29">
          <mxCell style="rounded=1;whiteSpace=wrap;html=1;fillColor=#e3c800;fontFamily=Kalam;fontSource=https%3A%2F%2Ffonts.googleapis.com%2Fcss%3Ffamily%3DKalam;strokeColor=#B09500;fontColor=#000000;movable=1;resizable=1;rotatable=1;deletable=1;editable=1;connectable=1;backgroundOutline=0;container=0;fixDash=0;metaEdit=0;fontSize=16;shadow=1;" parent="YgaQCrEQrOvV3wjsoiL2-8" vertex="1">
            <mxGeometry x="40" y="30" width="40" height="20" as="geometry" />
          </mxCell>
        </UserObject>
        <UserObject label="IPSec" tags="Kernel L3" id="RTqUCXjV9ranWYJAu2tO-27">
          <mxCell style="rounded=1;whiteSpace=wrap;html=1;fillColor=#e3c800;fontFamily=Kalam;fontSource=https%3A%2F%2Ffonts.googleapis.com%2Fcss%3Ffamily%3DKalam;strokeColor=#B09500;fontColor=#000000;movable=1;resizable=1;rotatable=1;deletable=1;editable=1;connectable=1;backgroundOutline=0;container=0;fixDash=0;metaEdit=0;fontSize=16;shadow=1;" parent="YgaQCrEQrOvV3wjsoiL2-8" vertex="1">
            <mxGeometry x="110" y="30" width="50" height="20" as="geometry" />
          </mxCell>
        </UserObject>
        <UserObject label="" tags="DOT" id="RTqUCXjV9ranWYJAu2tO-92">
          <mxCell style="edgeStyle=elbowEdgeStyle;shape=connector;rounded=0;hachureGap=4;orthogonalLoop=0;jettySize=auto;html=1;dashed=1;dashPattern=1 1;labelBackgroundColor=default;strokeColor=default;fontFamily=Kalam;fontSource=https%3A%2F%2Ffonts.googleapis.com%2Fcss%3Ffamily%3DKalam;fontSize=16;fontColor=default;endArrow=classicThin;endFill=1;strokeWidth=2;movable=1;resizable=1;rotatable=1;deletable=1;editable=1;connectable=1;backgroundOutline=0;fixDash=0;metaEdit=0;orthogonal=1;ignoreEdge=0;flowAnimation=0;snapToPoint=1;startFill=1;anchorPointDirection=0;arcSize=0;perimeterSpacing=0;elbow=vertical;" parent="YgaQCrEQrOvV3wjsoiL2-8" source="RTqUCXjV9ranWYJAu2tO-27" target="RTqUCXjV9ranWYJAu2tO-29" edge="1">
            <mxGeometry relative="1" as="geometry">
              <mxPoint x="265" y="265" as="targetPoint" />
            </mxGeometry>
          </mxCell>
        </UserObject>
        <UserObject label="NAT" tags="L4 L3" id="RTqUCXjV9ranWYJAu2tO-31">
          <mxCell style="rounded=1;whiteSpace=wrap;html=1;fillColor=#647687;fontFamily=Kalam;fontSource=https%3A%2F%2Ffonts.googleapis.com%2Fcss%3Ffamily%3DKalam;strokeColor=#314354;fontColor=#ffffff;arcSize=19;movable=1;resizable=1;rotatable=1;deletable=1;editable=1;connectable=1;backgroundOutline=0;container=0;fixDash=0;metaEdit=0;fontSize=16;shadow=1;" parent="YgaQCrEQrOvV3wjsoiL2-8" vertex="1">
            <mxGeometry x="110" y="-20" width="50" height="30" as="geometry" />
          </mxCell>
        </UserObject>
        <UserObject label="Layer 2&lt;br style=&quot;font-size: 16px;&quot;&gt;Data link" tags="L2" id="RTqUCXjV9ranWYJAu2tO-7">
          <mxCell style="rounded=1;whiteSpace=wrap;html=1;shadow=0;swimlaneLine=1;fillColor=#fd7e14;fontColor=#000000;strokeColor=none;glass=0;fillStyle=hachure;gradientDirection=east;sketch=1;curveFitting=1;jiggle=1;align=left;verticalAlign=top;fontFamily=Kalam;fontSource=https%3A%2F%2Ffonts.googleapis.com%2Fcss%3Ffamily%3DKalam;movable=1;resizable=1;rotatable=1;deletable=1;editable=1;connectable=1;backgroundOutline=0;fixDash=0;metaEdit=0;fontSize=16;spacing=6;spacingTop=6;comic=0;snapToPoint=0;hachureGap=2;dropTarget=1;container=1;collapsible=0;fillWeight=-1;hachureAngle=-41;simplification=0;fontStyle=0;strokeWidth=0.25;spacingRight=0;recursiveResize=0;" parent="RTqUCXjV9ranWYJAu2tO-1" vertex="1">
            <mxGeometry y="390" width="770" height="60" as="geometry" />
          </mxCell>
        </UserObject>
        <mxCell id="S1g-FRACnewnE2eSd2Cl-2" value="transmission of data frames between two nodes connected via a physical layer" style="text;strokeColor=none;fillColor=none;html=1;align=left;verticalAlign=top;whiteSpace=wrap;rounded=0;fontSize=16;fontFamily=Kalam;fontColor=default;fontSource=https%3A%2F%2Ffonts.googleapis.com%2Fcss%3Ffamily%3DKalam;" parent="RTqUCXjV9ranWYJAu2tO-7" vertex="1">
          <mxGeometry x="100" y="10" width="430" height="50" as="geometry" />
        </mxCell>
        <UserObject label="Link &lt;br style=&quot;font-size: 16px;&quot;&gt;Layer" tags="L1" id="YgaQCrEQrOvV3wjsoiL2-1">
          <mxCell style="rounded=1;whiteSpace=wrap;html=1;shadow=0;swimlaneLine=1;fillColor=#6a00ff;strokeColor=#3700CC;glass=0;fillStyle=hachure;gradientDirection=east;sketch=1;curveFitting=1;jiggle=1;align=right;verticalAlign=top;fontFamily=Kalam;fontSource=https%3A%2F%2Ffonts.googleapis.com%2Fcss%3Ffamily%3DKalam;movable=1;resizable=1;rotatable=1;deletable=1;editable=1;connectable=1;backgroundOutline=0;fixDash=0;metaEdit=0;locked=0;fontSize=16;spacing=6;spacingTop=6;comic=0;snapToPoint=0;hachureGap=2;container=1;collapsible=0;fillWeight=-1;hachureAngle=45;simplification=0;fontStyle=0;strokeWidth=0.25;spacingRight=0;recursiveResize=0;fontColor=#303030;" parent="RTqUCXjV9ranWYJAu2tO-7" vertex="1">
            <mxGeometry x="530" width="320" height="120" as="geometry" />
          </mxCell>
        </UserObject>
        <UserObject label="Bluetooth" tags="Kernel L1" id="RTqUCXjV9ranWYJAu2tO-21">
          <mxCell style="rounded=1;whiteSpace=wrap;html=1;fillColor=#e3c800;fontFamily=Kalam;fontSource=https%3A%2F%2Ffonts.googleapis.com%2Fcss%3Ffamily%3DKalam;strokeColor=#B09500;fontColor=#000000;movable=1;resizable=1;rotatable=1;deletable=1;editable=1;connectable=1;backgroundOutline=0;container=0;fixDash=0;metaEdit=0;fontSize=16;shadow=1;" parent="YgaQCrEQrOvV3wjsoiL2-1" vertex="1">
            <mxGeometry x="150.00104477611944" y="40" width="68.95522388059702" height="40" as="geometry" />
          </mxCell>
        </UserObject>
        <UserObject label="Ethernet" tags="Kernel L1" id="RTqUCXjV9ranWYJAu2tO-22">
          <mxCell style="rounded=1;whiteSpace=wrap;html=1;fillColor=#e3c800;fontFamily=Kalam;fontSource=https%3A%2F%2Ffonts.googleapis.com%2Fcss%3Ffamily%3DKalam;strokeColor=#B09500;fontColor=#000000;movable=1;resizable=1;rotatable=1;deletable=1;editable=1;connectable=1;backgroundOutline=0;container=0;fixDash=0;metaEdit=0;fontSize=16;shadow=1;" parent="YgaQCrEQrOvV3wjsoiL2-1" vertex="1">
            <mxGeometry x="69.99507462686563" y="40" width="68.95522388059702" height="40" as="geometry" />
          </mxCell>
        </UserObject>
        <UserObject label="WiFi" tags="Kernel L1" id="RTqUCXjV9ranWYJAu2tO-23">
          <mxCell style="rounded=1;whiteSpace=wrap;html=1;fillColor=#e3c800;fontFamily=Kalam;fontSource=https%3A%2F%2Ffonts.googleapis.com%2Fcss%3Ffamily%3DKalam;strokeColor=#B09500;fontColor=#000000;movable=1;resizable=1;rotatable=1;deletable=1;editable=1;connectable=1;backgroundOutline=0;container=0;fixDash=0;metaEdit=0;fontSize=16;shadow=1;" parent="YgaQCrEQrOvV3wjsoiL2-1" vertex="1">
            <mxGeometry x="10.003411513859305" y="40" width="47.142857142857146" height="40" as="geometry" />
          </mxCell>
        </UserObject>
        <UserObject label="MAC" tags="Kernel L2" id="RTqUCXjV9ranWYJAu2tO-24">
          <mxCell style="rounded=1;whiteSpace=wrap;html=1;fillColor=#e3c800;fontFamily=Kalam;fontSource=https%3A%2F%2Ffonts.googleapis.com%2Fcss%3Ffamily%3DKalam;strokeColor=#B09500;fontColor=#000000;movable=1;resizable=1;rotatable=1;deletable=1;editable=1;connectable=1;backgroundOutline=0;container=0;fixDash=0;metaEdit=0;fontSize=16;shadow=1;" parent="YgaQCrEQrOvV3wjsoiL2-1" vertex="1">
            <mxGeometry x="90" y="10" width="40" height="20" as="geometry" />
          </mxCell>
        </UserObject>
        <UserObject label="Layer 1&lt;br style=&quot;font-size: 16px;&quot;&gt;Physical" tags="L1" id="RTqUCXjV9ranWYJAu2tO-8">
          <mxCell style="rounded=1;whiteSpace=wrap;html=1;shadow=0;swimlaneLine=1;fillColor=#868e96;fontColor=#000000;strokeColor=none;glass=0;fillStyle=hachure;gradientDirection=east;sketch=1;curveFitting=1;jiggle=1;align=left;verticalAlign=top;fontFamily=Kalam;fontSource=https%3A%2F%2Ffonts.googleapis.com%2Fcss%3Ffamily%3DKalam;movable=1;resizable=1;rotatable=1;deletable=1;editable=1;connectable=1;backgroundOutline=0;fixDash=0;metaEdit=0;locked=0;fontSize=16;spacing=6;spacingTop=6;comic=0;snapToPoint=0;hachureGap=2;container=1;collapsible=0;fillWeight=-1;hachureAngle=-41;simplification=0;fontStyle=0;strokeWidth=0.25;spacingRight=0;recursiveResize=0;" parent="RTqUCXjV9ranWYJAu2tO-1" vertex="1">
            <mxGeometry y="450" width="770" height="60" as="geometry" />
          </mxCell>
        </UserObject>
        <mxCell id="S1g-FRACnewnE2eSd2Cl-1" value="transmission of raw bits over a physical medium" style="text;strokeColor=none;fillColor=none;html=1;align=left;verticalAlign=top;whiteSpace=wrap;rounded=0;fontSize=16;fontFamily=Kalam;fontColor=default;fontSource=https%3A%2F%2Ffonts.googleapis.com%2Fcss%3Ffamily%3DKalam;" parent="RTqUCXjV9ranWYJAu2tO-8" vertex="1">
          <mxGeometry x="100" y="10" width="340" height="50" as="geometry" />
        </mxCell>
        <mxCell id="RTqUCXjV9ranWYJAu2tO-9" value="Types" style="" parent="RTqUCXjV9ranWYJAu2tO-0" />
        <mxCell id="RTqUCXjV9ranWYJAu2tO-13" value="Protocols" parent="RTqUCXjV9ranWYJAu2tO-0" />
        <mxCell id="YgaQCrEQrOvV3wjsoiL2-9" value="TCP/IP Model" parent="RTqUCXjV9ranWYJAu2tO-0" />
        <UserObject label="Application&lt;br style=&quot;font-size: 16px;&quot;&gt;Layer" tags="L1" id="YgaQCrEQrOvV3wjsoiL2-12">
          <mxCell style="rounded=1;whiteSpace=wrap;html=1;shadow=0;swimlaneLine=1;fillColor=#fad7ac;strokeColor=#b46504;glass=0;fillStyle=hachure;gradientDirection=east;sketch=1;curveFitting=1;jiggle=1;align=right;verticalAlign=top;fontFamily=Kalam;fontSource=https%3A%2F%2Ffonts.googleapis.com%2Fcss%3Ffamily%3DKalam;movable=1;resizable=1;rotatable=1;deletable=1;editable=1;connectable=1;backgroundOutline=0;fixDash=0;metaEdit=0;locked=0;fontSize=16;spacing=6;spacingTop=6;comic=0;snapToPoint=0;hachureGap=2;container=1;collapsible=0;fillWeight=-1;hachureAngle=45;simplification=0;fontStyle=0;strokeWidth=0.25;spacingRight=0;recursiveResize=0;" parent="YgaQCrEQrOvV3wjsoiL2-9" vertex="1">
            <mxGeometry x="530" y="30" width="320" height="200" as="geometry" />
          </mxCell>
        </UserObject>
        <UserObject label="TURN" tags="L7" id="RTqUCXjV9ranWYJAu2tO-17">
          <mxCell style="rounded=1;whiteSpace=wrap;html=1;fillColor=#647687;fontColor=#ffffff;strokeColor=#314354;fontFamily=Kalam;movable=1;resizable=1;rotatable=1;deletable=1;editable=1;connectable=1;backgroundOutline=0;container=0;fixDash=0;metaEdit=0;fontSize=16;portConstraint=east;snapToPoint=0;fontSource=https%3A%2F%2Ffonts.googleapis.com%2Fcss%3Ffamily%3DKalam;shadow=1;" parent="YgaQCrEQrOvV3wjsoiL2-12" vertex="1">
            <mxGeometry x="170" y="10" width="60" height="20" as="geometry" />
          </mxCell>
        </UserObject>
        <UserObject label="STUN" tags="L7" id="RTqUCXjV9ranWYJAu2tO-16">
          <mxCell style="rounded=1;whiteSpace=wrap;html=1;fillColor=#647687;fontColor=#ffffff;strokeColor=#314354;fontFamily=Kalam;movable=1;resizable=1;rotatable=1;deletable=1;editable=1;connectable=1;backgroundOutline=0;container=0;fixDash=0;metaEdit=0;fontSize=16;fontSource=https%3A%2F%2Ffonts.googleapis.com%2Fcss%3Ffamily%3DKalam;shadow=1;" parent="YgaQCrEQrOvV3wjsoiL2-12" vertex="1">
            <mxGeometry x="170" y="50" width="60" height="20" as="geometry" />
          </mxCell>
        </UserObject>
        <UserObject label="UPnP" tags="L7" id="RTqUCXjV9ranWYJAu2tO-15">
          <mxCell style="rounded=1;whiteSpace=wrap;html=1;fillColor=#647687;fontColor=#ffffff;strokeColor=#314354;fontFamily=Kalam;movable=1;resizable=1;rotatable=1;deletable=1;editable=1;connectable=1;backgroundOutline=0;container=0;fixDash=0;metaEdit=0;fontSize=16;fontSource=https%3A%2F%2Ffonts.googleapis.com%2Fcss%3Ffamily%3DKalam;shadow=1;" parent="YgaQCrEQrOvV3wjsoiL2-12" vertex="1">
            <mxGeometry x="100" y="50" width="60" height="20" as="geometry" />
          </mxCell>
        </UserObject>
        <UserObject label="TLS" tags="L6" id="RTqUCXjV9ranWYJAu2tO-36">
          <mxCell style="rounded=1;whiteSpace=wrap;html=1;fillColor=#e3c800;fontFamily=Kalam;fontSource=https%3A%2F%2Ffonts.googleapis.com%2Fcss%3Ffamily%3DKalam;strokeColor=#B09500;fontColor=#000000;movable=1;resizable=1;rotatable=1;deletable=1;editable=1;connectable=1;backgroundOutline=0;container=0;fixDash=0;metaEdit=0;fontSize=16;shadow=1;" parent="YgaQCrEQrOvV3wjsoiL2-12" vertex="1">
            <mxGeometry x="10.64" y="100" width="60" height="20" as="geometry" />
          </mxCell>
        </UserObject>
        <UserObject label="Noise" tags="L6" id="RTqUCXjV9ranWYJAu2tO-14">
          <mxCell style="rounded=1;whiteSpace=wrap;html=1;fillColor=#647687;fontColor=#ffffff;strokeColor=#314354;fontFamily=Kalam;movable=1;resizable=1;rotatable=1;deletable=1;editable=1;connectable=1;backgroundOutline=0;container=0;fixDash=0;metaEdit=0;fontSize=16;fontSource=https%3A%2F%2Ffonts.googleapis.com%2Fcss%3Ffamily%3DKalam;shadow=1;" parent="YgaQCrEQrOvV3wjsoiL2-12" vertex="1">
            <mxGeometry x="170" y="100" width="60" height="20" as="geometry" />
          </mxCell>
        </UserObject>
        <UserObject label="Sockets" tags="L6" id="RTqUCXjV9ranWYJAu2tO-38">
          <mxCell style="rounded=1;whiteSpace=wrap;html=1;fillColor=#647687;fontFamily=Kalam;fontSource=https%3A%2F%2Ffonts.googleapis.com%2Fcss%3Ffamily%3DKalam;strokeColor=#314354;fontColor=#ffffff;movable=1;resizable=1;rotatable=1;deletable=1;editable=1;connectable=1;backgroundOutline=0;container=0;fixDash=0;metaEdit=0;fontSize=16;shadow=1;" parent="YgaQCrEQrOvV3wjsoiL2-12" vertex="1">
            <mxGeometry x="10.64" y="160" width="60" height="20" as="geometry" />
          </mxCell>
        </UserObject>
        <UserObject label="DNS" tags="L7" id="RTqUCXjV9ranWYJAu2tO-35">
          <mxCell style="rounded=1;whiteSpace=wrap;html=1;fillColor=#e3c800;fontFamily=Kalam;fontSource=https%3A%2F%2Ffonts.googleapis.com%2Fcss%3Ffamily%3DKalam;strokeColor=#B09500;fontColor=#000000;movable=1;resizable=1;rotatable=1;deletable=1;editable=1;connectable=1;backgroundOutline=0;container=0;fixDash=0;metaEdit=0;fontSize=16;shadow=1;" parent="YgaQCrEQrOvV3wjsoiL2-12" vertex="1">
            <mxGeometry x="100" y="10" width="60" height="20" as="geometry" />
          </mxCell>
        </UserObject>
        <UserObject label="HTTPS" tags="L7" id="RTqUCXjV9ranWYJAu2tO-34">
          <mxCell style="rounded=1;whiteSpace=wrap;html=1;fillColor=#e3c800;fontFamily=Kalam;fontSource=https%3A%2F%2Ffonts.googleapis.com%2Fcss%3Ffamily%3DKalam;strokeColor=#B09500;fontColor=#000000;movable=1;resizable=1;rotatable=1;deletable=1;editable=1;connectable=1;backgroundOutline=0;container=0;fixDash=0;metaEdit=0;fontSize=16;shadow=1;" parent="YgaQCrEQrOvV3wjsoiL2-12" vertex="1">
            <mxGeometry x="10.64" y="10" width="60" height="20" as="geometry" />
          </mxCell>
        </UserObject>
        <UserObject label="" tags="DOT" id="RTqUCXjV9ranWYJAu2tO-135">
          <mxCell style="edgeStyle=orthogonalEdgeStyle;curved=1;rounded=0;orthogonalLoop=1;jettySize=auto;html=1;exitX=0;exitY=0.5;exitDx=0;exitDy=0;entryX=0;entryY=0.5;entryDx=0;entryDy=0;fontSize=16;startSize=6;endSize=6;endArrow=classicThin;fontFamily=Kalam;hachureGap=4;dashed=1;dashPattern=1 1;fontSource=https%3A%2F%2Ffonts.googleapis.com%2Fcss%3Ffamily%3DKalam;endFill=1;strokeWidth=2;startFill=1;arcSize=0;" parent="YgaQCrEQrOvV3wjsoiL2-12" source="RTqUCXjV9ranWYJAu2tO-34" target="RTqUCXjV9ranWYJAu2tO-36" edge="1">
            <mxGeometry relative="1" as="geometry" />
          </mxCell>
        </UserObject>
        <UserObject label="HTTP" tags="L7" id="RTqUCXjV9ranWYJAu2tO-33">
          <mxCell style="rounded=1;whiteSpace=wrap;html=1;fillColor=#e3c800;fontFamily=Kalam;fontSource=https%3A%2F%2Ffonts.googleapis.com%2Fcss%3Ffamily%3DKalam;strokeColor=#B09500;fontColor=#000000;movable=1;resizable=1;rotatable=1;deletable=1;editable=1;connectable=1;backgroundOutline=0;container=0;fixDash=0;metaEdit=0;fontSize=16;shadow=1;" parent="YgaQCrEQrOvV3wjsoiL2-12" vertex="1">
            <mxGeometry x="10.64" y="50" width="60" height="20" as="geometry" />
          </mxCell>
        </UserObject>
        <UserObject label="" tags="DOT" id="RTqUCXjV9ranWYJAu2tO-68">
          <mxCell style="edgeStyle=none;curved=1;rounded=0;orthogonalLoop=1;jettySize=auto;html=1;fontSize=16;startSize=6;endSize=6;endArrow=classicThin;fontFamily=Kalam;hachureGap=4;dashed=1;dashPattern=1 1;fontSource=https%3A%2F%2Ffonts.googleapis.com%2Fcss%3Ffamily%3DKalam;endFill=1;strokeWidth=2;startFill=1;arcSize=0;" parent="YgaQCrEQrOvV3wjsoiL2-12" source="RTqUCXjV9ranWYJAu2tO-34" target="RTqUCXjV9ranWYJAu2tO-33" edge="1">
            <mxGeometry relative="1" as="geometry">
              <mxPoint x="160.64" y="60" as="sourcePoint" />
              <mxPoint x="59.639999999999986" y="89" as="targetPoint" />
            </mxGeometry>
          </mxCell>
        </UserObject>
        <UserObject label="MIME" tags="L6" id="RTqUCXjV9ranWYJAu2tO-37">
          <mxCell style="rounded=1;whiteSpace=wrap;html=1;fillColor=#647687;fontFamily=Kalam;fontSource=https%3A%2F%2Ffonts.googleapis.com%2Fcss%3Ffamily%3DKalam;strokeColor=#314354;fontColor=#ffffff;movable=1;resizable=1;rotatable=1;deletable=1;editable=1;connectable=1;backgroundOutline=0;container=0;fixDash=0;metaEdit=0;fontSize=16;shadow=1;" parent="YgaQCrEQrOvV3wjsoiL2-12" vertex="1">
            <mxGeometry x="100" y="100" width="60" height="20" as="geometry" />
          </mxCell>
        </UserObject>
        <UserObject label="Cookies" tags="L6" id="A1NzPCWOjQ5FdaoQ-Jyu-14">
          <mxCell style="rounded=1;whiteSpace=wrap;html=1;fillColor=#647687;fontColor=#ffffff;strokeColor=#314354;fontFamily=Kalam;movable=1;resizable=1;rotatable=1;deletable=1;editable=1;connectable=1;backgroundOutline=0;container=0;fixDash=0;metaEdit=0;fontSize=16;fontSource=https%3A%2F%2Ffonts.googleapis.com%2Fcss%3Ffamily%3DKalam;shadow=1;" parent="YgaQCrEQrOvV3wjsoiL2-12" vertex="1">
            <mxGeometry x="100" y="160" width="60" height="20" as="geometry" />
          </mxCell>
        </UserObject>
        <mxCell id="vccciff3yIBG3zHQTHzS-2" style="edgeStyle=elbowEdgeStyle;shape=connector;rounded=0;hachureGap=4;orthogonalLoop=1;jettySize=auto;elbow=vertical;html=1;exitX=1.026;exitY=0.477;exitDx=0;exitDy=0;shadow=0;dashed=1;dashPattern=1 1;labelBackgroundColor=default;strokeColor=default;strokeWidth=2;fontFamily=Kalam;fontSource=https%3A%2F%2Ffonts.googleapis.com%2Fcss%3Ffamily%3DKalam;fontSize=16;fontColor=default;startFill=1;endArrow=none;endFill=0;startSize=3;endSize=3;fillColor=none;gradientColor=none;exitPerimeter=0;" parent="YgaQCrEQrOvV3wjsoiL2-12" source="RTqUCXjV9ranWYJAu2tO-36" target="vccciff3yIBG3zHQTHzS-0" edge="1">
          <mxGeometry relative="1" as="geometry" />
        </mxCell>
        <mxCell id="vccciff3yIBG3zHQTHzS-1" value="" style="edgeStyle=elbowEdgeStyle;rounded=0;orthogonalLoop=1;jettySize=auto;html=1;fontSize=16;startSize=8;endSize=6;endArrow=none;fontFamily=Kalam;hachureGap=4;dashed=1;dashPattern=1 1;fontSource=https%3A%2F%2Ffonts.googleapis.com%2Fcss%3Ffamily%3DKalam;endFill=0;strokeWidth=2;startFill=1;arcSize=0;elbow=vertical;orthogonal=1;entryDx=0;entryDy=0;" parent="YgaQCrEQrOvV3wjsoiL2-12" source="RTqUCXjV9ranWYJAu2tO-33" target="vccciff3yIBG3zHQTHzS-0" edge="1">
          <mxGeometry relative="1" as="geometry">
            <mxPoint x="50" y="110" as="sourcePoint" />
            <mxPoint x="100" y="280" as="targetPoint" />
            <Array as="points">
              <mxPoint x="80" y="60" />
              <mxPoint x="90" y="110" />
              <mxPoint x="90" y="100" />
              <mxPoint x="110" y="130" />
              <mxPoint x="110" y="120" />
            </Array>
          </mxGeometry>
        </mxCell>
        <mxCell id="vccciff3yIBG3zHQTHzS-0" value="" style="shape=waypoint;sketch=0;fillStyle=solid;size=6;pointerEvents=1;points=[];fillColor=none;resizable=0;rotatable=0;perimeter=centerPerimeter;snapToPoint=1;hachureGap=4;jiggle=2;curveFitting=1;fontFamily=Kalam;fontSource=https%3A%2F%2Ffonts.googleapis.com%2Fcss%3Ffamily%3DKalam;fontSize=16;strokeColor=default;" parent="YgaQCrEQrOvV3wjsoiL2-12" vertex="1">
          <mxGeometry x="80" y="100" width="20" height="20" as="geometry" />
        </mxCell>
        <UserObject label="Legend" tags="L1" id="A1NzPCWOjQ5FdaoQ-Jyu-20">
          <mxCell style="rounded=0;whiteSpace=wrap;html=1;shadow=0;swimlaneLine=1;glass=0;fillStyle=hachure;gradientDirection=east;sketch=1;curveFitting=1;jiggle=1;align=left;verticalAlign=top;fontFamily=Kalam;fontSource=https%3A%2F%2Ffonts.googleapis.com%2Fcss%3Ffamily%3DKalam;movable=1;resizable=1;rotatable=1;deletable=1;editable=1;connectable=1;backgroundOutline=0;fixDash=0;metaEdit=0;locked=0;fontSize=16;spacing=6;spacingTop=6;comic=0;snapToPoint=0;hachureGap=2;container=1;collapsible=0;fillWeight=-1;hachureAngle=45;simplification=0;fontStyle=0;strokeWidth=0.25;spacingRight=0;recursiveResize=0;" parent="YgaQCrEQrOvV3wjsoiL2-9" vertex="1">
            <mxGeometry y="510" width="850" height="50" as="geometry" />
          </mxCell>
        </UserObject>
        <UserObject label="&lt;span style=&quot;white-space: pre; font-size: 16px;&quot;&gt; &lt;/span&gt;" tags="Kernel L1" id="A1NzPCWOjQ5FdaoQ-Jyu-23">
          <mxCell style="rounded=1;whiteSpace=wrap;html=1;fillColor=#647687;fontFamily=Kalam;fontSource=https%3A%2F%2Ffonts.googleapis.com%2Fcss%3Ffamily%3DKalam;strokeColor=#314354;fontColor=#ffffff;movable=1;resizable=1;rotatable=1;deletable=1;editable=1;connectable=1;backgroundOutline=0;container=0;fixDash=0;metaEdit=0;fontSize=16;shadow=1;" parent="A1NzPCWOjQ5FdaoQ-Jyu-20" vertex="1">
            <mxGeometry x="450" y="10" width="40" height="20" as="geometry" />
          </mxCell>
        </UserObject>
        <UserObject label="" tags="Kernel L2" id="A1NzPCWOjQ5FdaoQ-Jyu-24">
          <mxCell style="rounded=1;whiteSpace=wrap;html=1;fillColor=#e3c800;fontFamily=Kalam;fontSource=https%3A%2F%2Ffonts.googleapis.com%2Fcss%3Ffamily%3DKalam;strokeColor=#B09500;fontColor=#000000;movable=1;resizable=1;rotatable=1;deletable=1;editable=1;connectable=1;backgroundOutline=0;container=0;fixDash=0;metaEdit=0;fontSize=16;shadow=1;" parent="A1NzPCWOjQ5FdaoQ-Jyu-20" vertex="1">
            <mxGeometry x="80" y="10" width="40" height="20" as="geometry" />
          </mxCell>
        </UserObject>
        <mxCell id="A1NzPCWOjQ5FdaoQ-Jyu-29" value="Core protocols of the Internet Protocol Suite (TCP/IP)" style="text;strokeColor=none;fillColor=none;html=1;align=left;verticalAlign=top;whiteSpace=wrap;rounded=0;fontSize=16;fontFamily=Kalam;fontColor=default;fontSource=https%3A%2F%2Ffonts.googleapis.com%2Fcss%3Ffamily%3DKalam;" parent="A1NzPCWOjQ5FdaoQ-Jyu-20" vertex="1">
          <mxGeometry x="140" width="280" height="50" as="geometry" />
        </mxCell>
        <mxCell id="A1NzPCWOjQ5FdaoQ-Jyu-30" value="Other protocols and concepts" style="text;strokeColor=none;fillColor=none;html=1;align=left;verticalAlign=top;whiteSpace=wrap;rounded=0;fontSize=16;fontFamily=Kalam;fontColor=default;fontSource=https%3A%2F%2Ffonts.googleapis.com%2Fcss%3Ffamily%3DKalam;" parent="A1NzPCWOjQ5FdaoQ-Jyu-20" vertex="1">
          <mxGeometry x="500" width="240" height="50" as="geometry" />
        </mxCell>
        <mxCell id="RTqUCXjV9ranWYJAu2tO-39" value="Overlays" style="" parent="RTqUCXjV9ranWYJAu2tO-0" visible="0" />
        <UserObject label="NetBird" tags="L3 P2P" id="RTqUCXjV9ranWYJAu2tO-40">
          <mxCell style="rounded=1;whiteSpace=wrap;html=1;fontFamily=Kalam;fontSource=https%3A%2F%2Ffonts.googleapis.com%2Fcss%3Ffamily%3DKalam;movable=1;resizable=1;rotatable=1;deletable=1;editable=1;connectable=1;backgroundOutline=0;container=0;fixDash=0;metaEdit=0;fontSize=16;expand=1;collapsible=0;dropTarget=1;fillColor=#b1ddf0;strokeColor=#10739e;shadow=1;" parent="RTqUCXjV9ranWYJAu2tO-39" vertex="1">
            <mxGeometry x="150" y="660" width="100" height="20" as="geometry" />
          </mxCell>
        </UserObject>
        <UserObject label="Tailscale" tags="L3 P2P" id="RTqUCXjV9ranWYJAu2tO-41">
          <mxCell style="rounded=1;whiteSpace=wrap;html=1;fontFamily=Kalam;fontSource=https%3A%2F%2Ffonts.googleapis.com%2Fcss%3Ffamily%3DKalam;movable=1;resizable=1;rotatable=1;deletable=1;editable=1;connectable=1;backgroundOutline=0;container=0;fixDash=0;metaEdit=0;fontSize=16;locked=0;fillColor=#b1ddf0;strokeColor=#10739e;shadow=1;" parent="RTqUCXjV9ranWYJAu2tO-39" vertex="1">
            <mxGeometry x="150" y="710" width="100" height="20" as="geometry" />
          </mxCell>
        </UserObject>
        <UserObject label="Nebula" tags="L3 P2P" id="RTqUCXjV9ranWYJAu2tO-42">
          <mxCell style="rounded=1;whiteSpace=wrap;html=1;fontFamily=Kalam;fontSource=https%3A%2F%2Ffonts.googleapis.com%2Fcss%3Ffamily%3DKalam;movable=1;resizable=1;rotatable=1;deletable=1;editable=1;connectable=1;backgroundOutline=0;container=0;fixDash=0;metaEdit=0;fontSize=16;fillColor=#b1ddf0;strokeColor=#10739e;shadow=1;" parent="RTqUCXjV9ranWYJAu2tO-39" vertex="1">
            <mxGeometry x="150" y="760" width="100" height="20" as="geometry" />
          </mxCell>
        </UserObject>
        <UserObject label="Tinc" tags="L2 P2P L3" id="RTqUCXjV9ranWYJAu2tO-43">
          <mxCell style="rounded=1;whiteSpace=wrap;html=1;fontFamily=Kalam;fontSource=https%3A%2F%2Ffonts.googleapis.com%2Fcss%3Ffamily%3DKalam;movable=1;resizable=1;rotatable=1;deletable=1;editable=1;connectable=1;backgroundOutline=0;container=0;fixDash=0;metaEdit=0;fontSize=16;expand=1;imageAspect=1;snapToPoint=1;fillColor=#b1ddf0;strokeColor=#10739e;shadow=1;" parent="RTqUCXjV9ranWYJAu2tO-39" vertex="1">
            <mxGeometry x="150" y="820" width="100" height="40" as="geometry" />
          </mxCell>
        </UserObject>
        <object label="OpenVPN" tags="S/C L1 L2" id="RTqUCXjV9ranWYJAu2tO-44">
          <mxCell style="rounded=1;whiteSpace=wrap;html=1;fontFamily=Kalam;fontSource=https%3A%2F%2Ffonts.googleapis.com%2Fcss%3Ffamily%3DKalam;movable=1;resizable=1;rotatable=1;deletable=1;editable=1;connectable=1;backgroundOutline=0;container=0;fixDash=0;metaEdit=0;fontSize=16;fillColor=#b1ddf0;strokeColor=#10739e;shadow=1;" parent="RTqUCXjV9ranWYJAu2tO-39" vertex="1">
            <mxGeometry x="580" y="820" width="80" height="40" as="geometry" />
          </mxCell>
        </object>
        <UserObject label="WebRTC" tags="L7 P2P" id="RTqUCXjV9ranWYJAu2tO-45">
          <mxCell style="rounded=1;whiteSpace=wrap;html=1;fontFamily=Kalam;fontSource=https%3A%2F%2Ffonts.googleapis.com%2Fcss%3Ffamily%3DKalam;movable=1;resizable=1;rotatable=1;deletable=1;editable=1;connectable=1;backgroundOutline=0;container=0;fixDash=0;metaEdit=0;fontSize=16;fillColor=#b1ddf0;strokeColor=#10739e;shadow=1;" parent="RTqUCXjV9ranWYJAu2tO-39" vertex="1">
            <mxGeometry x="150" y="280" width="100" height="20" as="geometry" />
          </mxCell>
        </UserObject>
        <UserObject label="TOR" tags="L7 P2P" id="RTqUCXjV9ranWYJAu2tO-46">
          <mxCell style="rounded=1;whiteSpace=wrap;html=1;fontFamily=Kalam;fontSource=https%3A%2F%2Ffonts.googleapis.com%2Fcss%3Ffamily%3DKalam;movable=1;resizable=1;rotatable=1;deletable=1;editable=1;connectable=1;backgroundOutline=0;container=0;fixDash=0;metaEdit=0;fontSize=16;fillColor=#b1ddf0;strokeColor=#10739e;shadow=1;" parent="RTqUCXjV9ranWYJAu2tO-39" vertex="1">
            <mxGeometry x="150" y="250" width="100" height="20" as="geometry" />
          </mxCell>
        </UserObject>
        <UserObject label="Ethereum" tags="L7 P2P" id="RTqUCXjV9ranWYJAu2tO-47">
          <mxCell style="rounded=1;whiteSpace=wrap;html=1;fontFamily=Kalam;fontSource=https%3A%2F%2Ffonts.googleapis.com%2Fcss%3Ffamily%3DKalam;movable=1;resizable=1;rotatable=1;deletable=1;editable=1;connectable=1;backgroundOutline=0;container=0;fixDash=0;metaEdit=0;fontSize=16;fillColor=#b1ddf0;strokeColor=#10739e;shadow=1;" parent="RTqUCXjV9ranWYJAu2tO-39" vertex="1">
            <mxGeometry x="150" y="220" width="100" height="20" as="geometry" />
          </mxCell>
        </UserObject>
        <UserObject label="IPFS" tags="L7 P2P" id="RTqUCXjV9ranWYJAu2tO-48">
          <mxCell style="rounded=1;whiteSpace=wrap;html=1;fontFamily=Kalam;fontSource=https%3A%2F%2Ffonts.googleapis.com%2Fcss%3Ffamily%3DKalam;movable=1;resizable=1;rotatable=1;deletable=1;editable=1;connectable=1;backgroundOutline=0;container=0;fixDash=0;metaEdit=0;fontSize=16;fillColor=#b1ddf0;strokeColor=#10739e;shadow=1;" parent="RTqUCXjV9ranWYJAu2tO-39" vertex="1">
            <mxGeometry x="150" y="190" width="100" height="20" as="geometry" />
          </mxCell>
        </UserObject>
        <UserObject label="BitTorrent" tags="L7 P2P" id="RTqUCXjV9ranWYJAu2tO-49">
          <mxCell style="rounded=1;whiteSpace=wrap;html=1;fontFamily=Kalam;fontSource=https%3A%2F%2Ffonts.googleapis.com%2Fcss%3Ffamily%3DKalam;movable=1;resizable=1;rotatable=1;deletable=1;editable=1;connectable=1;backgroundOutline=0;container=0;fixDash=0;metaEdit=0;fontSize=16;fillColor=#b1ddf0;strokeColor=#10739e;shadow=1;" parent="RTqUCXjV9ranWYJAu2tO-39" vertex="1">
            <mxGeometry x="150" y="160" width="100" height="20" as="geometry" />
          </mxCell>
        </UserObject>
        <UserObject label="OpenZiti" tags="L7 P2P" id="RTqUCXjV9ranWYJAu2tO-50">
          <mxCell style="rounded=1;whiteSpace=wrap;html=1;fontFamily=Kalam;fontSource=https%3A%2F%2Ffonts.googleapis.com%2Fcss%3Ffamily%3DKalam;movable=1;resizable=1;rotatable=1;deletable=1;editable=1;connectable=1;backgroundOutline=0;container=0;fixDash=0;metaEdit=0;fontSize=16;fillColor=#b1ddf0;strokeColor=#10739e;shadow=1;" parent="RTqUCXjV9ranWYJAu2tO-39" vertex="1">
            <mxGeometry x="150" y="130" width="100" height="20" as="geometry" />
          </mxCell>
        </UserObject>
        <UserObject label="FreeNet" tags="L7 P2P" id="RTqUCXjV9ranWYJAu2tO-51">
          <mxCell style="rounded=1;whiteSpace=wrap;html=1;fontFamily=Kalam;fontSource=https%3A%2F%2Ffonts.googleapis.com%2Fcss%3Ffamily%3DKalam;movable=1;resizable=1;rotatable=1;deletable=1;editable=1;connectable=1;backgroundOutline=0;container=0;fixDash=0;metaEdit=0;fontSize=16;fillColor=#b1ddf0;strokeColor=#10739e;shadow=1;" parent="RTqUCXjV9ranWYJAu2tO-39" vertex="1">
            <mxGeometry x="150" y="100" width="100" height="20" as="geometry" />
          </mxCell>
        </UserObject>
        <UserObject label="Ngrok" tags="L7 S/C" id="RTqUCXjV9ranWYJAu2tO-52">
          <mxCell style="rounded=1;whiteSpace=wrap;html=1;fontFamily=Kalam;fontSource=https%3A%2F%2Ffonts.googleapis.com%2Fcss%3Ffamily%3DKalam;movable=1;resizable=1;rotatable=1;deletable=1;editable=1;connectable=1;backgroundOutline=0;container=0;fixDash=0;metaEdit=0;fontSize=16;fillColor=#b1ddf0;strokeColor=#10739e;shadow=1;" parent="RTqUCXjV9ranWYJAu2tO-39" vertex="1">
            <mxGeometry x="580" y="200" width="50" height="20" as="geometry" />
          </mxCell>
        </UserObject>
        <object label="WireGuard" tags="Kernel L3" id="RTqUCXjV9ranWYJAu2tO-53">
          <mxCell style="rounded=1;whiteSpace=wrap;fontFamily=Kalam;fontSource=https%3A%2F%2Ffonts.googleapis.com%2Fcss%3Ffamily%3DKalam;movable=1;resizable=1;rotatable=1;deletable=1;editable=1;connectable=1;backgroundOutline=0;container=0;fixDash=0;metaEdit=0;fontSize=16;portConstraintRotation=0;dropTarget=0;autosize=1;glass=0;labelBorderColor=none;labelBackgroundColor=none;html=1;fillColor=#b1ddf0;strokeColor=#10739e;shadow=1;" parent="RTqUCXjV9ranWYJAu2tO-39" vertex="1">
            <mxGeometry x="325" y="720" width="90" height="30" as="geometry" />
          </mxCell>
        </object>
        <UserObject label="N2N" tags="L2 P2P" id="RTqUCXjV9ranWYJAu2tO-54">
          <mxCell style="rounded=1;whiteSpace=wrap;html=1;fontFamily=Kalam;fontSource=https%3A%2F%2Ffonts.googleapis.com%2Fcss%3Ffamily%3DKalam;movable=1;resizable=1;rotatable=1;deletable=1;editable=1;connectable=1;backgroundOutline=0;container=0;fixDash=0;metaEdit=0;fontSize=16;fillColor=#b1ddf0;strokeColor=#10739e;shadow=1;" parent="RTqUCXjV9ranWYJAu2tO-39" vertex="1">
            <mxGeometry x="150" y="900" width="100" height="20" as="geometry" />
          </mxCell>
        </UserObject>
        <mxCell id="RTqUCXjV9ranWYJAu2tO-20" value="TCP/IP" parent="RTqUCXjV9ranWYJAu2tO-0" />
        <mxCell id="YgaQCrEQrOvV3wjsoiL2-6" value="OSI Model" style="text;html=1;align=center;verticalAlign=middle;resizable=0;points=[];autosize=1;strokeColor=none;fillColor=none;fontSize=16;fontFamily=Kalam;fontColor=default;fontSource=https%3A%2F%2Ffonts.googleapis.com%2Fcss%3Ffamily%3DKalam;" parent="RTqUCXjV9ranWYJAu2tO-20" vertex="1">
          <mxGeometry width="90" height="30" as="geometry" />
        </mxCell>
        <mxCell id="YgaQCrEQrOvV3wjsoiL2-7" value="TCP/IP Model" style="text;html=1;align=center;verticalAlign=middle;resizable=0;points=[];autosize=1;strokeColor=none;fillColor=none;fontSize=16;fontFamily=Kalam;fontColor=default;fontSource=https%3A%2F%2Ffonts.googleapis.com%2Fcss%3Ffamily%3DKalam;" parent="RTqUCXjV9ranWYJAu2tO-20" vertex="1">
          <mxGeometry x="730" width="120" height="30" as="geometry" />
        </mxCell>
        <object label="Edges" id="RTqUCXjV9ranWYJAu2tO-55">
          <mxCell style="" parent="RTqUCXjV9ranWYJAu2tO-0" />
        </object>
        <UserObject label="" tags="DOT" id="RTqUCXjV9ranWYJAu2tO-67">
          <mxCell style="edgeStyle=none;curved=1;rounded=0;orthogonalLoop=1;jettySize=auto;html=1;fontSize=16;startSize=8;endSize=8;endArrow=classicThin;fontFamily=Architects Daughter;hachureGap=4;dashed=1;dashPattern=1 1;fontSource=https%3A%2F%2Ffonts.googleapis.com%2Fcss%3Ffamily%3DArchitects%2BDaughter;endFill=1;strokeWidth=2;startFill=1;arcSize=0;" parent="RTqUCXjV9ranWYJAu2tO-55" source="RTqUCXjV9ranWYJAu2tO-52" target="RTqUCXjV9ranWYJAu2tO-34" edge="1">
            <mxGeometry relative="1" as="geometry" />
          </mxCell>
        </UserObject>
        <UserObject label="" tags="Wires" id="RTqUCXjV9ranWYJAu2tO-70">
          <mxCell style="edgeStyle=orthogonalEdgeStyle;curved=1;rounded=1;orthogonalLoop=0;jettySize=auto;html=1;fontSize=12;sketch=1;curveFitting=-10;jiggle=2;disableMultiStroke=0;flowAnimation=0;simplification=1;endArrow=classic;endFill=1;endSize=4;strokeWidth=2;shadow=0;startFill=1;arcSize=1;fillOpacity=80;strokeOpacity=80;exitX=0;exitY=0.25;exitDx=0;exitDy=0;" parent="RTqUCXjV9ranWYJAu2tO-55" source="RTqUCXjV9ranWYJAu2tO-41" target="RTqUCXjV9ranWYJAu2tO-15" edge="1">
            <mxGeometry relative="1" as="geometry">
              <mxPoint x="220" y="670" as="sourcePoint" />
              <mxPoint x="220" y="307" as="targetPoint" />
              <Array as="points">
                <mxPoint x="140" y="715" />
                <mxPoint x="140" y="330" />
              </Array>
            </mxGeometry>
          </mxCell>
        </UserObject>
        <UserObject label="" tags="Wires" id="RTqUCXjV9ranWYJAu2tO-71">
          <mxCell style="edgeStyle=orthogonalEdgeStyle;curved=1;rounded=1;orthogonalLoop=0;jettySize=auto;html=1;fontSize=12;sketch=1;curveFitting=-10;jiggle=2;disableMultiStroke=0;flowAnimation=0;simplification=1;endArrow=classic;endFill=1;endSize=3;strokeWidth=2;shadow=0;startFill=1;arcSize=1;fillOpacity=80;strokeOpacity=80;entryX=0.306;entryY=-0.037;entryDx=0;entryDy=0;entryPerimeter=0;exitX=1;exitY=0;exitDx=0;exitDy=0;" parent="RTqUCXjV9ranWYJAu2tO-55" source="RTqUCXjV9ranWYJAu2tO-40" target="RTqUCXjV9ranWYJAu2tO-53" edge="1">
            <mxGeometry relative="1" as="geometry">
              <mxPoint x="244" y="721" as="sourcePoint" />
              <mxPoint x="330" y="340" as="targetPoint" />
            </mxGeometry>
          </mxCell>
        </UserObject>
        <UserObject label="" tags="Wires" id="RTqUCXjV9ranWYJAu2tO-72">
          <mxCell style="orthogonalLoop=0;jettySize=auto;html=1;fontSize=12;disableMultiStroke=0;flowAnimation=0;simplification=1;endArrow=classic;endFill=1;endSize=3;strokeWidth=2;shadow=0;startFill=1;arcSize=111;fillOpacity=100;strokeOpacity=80;exitX=0.972;exitY=0.07;exitDx=0;exitDy=0;curved=1;labelBorderColor=none;strokeColor=#000000;backgroundOutline=0;fixDash=0;snapToPoint=0;sketch=1;curveFitting=1;jiggle=2;exitPerimeter=0;entryX=0.188;entryY=0.002;entryDx=0;entryDy=0;entryPerimeter=0;" parent="RTqUCXjV9ranWYJAu2tO-55" source="RTqUCXjV9ranWYJAu2tO-41" target="RTqUCXjV9ranWYJAu2tO-53" edge="1">
            <mxGeometry relative="1" as="geometry">
              <mxPoint x="235" y="670" as="sourcePoint" />
              <mxPoint x="353" y="710" as="targetPoint" />
              <Array as="points">
                <mxPoint x="290" y="650" />
              </Array>
            </mxGeometry>
          </mxCell>
        </UserObject>
        <UserObject label="" tags="Wires" id="RTqUCXjV9ranWYJAu2tO-73">
          <mxCell style="orthogonalLoop=0;jettySize=auto;html=1;fontSize=12;disableMultiStroke=0;flowAnimation=0;simplification=1;endArrow=classic;endFill=1;endSize=4;strokeWidth=2;shadow=0;startFill=1;arcSize=111;fillOpacity=100;strokeOpacity=80;exitX=0;exitY=0;exitDx=0;exitDy=0;curved=1;labelBorderColor=none;strokeColor=#000000;backgroundOutline=0;fixDash=0;snapToPoint=0;sketch=1;curveFitting=1;jiggle=2;entryX=0;entryY=0.75;entryDx=0;entryDy=0;targetPerimeterSpacing=4;" parent="RTqUCXjV9ranWYJAu2tO-55" source="RTqUCXjV9ranWYJAu2tO-42" target="RTqUCXjV9ranWYJAu2tO-14" edge="1">
            <mxGeometry relative="1" as="geometry">
              <mxPoint x="257" y="721" as="sourcePoint" />
              <mxPoint x="362" y="710" as="targetPoint" />
              <Array as="points">
                <mxPoint x="120" y="710" />
                <mxPoint x="150" y="590" />
                <mxPoint x="300" y="410" />
              </Array>
            </mxGeometry>
          </mxCell>
        </UserObject>
        <UserObject label="" tags="Wires" id="RTqUCXjV9ranWYJAu2tO-74">
          <mxCell style="orthogonalLoop=0;jettySize=auto;html=1;fontSize=12;disableMultiStroke=0;flowAnimation=0;simplification=1;endArrow=classic;endFill=1;endSize=4;strokeWidth=2;shadow=0;startFill=1;arcSize=111;fillOpacity=100;strokeOpacity=80;curved=1;labelBorderColor=none;strokeColor=#000000;backgroundOutline=0;fixDash=0;snapToPoint=0;sketch=1;curveFitting=1;jiggle=2;entryX=1;entryY=0.5;entryDx=0;entryDy=0;targetPerimeterSpacing=4;startSize=4;sourcePerimeterSpacing=4;exitX=0.866;exitY=-0.1;exitDx=0;exitDy=0;exitPerimeter=0;" parent="RTqUCXjV9ranWYJAu2tO-55" source="RTqUCXjV9ranWYJAu2tO-53" target="RTqUCXjV9ranWYJAu2tO-14" edge="1">
            <mxGeometry relative="1" as="geometry">
              <mxPoint x="400" y="730" as="sourcePoint" />
              <mxPoint x="372" y="720" as="targetPoint" />
              <Array as="points">
                <mxPoint x="410" y="610" />
                <mxPoint x="420" y="520" />
                <mxPoint x="430" y="450" />
                <mxPoint x="410" y="410" />
              </Array>
            </mxGeometry>
          </mxCell>
        </UserObject>
        <UserObject label="" tags="DOT" id="RTqUCXjV9ranWYJAu2tO-83">
          <mxCell style="edgeStyle=elbowEdgeStyle;rounded=0;orthogonalLoop=1;jettySize=auto;html=1;fontSize=16;startSize=3;endSize=6;endArrow=classicThin;fontFamily=Kalam;hachureGap=4;dashed=1;dashPattern=1 1;fontSource=https%3A%2F%2Ffonts.googleapis.com%2Fcss%3Ffamily%3DKalam;endFill=1;strokeWidth=2;startFill=0;arcSize=0;elbow=vertical;orthogonal=1;entryX=0.5;entryY=0;entryDx=0;entryDy=0;startArrow=ERmany;" parent="RTqUCXjV9ranWYJAu2tO-55" source="vccciff3yIBG3zHQTHzS-0" target="RTqUCXjV9ranWYJAu2tO-30" edge="1">
            <mxGeometry relative="1" as="geometry">
              <mxPoint x="470" y="200" as="sourcePoint" />
              <mxPoint x="580" y="260" as="targetPoint" />
              <Array as="points">
                <mxPoint x="620" y="230" />
                <mxPoint x="620" y="170" />
                <mxPoint x="630" y="260" />
                <mxPoint x="650" y="210" />
              </Array>
            </mxGeometry>
          </mxCell>
        </UserObject>
        <UserObject label="" tags="DOT" id="RTqUCXjV9ranWYJAu2tO-85">
          <mxCell style="edgeStyle=elbowEdgeStyle;shape=connector;rounded=0;hachureGap=4;orthogonalLoop=0;jettySize=auto;html=1;dashed=1;labelBackgroundColor=default;strokeColor=default;fontFamily=Kalam;fontSource=https%3A%2F%2Ffonts.googleapis.com%2Fcss%3Ffamily%3DKalam;fontSize=16;fontColor=default;endArrow=classicThin;endFill=1;dashPattern=1 1;strokeWidth=2;metaEdit=0;orthogonal=1;ignoreEdge=0;flowAnimation=0;backgroundOutline=0;fixDash=0;snapToPoint=1;startFill=1;anchorPointDirection=0;arcSize=0;perimeterSpacing=0;elbow=vertical;" parent="RTqUCXjV9ranWYJAu2tO-55" source="RTqUCXjV9ranWYJAu2tO-146" target="RTqUCXjV9ranWYJAu2tO-29" edge="1">
            <mxGeometry relative="1" as="geometry">
              <mxPoint x="459.77" y="430.44399999999996" as="sourcePoint" />
              <mxPoint x="500" y="442" as="targetPoint" />
            </mxGeometry>
          </mxCell>
        </UserObject>
        <UserObject label="" tags="Wires" id="RTqUCXjV9ranWYJAu2tO-99">
          <mxCell style="edgeStyle=orthogonalEdgeStyle;curved=1;rounded=1;orthogonalLoop=0;jettySize=auto;html=1;fontSize=12;sketch=1;curveFitting=-10;jiggle=2;disableMultiStroke=0;flowAnimation=0;simplification=1;endArrow=classic;endFill=1;endSize=3;strokeWidth=2;shadow=0;startFill=1;arcSize=1;fillOpacity=80;strokeOpacity=80;" parent="RTqUCXjV9ranWYJAu2tO-55" source="RTqUCXjV9ranWYJAu2tO-40" target="RTqUCXjV9ranWYJAu2tO-45" edge="1">
            <mxGeometry relative="1" as="geometry">
              <Array as="points" />
            </mxGeometry>
          </mxCell>
        </UserObject>
        <object label="Waypoints" id="RTqUCXjV9ranWYJAu2tO-144">
          <mxCell style="" parent="RTqUCXjV9ranWYJAu2tO-0" />
        </object>
      </root>
    </mxGraphModel>
  </diagram>
</mxfile>
